<svg width="30" height="30" viewBox="0 0 30 30" fill="none" xmlns="http://www.w3.org/2000/svg">
<mask id="mask0_84_2513" style="mask-type:luminance" maskUnits="userSpaceOnUse" x="2" y="2" width="26" height="26">
<path fill-rule="evenodd" clip-rule="evenodd" d="M2.5 2.5H27.4999V27.5H2.5V2.5Z" fill="white"/>
</mask>
<g mask="url(#mask0_84_2513)">
<path fill-rule="evenodd" clip-rule="evenodd" d="M9.58 4.375C6.41875 4.375 4.375 6.54125 4.375 9.895V20.105C4.375 23.4587 6.41875 25.625 9.58 25.625H20.415C23.58 25.625 25.625 23.4587 25.625 20.105V9.895C25.625 6.54125 23.58 4.375 20.4175 4.375H9.58ZM20.415 27.5H9.58C5.345 27.5 2.5 24.5275 2.5 20.105V9.895C2.5 5.4725 5.345 2.5 9.58 2.5H20.4175C24.6537 2.5 27.5 5.4725 27.5 9.895V20.105C27.5 24.5275 24.6537 27.5 20.415 27.5Z" fill="#727171"/>
</g>
<path fill-rule="evenodd" clip-rule="evenodd" d="M14.9926 20.9375C14.4751 20.9375 14.0551 20.5175 14.0551 20V15C14.0551 14.4825 14.4751 14.0625 14.9926 14.0625C15.5101 14.0625 15.9301 14.4825 15.9301 15V20C15.9301 20.5175 15.5101 20.9375 14.9926 20.9375Z" fill="#727171"/>
<path fill-rule="evenodd" clip-rule="evenodd" d="M14.9987 11.5051C14.3074 11.5051 13.7424 10.9464 13.7424 10.2551C13.7424 9.56388 14.2962 9.00513 14.9862 9.00513H14.9987C15.6899 9.00513 16.2487 9.56388 16.2487 10.2551C16.2487 10.9464 15.6899 11.5051 14.9987 11.5051Z" fill="#727171"/>
</svg>
