<svg width="20" height="21" viewBox="0 0 20 21" fill="none" xmlns="http://www.w3.org/2000/svg">
<path d="M0 7.61114C0 5.12199 0 3.87743 0.484414 2.92671C0.910521 2.09044 1.59044 1.41052 2.42671 0.984414C3.37743 0.5 4.62199 0.5 7.11114 0.5H12.8889C15.378 0.5 16.6226 0.5 17.5733 0.984414C18.4096 1.41052 19.0895 2.09044 19.5156 2.92671C20 3.87743 20 5.12199 20 7.61114V13.3889C20 15.878 20 17.1226 19.5156 18.0733C19.0895 18.9096 18.4096 19.5895 17.5733 20.0156C16.6226 20.5 15.378 20.5 12.8889 20.5H7.11114C4.62199 20.5 3.37743 20.5 2.42671 20.0156C1.59044 19.5895 0.910521 18.9096 0.484414 18.0733C0 17.1226 0 15.878 0 13.3889V7.61114Z" fill="#E9E6E6"/>
<path fill-rule="evenodd" clip-rule="evenodd" d="M15.7143 8.2226L15.7143 8.25295C15.7142 8.26574 15.7141 8.27853 15.7139 8.29131C15.7142 8.30624 15.7143 8.32131 15.7143 8.33645C15.7143 10.7195 13.8577 12.8289 12.6153 14.2405C12.2548 14.6501 11.9461 15.001 11.7493 15.2827C11.0496 16.2847 10.6803 17.3703 10.5831 17.7878C10.5831 18.1022 10.3221 18.3572 10.0001 18.3572C9.67798 18.3572 9.41698 18.1022 9.41698 17.7878C9.31977 17.3703 8.95048 16.2847 8.25077 15.2827C8.05405 15.001 7.74527 14.6501 7.38477 14.2405C6.14241 12.8289 4.28577 10.7195 4.28577 8.33645C4.28577 8.32131 4.28591 8.30624 4.2862 8.29131C4.28591 8.26845 4.28577 8.24553 4.28577 8.2226C4.28577 5.141 6.84412 2.64288 10.0001 2.64288C13.156 2.64288 15.7143 5.141 15.7143 8.2226ZM10.0001 10.2723C11.2238 10.2723 12.2158 9.3036 12.2158 8.10874C12.2158 6.91381 11.2238 5.94516 10.0001 5.94516C8.77634 5.94516 7.78434 6.91381 7.78434 8.10874C7.78434 9.3036 8.77634 10.2723 10.0001 10.2723Z" fill="#34A851"/>
<path d="M15.0753 5.65612C14.3756 4.33962 13.1544 3.32984 11.6789 2.8877L8.39709 6.61536C8.80059 6.20252 9.36959 5.94533 10.0002 5.94533C11.2239 5.94533 12.2159 6.914 12.2159 8.10886C12.2159 8.59636 12.0508 9.04614 11.7722 9.40793L15.0753 5.65612Z" fill="#4285F5"/>
<path d="M7.45082 14.3161C7.4289 14.2911 7.40682 14.2661 7.38454 14.2408C6.56561 13.3103 5.47977 12.0766 4.83472 10.6612L8.24568 6.78699C7.95625 7.15256 7.78404 7.61113 7.78404 8.10899C7.78404 9.30384 8.77611 10.2726 9.99982 10.2726C10.6197 10.2726 11.1801 10.024 11.5823 9.62334L7.45082 14.3161Z" fill="#F9BB0E"/>
<path d="M5.63782 4.61829C4.79439 5.59059 4.28577 6.84863 4.28577 8.22263C4.28577 8.24556 4.28591 8.26849 4.2862 8.29134C4.28591 8.30627 4.28577 8.32134 4.28577 8.33649C4.28577 9.1487 4.50145 9.9292 4.83497 10.661L8.2402 6.79327L5.63782 4.61829Z" fill="#E74335"/>
<path d="M11.6785 2.88755C11.1477 2.72851 10.584 2.64288 9.9998 2.64288C8.25102 2.64288 6.68573 3.40993 5.63757 4.61826L8.23994 6.79324L8.24559 6.78681C8.29294 6.72703 8.34337 6.66967 8.39673 6.6151L11.6785 2.88755Z" fill="#1A73E6"/>
</svg>
