<svg width="40" height="40" viewBox="0 0 40 40" fill="none" xmlns="http://www.w3.org/2000/svg">
<path d="M20.8334 3.3335H15.8334C14.9129 3.3335 14.1667 4.07969 14.1667 5.00016V6.66683C14.1667 7.5873 14.9129 8.3335 15.8334 8.3335H20.8334C21.7538 8.3335 22.5 7.5873 22.5 6.66683V5.00016C22.5 4.07969 21.7538 3.3335 20.8334 3.3335Z" fill="#727171"/>
<path d="M28.3333 5H24.1666V6.66667C24.1666 7.55072 23.8155 8.39857 23.1903 9.02369C22.5652 9.64881 21.7174 10 20.8333 10H15.8333C14.9493 10 14.1014 9.64881 13.4763 9.02369C12.8512 8.39857 12.5 7.55072 12.5 6.66667V5H8.33331C7.67027 5 7.03439 5.26339 6.56555 5.73223C6.09671 6.20107 5.83331 6.83696 5.83331 7.5V32.5C5.83331 33.163 6.09671 33.7989 6.56555 34.2678C7.03439 34.7366 7.67027 35 8.33331 35H20.8333C19.5 35 27 35 29 35C31 35 30.8333 32.5 31 32C31 30.5 31 29.5 31 28C31 28 31 26.6667 30.8333 22.3667V7.5C30.8333 6.83696 30.5699 6.20107 30.1011 5.73223C29.6322 5.26339 28.9964 5 28.3333 5ZM17.5 28.3333H10.8333C10.6123 28.3333 10.4003 28.2455 10.2441 28.0893C10.0878 27.933 9.99998 27.721 9.99998 27.5C9.99998 27.279 10.0878 27.067 10.2441 26.9107C10.4003 26.7545 10.6123 26.6667 10.8333 26.6667H17.5C17.721 26.6667 17.933 26.7545 18.0892 26.9107C18.2455 27.067 18.3333 27.279 18.3333 27.5C18.3333 27.721 18.2455 27.933 18.0892 28.0893C17.933 28.2455 17.721 28.3333 17.5 28.3333ZM25.8333 21.6667H10.8333C10.6123 21.6667 10.4003 21.5789 10.2441 21.4226C10.0878 21.2663 9.99998 21.0543 9.99998 20.8333C9.99998 20.6123 10.0878 20.4004 10.2441 20.2441C10.4003 20.0878 10.6123 20 10.8333 20H25.8333C26.0543 20 26.2663 20.0878 26.4226 20.2441C26.5788 20.4004 26.6666 20.6123 26.6666 20.8333C26.6666 21.0543 26.5788 21.2663 26.4226 21.4226C26.2663 21.5789 26.0543 21.6667 25.8333 21.6667ZM25.8333 15H10.8333C10.6123 15 10.4003 14.9122 10.2441 14.7559C10.0878 14.5996 9.99998 14.3877 9.99998 14.1667C9.99998 13.9457 10.0878 13.7337 10.2441 13.5774C10.4003 13.4211 10.6123 13.3333 10.8333 13.3333H25.8333C26.0543 13.3333 26.2663 13.4211 26.4226 13.5774C26.5788 13.7337 26.6666 13.9457 26.6666 14.1667C26.6666 14.3877 26.5788 14.5996 26.4226 14.7559C26.2663 14.9122 26.0543 15 25.8333 15Z" fill="#727171"/>
</svg>
