<svg width="300" height="363" viewBox="0 0 300 363" fill="none" xmlns="http://www.w3.org/2000/svg">
<g clip-path="url(#clip0_319_2649)">
<path d="M119.699 331.98C119.699 331.98 113.396 341.297 120.271 349.045C127.146 356.793 119.737 361.033 119.737 361.033L91.7917 333.088L105.756 319.126L119.699 331.98Z" fill="#AC3A99"/>
<path d="M121.185 140.335C121.185 140.335 121.309 137.015 121.281 144.547C121.237 157.055 122.427 190.107 121.591 232.708C120.924 266.761 97.2176 325.196 97.2176 325.196L118.598 340.541C118.598 340.541 150.758 288.378 155.862 236.738C158.475 210.305 163.818 139.193 163.818 139.193L121.185 140.335Z" fill="#262626"/>
<path d="M187.159 341.824C187.159 341.824 189.289 352.869 199.631 353.485C209.973 354.1 207.73 362.339 207.73 362.339H168.21V342.594L187.159 341.824Z" fill="#AC3A99"/>
<path d="M192.181 142.517C192.181 142.517 195.426 238.537 195.087 243.23L192.039 348.145L166.498 348.617L162.38 239.435C162.38 239.435 159.682 209.318 152.403 181.351C148.68 166.998 146.44 152.301 145.717 137.49L192.181 142.517Z" fill="#262626"/>
<path d="M158.489 210.595L160.618 178.027C160.618 178.027 162.806 191.567 162.806 203.237C162.806 208.941 161.631 231.526 161.631 231.526L158.489 210.595Z" fill="#0A0A0A"/>
<path d="M120.905 140.332L120.82 140.337C120.82 140.337 120.879 138.699 120.905 140.332Z" fill="#333333"/>
<path d="M121.01 140.332L120.925 140.337C120.925 140.337 120.986 138.699 121.01 140.332Z" fill="#333333"/>
<path d="M137.733 19.0337C137.733 19.0337 135.676 29.998 132.71 33.7109C124.171 44.399 120.544 57.1379 126.902 64.7799C133.26 72.422 178.973 77.9823 184.303 62.7911C188.789 50.0012 182.7 47.8404 182.473 36.8198C182.37 31.8335 181.704 21.3236 181.704 21.3236" fill="#0A0A0A"/>
<path d="M174.818 56.996C174.739 56.986 173.857 71.6209 156.853 70.3466C145.082 69.4648 140.885 56.9756 140.615 56.9756C141.884 56.7059 144.021 56.3134 144.585 56.0128C146.439 55.0167 148.732 53.9806 149.329 50.3806C149.674 48.3059 149.091 37.6922 149.269 35.5933L167.338 39.6263C167.086 44.0595 165.319 54.3369 171.512 56.1567C172.545 56.4568 173.653 56.7336 174.818 56.996Z" fill="#E8A58B"/>
<path opacity="0.52" d="M167.59 51.9555C167.307 51.0435 167.125 50.1032 167.047 49.1516C166.848 46.9794 166.888 44.792 167.165 42.6285C163.493 42.1325 160.034 40.6168 157.18 38.2534C156.847 39.492 154.999 44.907 155.513 46.0846C156.476 48.3107 161.016 51.9555 167.59 51.9555Z" fill="#0C0C0C"/>
<path d="M164.385 48.4197C157.23 48.2586 148.416 44.3352 147.646 34.6885L146.951 25.9846C146.181 16.3379 150.624 8.11366 159.707 7.38861C168.789 6.66403 176.202 13.9422 176.972 23.5888L177.279 27.4423C177.575 31.1437 177.151 48.7074 164.385 48.4197Z" fill="#E8A58B"/>
<path d="M172.071 28.0841C172.691 28.0841 173.193 27.5816 173.193 26.9617C173.193 26.3418 172.691 25.8394 172.071 25.8394C171.451 25.8394 170.948 26.3418 170.948 26.9617C170.948 27.5816 171.451 28.0841 172.071 28.0841Z" fill="#0C0C0C"/>
<path d="M161.852 28.0841C162.472 28.0841 162.974 27.5816 162.974 26.9617C162.974 26.3418 162.472 25.8394 161.852 25.8394C161.232 25.8394 160.73 26.3418 160.73 26.9617C160.73 27.5816 161.232 28.0841 161.852 28.0841Z" fill="#0C0C0C"/>
<path opacity="0.52" d="M168.614 35.6155H168.632C168.999 35.5832 169.365 35.5309 169.727 35.4587C170.269 35.3468 170.985 35.1419 170.946 34.6599C170.903 34.1101 168.924 28.2997 168.698 27.639C168.677 27.5824 168.635 27.5362 168.581 27.5103C168.527 27.4843 168.464 27.4807 168.407 27.5001C168.35 27.5196 168.303 27.5606 168.276 27.6143C168.249 27.668 168.244 27.7302 168.262 27.7876C169.107 30.2619 170.458 34.3264 170.488 34.6951C170.41 34.8571 169.507 35.0829 168.594 35.1558C168.535 35.1611 168.481 35.1888 168.442 35.2332C168.403 35.2776 168.383 35.3352 168.385 35.3942C168.387 35.4532 168.412 35.509 168.455 35.5501C168.497 35.5912 168.554 35.6144 168.613 35.615L168.614 35.6155Z" fill="#0C0C0C"/>
<path opacity="0.52" d="M167.129 37.9117C165.657 37.9391 164.212 38.312 162.91 39.0003C162.882 39.013 162.856 39.0314 162.835 39.0542C162.814 39.0771 162.798 39.1039 162.787 39.1332C162.777 39.1625 162.773 39.1935 162.775 39.2245C162.777 39.2555 162.785 39.2858 162.799 39.3136C162.813 39.3413 162.832 39.3659 162.856 39.3859C162.88 39.406 162.907 39.421 162.937 39.4301C162.967 39.4392 162.998 39.4422 163.029 39.4389C163.06 39.4356 163.09 39.4261 163.117 39.4109C165.927 37.9951 168.559 38.008 170.732 39.4476C170.776 39.4782 170.821 39.5063 170.868 39.5319C170.923 39.5558 170.984 39.5578 171.04 39.5374C171.095 39.5171 171.141 39.4761 171.167 39.4228C171.194 39.3696 171.198 39.3083 171.18 39.2518C171.162 39.1953 171.123 39.1478 171.071 39.1194C171.054 39.1098 171.024 39.0903 170.986 39.0641C169.844 38.3047 168.501 37.9035 167.129 37.9117Z" fill="#0C0C0C"/>
<path d="M139.51 28.189L147.647 27.5864C153.953 25.7928 156.909 15.5302 156.909 15.5302C156.909 15.5302 163.478 23.4757 181.704 21.3249C181.704 21.3249 180.813 -3.86657 153.756 0.51279C145.031 1.92526 138.029 9.80838 137.556 21.3025C137.224 29.3557 139.51 28.189 139.51 28.189Z" fill="#0A0A0A"/>
<path d="M148.444 37.5823C145.684 37.8024 143.211 35.028 142.991 32.2678C142.77 29.5077 144.887 27.807 147.647 27.5864L149.219 29.3228L150.819 37.3927L148.444 37.5823Z" fill="#E8A58B"/>
<path d="M170.816 23.2953C171.66 22.8707 172.603 22.6811 173.546 22.7465C174.01 22.7758 174.467 22.8745 174.902 23.0395C175.332 23.2 175.741 23.4139 176.118 23.6764C176.172 23.7101 176.21 23.7639 176.225 23.8259C176.239 23.8879 176.228 23.9532 176.194 24.0073C176.161 24.0613 176.107 24.0998 176.045 24.1142C175.983 24.1287 175.918 24.1179 175.864 24.0842L175.847 24.0747C175.497 23.8523 175.119 23.6751 174.724 23.5473C174.334 23.4189 173.927 23.35 173.516 23.3429C172.702 23.3243 171.896 23.5215 171.182 23.9146L171.159 23.9279C171.076 23.9754 170.977 23.988 170.885 23.9629C170.793 23.9377 170.714 23.8769 170.667 23.7938C170.619 23.7108 170.606 23.6122 170.632 23.5199C170.657 23.4276 170.718 23.349 170.801 23.3015L170.816 23.2953Z" fill="#0C0C0C"/>
<path d="M163.52 24.2002C162.754 23.9228 161.928 23.8528 161.126 23.9973C160.721 24.0676 160.329 24.1985 159.963 24.3855C159.593 24.573 159.247 24.8062 158.935 25.0796L158.921 25.0915C158.897 25.1122 158.87 25.1279 158.84 25.1379C158.81 25.1478 158.778 25.1518 158.747 25.1495C158.715 25.1472 158.684 25.1387 158.656 25.1246C158.628 25.1104 158.603 25.0909 158.582 25.067C158.562 25.0431 158.546 25.0154 158.536 24.9855C158.526 24.9555 158.522 24.9239 158.524 24.8925C158.527 24.861 158.535 24.8303 158.549 24.8021C158.563 24.7739 158.583 24.7487 158.607 24.7281C158.939 24.4094 159.31 24.1336 159.711 23.9073C160.115 23.6773 160.551 23.5093 161.005 23.409C161.926 23.199 162.887 23.2408 163.786 23.53C163.875 23.562 163.947 23.6272 163.988 23.7117C164.029 23.7962 164.036 23.8934 164.006 23.9827C163.977 24.0719 163.914 24.1461 163.83 24.1896C163.747 24.2331 163.65 24.2424 163.56 24.2155L163.546 24.2102L163.52 24.2002Z" fill="#0C0C0C"/>
<path d="M147.675 27.4873L147.62 27.2577C158.12 24.7191 156.718 14.5317 156.703 14.4288L156.936 14.3936C156.952 14.4984 158.389 24.8968 147.675 27.4873Z" fill="#0C0C0C"/>
<path opacity="0.1" d="M161.365 35.5383C162.546 35.5383 163.503 34.8362 163.503 33.9701C163.503 33.104 162.546 32.4019 161.365 32.4019C160.184 32.4019 159.227 33.104 159.227 33.9701C159.227 34.8362 160.184 35.5383 161.365 35.5383Z" fill="#0C0C0C"/>
<path opacity="0.1" d="M174.072 33.5947C174.072 34.4598 175.032 35.1616 176.212 35.1635C176.416 35.1633 176.62 35.142 176.82 35.1001C176.995 34.0897 177.116 33.1122 177.194 32.2032C176.88 32.0836 176.547 32.0238 176.211 32.027C175.031 32.0251 174.074 32.7273 174.072 33.5947Z" fill="#0C0C0C"/>
<path d="M195.944 89.2194C195.408 95.5114 192.803 134.767 192.289 142.517H121.321C120.92 135.527 119.12 104.962 117.6 91.2926C116.148 78.2488 113.301 71.7186 115.388 67.8623C118.799 61.5598 128.118 57.9184 134.471 57.058C138.352 56.534 144.19 56.1558 144.19 56.1558C144.19 56.1558 144.684 66.1521 156.466 66.7085C172.506 67.465 171.435 56.1558 171.514 56.1558C174.112 56.1558 188.956 57.8007 192.588 59.9535C202.482 65.8134 197.081 75.8874 195.944 89.2194Z" fill="#AC3A99"/>
<path d="M249.885 100.724C249.967 100.498 250.094 100.292 250.258 100.117C250.422 99.9427 250.62 99.8033 250.839 99.7077C251.059 99.6121 251.296 99.5623 251.536 99.5614C251.775 99.5604 252.012 99.6084 252.233 99.7022C252.653 99.8983 252.984 100.247 253.157 100.677C253.33 101.107 253.334 101.587 253.167 102.02L252.357 104.259L257.459 99.0567C258.093 98.3898 259.297 97.9796 259.997 98.7399C260.603 99.3173 262.005 99.4955 262.233 100.577C262.24 100.583 262.226 110.486 261.638 111.105C259.142 113.725 253.111 114.233 249.745 112.902L244.448 110.806L249.885 100.724Z" fill="#E8A58B"/>
<g opacity="0.1">
<path d="M249.885 100.724C249.967 100.498 250.094 100.292 250.258 100.117C250.422 99.9427 250.62 99.8033 250.839 99.7077C251.059 99.6121 251.296 99.5623 251.536 99.5614C251.775 99.5604 252.012 99.6084 252.233 99.7022C252.653 99.8983 252.984 100.247 253.157 100.677C253.33 101.107 253.334 101.587 253.167 102.02L252.357 104.259L257.459 99.0567C258.093 98.3898 259.297 97.9796 259.997 98.7399C260.603 99.3173 262.005 99.4955 262.233 100.577C262.24 100.583 262.226 110.486 261.638 111.105C259.142 113.725 253.111 114.233 249.745 112.902L244.448 110.806L249.885 100.724Z" fill="#0C0C0C"/>
</g>
<path d="M271.866 141.085L180.843 154.69C179.111 154.948 177.341 154.738 175.719 154.079C174.096 153.421 172.68 152.339 171.619 150.946C170.557 149.553 169.889 147.901 169.684 146.162C169.479 144.423 169.744 142.661 170.452 141.06L205.23 62.442C205.897 60.9347 206.935 59.6204 208.245 58.6212C209.556 57.622 211.098 56.9703 212.729 56.7266C214.359 56.4829 216.024 56.6552 217.57 57.2274C219.116 57.7996 220.492 58.7532 221.57 59.9996L277.817 125.013C278.963 126.337 279.732 127.944 280.044 129.667C280.356 131.39 280.2 133.165 279.592 134.807C278.984 136.45 277.947 137.898 276.588 139.002C275.229 140.107 273.598 140.826 271.866 141.085Z" fill="#AC3A99"/>
<path opacity="0.48" d="M271.866 141.085L180.843 154.69C179.111 154.948 177.341 154.738 175.719 154.079C174.096 153.421 172.68 152.339 171.619 150.946C170.557 149.553 169.889 147.901 169.684 146.162C169.479 144.423 169.744 142.661 170.452 141.06L205.23 62.442C205.897 60.9347 206.935 59.6204 208.245 58.6212C209.556 57.622 211.098 56.9703 212.729 56.7266C214.359 56.4829 216.024 56.6552 217.57 57.2274C219.116 57.7996 220.492 58.7532 221.57 59.9996L277.817 125.013C278.963 126.337 279.732 127.944 280.044 129.667C280.356 131.39 280.2 133.165 279.592 134.807C278.984 136.45 277.947 137.898 276.588 139.002C275.229 140.107 273.598 140.826 271.866 141.085Z" fill="white"/>
<path d="M179.342 155.04C177.679 155.03 176.045 154.606 174.586 153.807C173.128 153.007 171.891 151.858 170.987 150.461C170.084 149.065 169.542 147.466 169.411 145.808C169.279 144.15 169.562 142.485 170.235 140.964L205.013 62.3464C205.696 60.8021 206.758 59.4555 208.101 58.4317C209.444 57.4079 211.024 56.7402 212.694 56.4905C214.364 56.2408 216.07 56.4173 217.653 57.0036C219.237 57.5899 220.647 58.5669 221.751 59.844L277.997 124.856C279.171 126.213 279.959 127.86 280.279 129.625C280.599 131.39 280.439 133.209 279.816 134.891C279.193 136.573 278.129 138.057 276.737 139.188C275.344 140.319 273.674 141.055 271.9 141.32L180.876 154.926C180.368 155.002 179.856 155.04 179.342 155.04ZM214.195 56.8547C213.716 56.8549 213.238 56.8906 212.765 56.9614C211.173 57.1951 209.667 57.8295 208.387 58.8051C207.107 59.7807 206.096 61.0655 205.449 62.5388L170.673 141.156C169.982 142.719 169.723 144.438 169.924 146.135C170.124 147.831 170.776 149.443 171.812 150.802C172.847 152.16 174.229 153.216 175.812 153.858C177.395 154.501 179.121 154.707 180.811 154.454L271.834 140.849C273.524 140.597 275.115 139.895 276.441 138.818C277.767 137.741 278.779 136.327 279.372 134.725C279.966 133.123 280.118 131.391 279.813 129.71C279.509 128.029 278.758 126.461 277.641 125.168L221.391 60.1555C220.5 59.1196 219.396 58.2883 218.154 57.7186C216.912 57.1489 215.561 56.8542 214.195 56.8547Z" fill="#0C0C0C"/>
<path d="M212.643 93.5906L210.664 83.0459L222.423 81.2881L223.614 91.9504L225.628 116.601L217.926 117.752L212.643 93.5906ZM216.495 130.281C215.871 126.103 218.404 122.43 222.469 121.822C226.535 121.214 230.033 123.986 230.657 128.165C231.277 132.316 228.745 135.988 224.678 136.597C220.611 137.206 217.116 134.434 216.495 130.281Z" fill="white"/>
<path d="M256.376 108.499C256.309 108.191 256.344 107.87 256.477 107.584C256.609 107.299 256.832 107.064 257.11 106.917C257.094 106.897 257.043 106.858 257.079 106.833L255.875 106.878C255.521 106.899 255.171 106.79 254.89 106.573C254.609 106.356 254.416 106.045 254.347 105.697C254.29 105.35 254.364 104.996 254.554 104.701C254.744 104.406 255.036 104.192 255.375 104.1C255.364 104.091 255.364 104.074 255.357 104.062L254.862 104.08C254.528 104.098 254.197 104.001 253.927 103.803C253.657 103.606 253.463 103.322 253.379 102.998C253.33 102.794 253.327 102.581 253.37 102.376C253.413 102.171 253.501 101.978 253.628 101.811C253.755 101.643 253.917 101.507 254.103 101.41C254.289 101.313 254.495 101.259 254.704 101.251L255.848 101.209C255.848 101.202 255.841 101.199 255.84 101.193C255.84 101.187 255.847 101.179 255.848 101.171C255.532 101.112 255.246 100.948 255.037 100.705C254.827 100.462 254.706 100.154 254.694 99.8337C254.609 99.0077 255.497 98.4999 256.235 98.4746L258.57 98.5699C258.93 98.5847 259.28 98.6881 259.59 98.8709C259.901 99.0537 260.161 99.3103 260.348 99.6179C261.968 102.281 266.035 109.336 263.678 109.424L257.878 109.639C257.536 109.643 257.203 109.533 256.931 109.326C256.659 109.12 256.463 108.829 256.376 108.499Z" fill="#E8A58B"/>
<path d="M196.511 120.111C196.489 119.764 196.36 119.433 196.142 119.164C195.923 118.894 195.626 118.699 195.292 118.605C195.307 118.578 195.313 118.547 195.309 118.516C195.303 118.491 195.29 118.468 195.271 118.449C195.253 118.431 195.23 118.417 195.205 118.41L196.6 118.101C197.013 118.019 197.382 117.79 197.639 117.457C197.896 117.123 198.024 116.708 197.999 116.288C197.961 115.873 197.77 115.488 197.464 115.206C197.158 114.925 196.758 114.767 196.342 114.763C196.351 114.749 196.347 114.73 196.352 114.716L196.923 114.588C197.312 114.51 197.662 114.299 197.914 113.991C198.165 113.684 198.302 113.299 198.302 112.902C198.297 112.653 198.237 112.409 198.126 112.186C198.015 111.963 197.856 111.768 197.66 111.614C197.465 111.46 197.237 111.352 196.995 111.297C196.752 111.241 196.5 111.24 196.257 111.294L194.935 111.588C194.935 111.581 194.94 111.575 194.939 111.568C194.937 111.561 194.927 111.554 194.924 111.545C195.268 111.383 195.547 111.108 195.715 110.767C195.882 110.425 195.929 110.037 195.847 109.665C195.697 108.692 194.527 108.379 193.671 108.569L185.954 110.141L187.785 108.803C188.147 108.549 188.399 108.168 188.491 107.735C188.582 107.303 188.506 106.852 188.278 106.474C188.153 106.283 187.991 106.119 187.801 105.992C187.611 105.866 187.397 105.78 187.173 105.738C186.948 105.697 186.718 105.702 186.495 105.753C186.273 105.804 186.063 105.9 185.879 106.035L175.879 113.343C174.707 114.201 173.915 115.481 173.671 116.913C173.428 118.346 173.752 119.816 174.575 121.013C175.531 122.401 176.879 123.472 178.447 124.089C180.015 124.706 181.732 124.84 183.377 124.475L195.133 121.866C195.527 121.771 195.877 121.547 196.127 121.228C196.377 120.909 196.513 120.516 196.511 120.111Z" fill="#E8A58B"/>
<g opacity="0.25">
<path d="M187.298 113.14C187.307 113.18 187.331 113.214 187.365 113.236C187.399 113.258 187.44 113.265 187.48 113.257L194.816 111.752C194.836 111.748 194.855 111.74 194.872 111.729C194.889 111.718 194.903 111.703 194.915 111.686C194.926 111.669 194.933 111.65 194.937 111.63C194.941 111.61 194.941 111.589 194.937 111.57C194.933 111.55 194.925 111.531 194.913 111.514C194.902 111.497 194.887 111.483 194.87 111.471C194.853 111.46 194.834 111.452 194.814 111.449C194.794 111.445 194.774 111.445 194.754 111.449L187.418 112.953C187.377 112.962 187.342 112.986 187.319 113.02C187.297 113.055 187.289 113.096 187.297 113.137L187.298 113.14Z" fill="#0C0C0C"/>
</g>
<g opacity="0.25">
<path d="M187.872 116.393C187.881 116.433 187.905 116.467 187.94 116.489C187.974 116.511 188.015 116.518 188.055 116.51L196.244 114.831C196.284 114.823 196.319 114.799 196.342 114.764C196.365 114.73 196.373 114.688 196.365 114.648C196.355 114.608 196.331 114.574 196.297 114.551C196.263 114.529 196.221 114.52 196.181 114.527L187.992 116.206C187.952 116.215 187.917 116.239 187.894 116.273C187.871 116.308 187.863 116.35 187.872 116.39L187.872 116.393Z" fill="#0C0C0C"/>
</g>
<g opacity="0.25">
<path d="M188.474 119.922C188.483 119.961 188.507 119.995 188.541 120.017C188.575 120.039 188.617 120.047 188.656 120.039L195.189 118.699C195.229 118.691 195.264 118.667 195.287 118.633C195.31 118.598 195.318 118.557 195.309 118.516C195.301 118.476 195.277 118.441 195.243 118.418C195.209 118.396 195.167 118.387 195.126 118.396L188.594 119.735C188.574 119.739 188.555 119.747 188.538 119.759C188.521 119.77 188.507 119.785 188.496 119.802C188.485 119.819 188.477 119.838 188.473 119.858C188.469 119.878 188.469 119.898 188.473 119.918L188.474 119.922Z" fill="#0C0C0C"/>
</g>
<path d="M182.651 129.13L118.87 140.658C116.88 140.875 114.866 140.627 112.988 139.935C111.109 139.242 109.417 138.124 108.043 136.668C106.669 135.212 105.651 133.457 105.07 131.541C104.488 129.625 104.358 127.601 104.69 125.627L113.619 72.5528C113.893 70.8667 114.497 69.2513 115.397 67.7995C116.297 66.3477 117.475 65.0882 118.863 64.0933C120.252 63.0985 121.823 62.3881 123.487 62.0028C125.152 61.6176 126.875 61.5651 128.56 61.8486C130.244 62.132 131.856 62.7456 133.302 63.6542C134.749 64.5628 136.001 65.7484 136.988 67.1429C137.974 68.5373 138.675 70.113 139.051 71.7794C139.426 73.4457 139.468 75.1699 139.175 76.8526L133.086 113.386L179.847 107.514L182.651 129.13Z" fill="#AC3A99"/>
<path d="M118.87 140.892C118.813 140.887 118.76 140.863 118.72 140.824C118.68 140.784 118.655 140.731 118.65 140.675C118.645 140.619 118.66 140.563 118.693 140.516C118.725 140.47 118.773 140.437 118.828 140.423L182.389 128.937L179.643 107.777L133.115 113.62C133.079 113.625 133.042 113.621 133.007 113.609C132.972 113.597 132.941 113.576 132.916 113.55C132.89 113.523 132.871 113.491 132.86 113.456C132.849 113.421 132.847 113.384 132.853 113.347L136.723 89.9966C136.74 89.9418 136.777 89.895 136.826 89.8649C136.875 89.8348 136.933 89.8234 136.99 89.8328C137.046 89.8422 137.098 89.8718 137.134 89.916C137.171 89.9603 137.19 90.0164 137.189 90.0738L133.37 113.112L179.817 107.279C179.879 107.272 179.941 107.289 179.991 107.327C180.04 107.365 180.072 107.421 180.081 107.483L182.885 129.099C182.893 129.159 182.877 129.219 182.842 129.268C182.807 129.317 182.754 129.35 182.695 129.362L118.914 140.89C118.899 140.892 118.884 140.892 118.87 140.892Z" fill="#0C0C0C"/>
<path d="M133.049 113.153L128.947 113.81L129.021 114.277L133.124 113.62L133.049 113.153Z" fill="#0C0C0C"/>
<path d="M264.613 362.572H54.3073C54.2096 362.572 54.1159 362.534 54.0469 362.465C53.9778 362.395 53.939 362.302 53.939 362.204C53.939 362.107 53.9778 362.013 54.0469 361.944C54.1159 361.875 54.2096 361.836 54.3073 361.836H264.613C264.711 361.836 264.804 361.875 264.874 361.944C264.943 362.013 264.981 362.107 264.981 362.204C264.981 362.302 264.943 362.395 264.874 362.465C264.804 362.534 264.711 362.572 264.613 362.572Z" fill="#3F3F3F"/>
<path d="M68.2523 246.304L6.56118 246.263C5.38756 246.262 4.23572 245.945 3.22591 245.347C2.21611 244.749 1.38536 243.891 0.820397 242.863C0.255434 241.834 -0.0230276 240.672 0.0140821 239.499C0.0511918 238.326 0.402512 237.185 1.03137 236.194L31.9093 187.542C32.5015 186.609 33.3198 185.841 34.2883 185.309C35.2567 184.777 36.3439 184.499 37.4489 184.5C38.5538 184.5 39.6406 184.78 40.6084 185.314C41.5761 185.847 42.3933 186.616 42.9842 187.55L73.7969 236.243C74.4244 237.235 74.7742 238.377 74.8096 239.55C74.8451 240.723 74.565 241.884 73.9985 242.912C73.432 243.94 72.5999 244.797 71.5892 245.394C70.5784 245.99 69.426 246.305 68.2523 246.304Z" fill="#F4F4F4"/>
<path d="M32.6263 233.634C32.6263 230.801 34.6747 228.62 37.4291 228.621C40.1836 228.623 42.2272 230.808 42.2253 233.641C42.2253 236.454 40.1769 238.635 37.4229 238.634C34.669 238.632 32.6244 236.447 32.6263 233.634ZM33.7248 208.929L33.4623 201.743L41.4326 201.748L41.1592 208.934L40.0407 225.474L34.8233 225.471L33.7248 208.929Z" fill="white"/>
<path d="M92.3428 86.6128L42.6931 86.5795C41.7485 86.5788 40.8214 86.3246 40.0085 85.8433C39.1957 85.362 38.527 84.6713 38.0722 83.8434C37.6174 83.0154 37.3932 82.0805 37.423 81.1364C37.4529 80.1922 37.7357 79.2733 38.2419 78.4758L63.0931 39.3202C63.5696 38.5694 64.2281 37.9511 65.0076 37.5229C65.787 37.0947 66.662 36.8705 67.5512 36.8711C68.4405 36.8717 69.3152 37.097 70.0941 37.5262C70.873 37.9554 71.5307 38.5745 72.0062 39.3259L96.8046 78.5153C97.3098 79.3135 97.5914 80.2327 97.6201 81.1769C97.6487 82.1211 97.4234 83.0557 96.9675 83.883C96.5116 84.7104 95.842 85.4002 95.0285 85.8803C94.215 86.3605 93.2875 86.6135 92.3428 86.6128Z" fill="#F4F4F4"/>
<path d="M63.6715 76.4169C63.7026 75.6597 63.9556 74.9283 64.3991 74.3137C64.8426 73.6991 65.4569 73.2285 66.1658 72.9603C66.8746 72.6921 67.6467 72.6383 68.3859 72.8054C69.1251 72.9725 69.7989 73.3532 70.3235 73.9003C70.848 74.4473 71.2002 75.1364 71.3362 75.882C71.4722 76.6276 71.386 77.3967 71.0883 78.0937C70.7906 78.7907 70.2946 79.3848 69.662 79.8021C69.0294 80.2194 68.288 80.4416 67.5301 80.4409C67.0096 80.44 66.4946 80.334 66.016 80.1294C65.5374 79.9247 65.105 79.6256 64.7447 79.2499C64.3844 78.8741 64.1037 78.4296 63.9193 77.9428C63.7349 77.456 63.6506 76.9371 63.6715 76.4169ZM64.5556 56.5367L64.3436 50.7534L70.7576 50.7582L70.539 56.5405L69.6391 69.8515L65.4379 69.8486L64.5556 56.5367Z" fill="white"/>
<path d="M294.229 292.262L240.048 292.225C239.017 292.225 238.005 291.948 237.117 291.422C236.23 290.897 235.5 290.144 235.004 289.24C234.507 288.336 234.262 287.316 234.295 286.286C234.327 285.255 234.636 284.252 235.189 283.382L262.309 240.65C262.829 239.831 263.548 239.156 264.398 238.689C265.249 238.222 266.204 237.977 267.175 237.978C268.145 237.979 269.1 238.225 269.95 238.693C270.8 239.161 271.518 239.837 272.037 240.657L299.099 283.424C299.65 284.295 299.958 285.299 299.989 286.329C300.02 287.36 299.774 288.38 299.277 289.283C298.779 290.186 298.048 290.938 297.16 291.462C296.272 291.987 295.26 292.263 294.229 292.262Z" fill="#F4F4F4"/>
<path d="M262.941 281.136C262.941 278.648 264.739 276.732 267.159 276.734C269.58 276.736 271.372 278.654 271.371 281.141C271.39 281.707 271.294 282.271 271.091 282.799C270.887 283.326 270.579 283.808 270.185 284.215C269.792 284.621 269.32 284.944 268.799 285.165C268.278 285.386 267.718 285.499 267.152 285.499C266.586 285.498 266.026 285.384 265.505 285.163C264.985 284.941 264.514 284.618 264.12 284.211C263.727 283.803 263.42 283.321 263.217 282.793C263.014 282.265 262.92 281.701 262.939 281.136H262.941ZM263.906 259.439L263.675 253.128L270.675 253.133L270.437 259.443L269.454 273.97L264.867 273.966L263.906 259.439Z" fill="white"/>
</g>
<defs>
<clipPath id="clip0_319_2649">
<rect width="300" height="362.573" fill="white"/>
</clipPath>
</defs>
</svg>
