<svg width="90" height="90" viewBox="0 0 90 90" fill="none" xmlns="http://www.w3.org/2000/svg">
<rect width="90" height="90" rx="15" fill="white"/>
<path d="M53.0465 38.8122C52.5883 39.2704 52.5883 40.011 53.0465 40.4692L53.9758 41.3985L52.7031 42.6712L52.3598 42.3278C51.9016 41.8696 51.161 41.8696 50.7027 42.3278L48.359 44.6716C48.1387 44.8907 48.0156 45.1884 48.0156 45.5001V50.1876C48.0156 50.661 48.3016 51.0899 48.7387 51.2704C48.884 51.3313 49.0363 51.3595 49.1875 51.3595C49.4922 51.3595 49.7922 51.2399 50.016 51.0161L54.7035 46.3286C55.1617 45.8704 55.1617 45.1298 54.7035 44.6716L54.3602 44.3282L55.6328 43.0556L56.5621 43.9849C56.7906 44.2134 57.0906 44.3282 57.3906 44.3282C57.5699 44.3282 57.7445 44.2731 57.9086 44.1911L58.4442 45.3396C57.7961 45.9782 57.3906 46.8642 57.3906 47.8438C57.3906 49.7821 58.968 51.3595 60.9063 51.3595C62.8445 51.3595 64.4219 49.7821 64.4219 47.8438C64.4219 45.9056 62.8445 44.3282 60.9063 44.3282C60.7926 44.3282 60.686 44.3517 60.5746 44.3622L59.7051 42.4989L61.0949 41.1091L63.257 41.92C63.2559 41.9423 63.25 41.9622 63.25 41.9845C63.25 43.9228 64.8274 45.5001 66.7656 45.5001C68.7039 45.5001 70.2813 43.9228 70.2813 41.9845C70.2813 40.0462 68.7039 38.4688 66.7656 38.4688C65.6887 38.4688 64.736 38.9657 64.0902 39.7298L62.9149 39.2892L65.6945 36.5095C66.3754 35.8286 66.7656 34.8864 66.7656 33.9231C66.7656 31.9063 65.125 30.2657 63.1082 30.2657C62.1309 30.2657 61.2121 30.6454 60.5219 31.3368L56.4133 35.4454L53.7649 29.77L51.6414 30.7614L54.0731 35.9728L48.427 33.8563L47.6043 36.0513L53.5703 38.2884L53.0465 38.8122ZM50.3594 47.3587V45.9853L51.5313 44.8134L52.218 45.5001L50.3594 47.3587ZM62.0781 47.8438C62.0781 48.4907 61.552 49.0157 60.9063 49.0157C60.2606 49.0157 59.7344 48.4907 59.7344 47.8438C59.7344 47.197 60.2606 46.672 60.9063 46.672C61.552 46.672 62.0781 47.197 62.0781 47.8438ZM66.7656 40.8126C67.4113 40.8126 67.9375 41.3376 67.9375 41.9845C67.9375 42.6313 67.4113 43.1563 66.7656 43.1563C66.1199 43.1563 65.5938 42.6313 65.5938 41.9845C65.5938 41.3376 66.1199 40.8126 66.7656 40.8126ZM62.1789 32.9938C62.4274 32.7454 62.7567 32.6095 63.1082 32.6095C63.8324 32.6095 64.4219 33.1989 64.4219 33.9231C64.4219 34.2688 64.2813 34.6075 64.0375 34.8524L57.3906 41.4993L55.532 39.6407L62.1789 32.9938Z" fill="#AC3A99" fill-opacity="0.698039"/>
<path d="M79.6562 18.5469H76.1406V15.0312C76.1406 14.3832 75.6156 13.8594 74.9688 13.8594H14.0312C13.3844 13.8594 12.8594 14.3832 12.8594 15.0312V18.5469H9.34375C8.69688 18.5469 8.17188 19.0707 8.17188 19.7188V26.75C8.17188 27.398 8.69688 27.9219 9.34375 27.9219H10.5156V75.9688C10.5156 76.6168 11.0406 77.1406 11.6875 77.1406H77.3125C77.9594 77.1406 78.4844 76.6168 78.4844 75.9688V27.9219H79.6562C80.3031 27.9219 80.8281 27.398 80.8281 26.75V19.7188C80.8281 19.0707 80.3031 18.5469 79.6562 18.5469ZM15.2031 16.2031H73.7969V18.5469H15.2031V16.2031ZM49.1875 63.0781H56.2188V74.7969H49.1875V63.0781ZM58.5625 63.0781H65.5938V74.7969H58.5625V63.0781ZM65.5938 60.7344H58.5625V56.0469H65.5938V60.7344ZM56.2188 60.7344H49.1875V56.0469H56.2188V60.7344ZM46.8438 74.7969H38.6406V56.0469H46.8438V74.7969ZM67.9375 74.7969V56.0469H76.1406V74.7969H67.9375ZM76.1406 53.7031H37.4688C36.8219 53.7031 36.2969 54.227 36.2969 54.875V74.7969H12.8594V27.9219H76.1406V53.7031ZM78.4844 25.5781H10.5156V20.8906H78.4844V25.5781Z" fill="#AC3A99" fill-opacity="0.698039"/>
<path d="M16.375 49.0156H37.4688C38.1156 49.0156 38.6406 48.4918 38.6406 47.8438V31.4375C38.6406 30.7895 38.1156 30.2656 37.4688 30.2656H16.375C15.7281 30.2656 15.2031 30.7895 15.2031 31.4375V47.8438C15.2031 48.4918 15.7281 49.0156 16.375 49.0156ZM23.8914 46.6719L27.7504 42.8129L26.0934 41.1559L20.5773 46.6719H17.5469V38.9539L23.8914 32.6094H34.6398L28.4371 38.8121L30.0941 40.4691L36.2969 34.2664V46.6719H23.8914ZM20.5773 32.6094L17.5469 35.6398V32.6094H20.5773ZM16.375 70.1094H30.4375C31.0844 70.1094 31.6094 69.5855 31.6094 68.9375V54.875C31.6094 54.5633 31.4863 54.2656 31.266 54.0465C31.0457 53.8273 30.748 53.7031 30.4375 53.7031H16.375C15.7281 53.7031 15.2031 54.227 15.2031 54.875V68.9375C15.2031 69.5855 15.7281 70.1094 16.375 70.1094ZM17.5469 56.0469H29.2656V56.7336L23.7496 62.2496L25.4066 63.9066L29.2656 60.0477V67.7656H21.5488L23.0641 66.2504L21.407 64.5934L18.2336 67.7656H17.5469V56.0469Z" fill="#AC3A99" fill-opacity="0.698039"/>
</svg>
