<svg width="90" height="90" viewBox="0 0 90 90" fill="none" xmlns="http://www.w3.org/2000/svg">
<rect width="90" height="90" rx="15" fill="#AC3A99" fill-opacity="0.698039"/>
<path d="M51.8371 38.6498C51.4706 39.0163 51.4706 39.6088 51.8371 39.9754L52.5806 40.7188L51.5625 41.737L51.2878 41.4623C50.9212 41.0957 50.3287 41.0957 49.9621 41.4623L48.0871 43.3373C47.9109 43.5126 47.8125 43.7507 47.8125 44.0001V47.7501C47.8125 48.1288 48.0412 48.472 48.3909 48.6163C48.5072 48.6651 48.629 48.6876 48.75 48.6876C48.9937 48.6876 49.2337 48.592 49.4128 48.4129L53.1628 44.6629C53.5293 44.2963 53.5293 43.7038 53.1628 43.3373L52.8881 43.0626L53.9062 42.0445L54.6496 42.7879C54.8325 42.9707 55.0725 43.0626 55.3125 43.0626C55.4559 43.0626 55.5956 43.0185 55.7268 42.9529L56.1553 43.8716C55.6368 44.3826 55.3125 45.0913 55.3125 45.8751C55.3125 47.4257 56.5743 48.6876 58.125 48.6876C59.6756 48.6876 60.9375 47.4257 60.9375 45.8751C60.9375 44.3245 59.6756 43.0626 58.125 43.0626C58.034 43.0626 57.9487 43.0813 57.8596 43.0898L57.164 41.5991L58.2759 40.4873L60.0056 41.136C60.0047 41.1538 60 41.1698 60 41.1876C60 42.7382 61.2618 44.0001 62.8125 44.0001C64.3631 44.0001 65.625 42.7382 65.625 41.1876C65.625 39.637 64.3631 38.3751 62.8125 38.3751C61.9509 38.3751 61.1887 38.7726 60.6721 39.3838L59.7318 39.0313L61.9556 36.8076C62.5003 36.2629 62.8125 35.5091 62.8125 34.7385C62.8125 33.1251 61.5 31.8126 59.8865 31.8126C59.1047 31.8126 58.3697 32.1163 57.8175 32.6695L54.5306 35.9563L52.4118 31.416L50.7131 32.2091L52.6584 36.3782L48.1415 34.6851L47.4834 36.441L52.2562 38.2307L51.8371 38.6498ZM49.6875 45.487V44.3882L50.625 43.4507L51.1743 44.0001L49.6875 45.487ZM59.0625 45.8751C59.0625 46.3926 58.6415 46.8126 58.125 46.8126C57.6084 46.8126 57.1875 46.3926 57.1875 45.8751C57.1875 45.3576 57.6084 44.9376 58.125 44.9376C58.6415 44.9376 59.0625 45.3576 59.0625 45.8751ZM62.8125 40.2501C63.329 40.2501 63.75 40.6701 63.75 41.1876C63.75 41.7051 63.329 42.1251 62.8125 42.1251C62.2959 42.1251 61.875 41.7051 61.875 41.1876C61.875 40.6701 62.2959 40.2501 62.8125 40.2501ZM59.1431 33.9951C59.3418 33.7963 59.6053 33.6876 59.8865 33.6876C60.4659 33.6876 60.9375 34.1591 60.9375 34.7385C60.9375 35.0151 60.825 35.286 60.63 35.482L55.3125 40.7995L53.8256 39.3126L59.1431 33.9951Z" fill="white"/>
<path d="M73.125 22.4375H70.3125V19.625C70.3125 19.1066 69.8925 18.6875 69.375 18.6875H20.625C20.1075 18.6875 19.6875 19.1066 19.6875 19.625V22.4375H16.875C16.3575 22.4375 15.9375 22.8566 15.9375 23.375V29C15.9375 29.5184 16.3575 29.9375 16.875 29.9375H17.8125V68.375C17.8125 68.8934 18.2325 69.3125 18.75 69.3125H71.25C71.7675 69.3125 72.1875 68.8934 72.1875 68.375V29.9375H73.125C73.6425 29.9375 74.0625 29.5184 74.0625 29V23.375C74.0625 22.8566 73.6425 22.4375 73.125 22.4375ZM21.5625 20.5625H68.4375V22.4375H21.5625V20.5625ZM48.75 58.0625H54.375V67.4375H48.75V58.0625ZM56.25 58.0625H61.875V67.4375H56.25V58.0625ZM61.875 56.1875H56.25V52.4375H61.875V56.1875ZM54.375 56.1875H48.75V52.4375H54.375V56.1875ZM46.875 67.4375H40.3125V52.4375H46.875V67.4375ZM63.75 67.4375V52.4375H70.3125V67.4375H63.75ZM70.3125 50.5625H39.375C38.8575 50.5625 38.4375 50.9816 38.4375 51.5V67.4375H19.6875V29.9375H70.3125V50.5625ZM72.1875 28.0625H17.8125V24.3125H72.1875V28.0625Z" fill="white"/>
<path d="M22.5 46.8125H39.375C39.8925 46.8125 40.3125 46.3934 40.3125 45.875V32.75C40.3125 32.2316 39.8925 31.8125 39.375 31.8125H22.5C21.9825 31.8125 21.5625 32.2316 21.5625 32.75V45.875C21.5625 46.3934 21.9825 46.8125 22.5 46.8125ZM28.5131 44.9375L31.6003 41.8503L30.2747 40.5247L25.8619 44.9375H23.4375V38.7631L28.5131 33.6875H37.1119L32.1497 38.6497L33.4753 39.9753L38.4375 35.0131V44.9375H28.5131ZM25.8619 33.6875L23.4375 36.1119V33.6875H25.8619ZM22.5 63.6875H33.75C34.2675 63.6875 34.6875 63.2684 34.6875 62.75V51.5C34.6875 51.2506 34.5891 51.0125 34.4128 50.8372C34.2366 50.6619 33.9984 50.5625 33.75 50.5625H22.5C21.9825 50.5625 21.5625 50.9816 21.5625 51.5V62.75C21.5625 63.2684 21.9825 63.6875 22.5 63.6875ZM23.4375 52.4375H32.8125V52.9869L28.3997 57.3997L29.7253 58.7253L32.8125 55.6381V61.8125H26.6391L27.8513 60.6003L26.5256 59.2747L23.9869 61.8125H23.4375V52.4375Z" fill="white"/>
</svg>
