<svg width="90" height="90" viewBox="0 0 90 90" fill="none" xmlns="http://www.w3.org/2000/svg">
<rect width="90" height="90" rx="15" fill="white"/>
<path d="M64.3906 14.3478C64.3086 14.1622 64.2147 13.9822 64.1093 13.8088C63.7702 13.2732 63.3285 12.8101 62.8096 12.4461C62.2907 12.0821 61.7049 11.8243 61.0859 11.6877C60.4062 11.5413 59.7031 11.5413 59.0234 11.6877C58.5904 11.7768 58.1722 11.9267 57.7812 12.133C57.5161 11.7877 57.209 11.4767 56.8671 11.2072C56.2195 10.7162 55.4587 10.3962 54.6548 10.2767C53.8509 10.1572 53.0299 10.2421 52.2675 10.5235C51.505 10.8049 50.8257 11.2737 50.2922 11.8868C49.7587 12.4999 49.3882 13.2374 49.2148 14.0314C49.1502 14.3359 49.1149 14.6459 49.1093 14.9572C49.0871 15.91 49.3482 16.8481 49.8593 17.6525L54.1953 24.4611C54.2998 24.6283 54.4448 24.7664 54.6168 24.8627C54.7889 24.959 54.9825 25.0103 55.1796 25.0119C55.4042 25.0113 55.6238 24.9462 55.8125 24.8244L62.6328 20.5002C63.1607 20.1743 63.6123 19.7387 63.957 19.2228C64.1484 18.9584 64.3132 18.6758 64.4492 18.3791C64.7313 17.7428 64.8721 17.0529 64.862 16.357C64.8519 15.6611 64.691 14.9756 64.3906 14.3478ZM62.2929 17.4181C62.2242 17.5759 62.1377 17.7253 62.0351 17.8634C61.861 18.1235 61.6333 18.3433 61.3672 18.508L55.5078 22.2111L51.8281 16.3752C51.5578 15.9529 51.4228 15.4582 51.4414 14.9572C51.4292 14.7973 51.4292 14.6366 51.4414 14.4767C51.5927 13.8372 51.988 13.2821 52.5429 12.9298C52.9704 12.6616 53.469 12.5292 53.9732 12.5501C54.4774 12.5711 54.9634 12.7443 55.3671 13.047C55.6049 13.2274 55.8074 13.4498 55.9648 13.7033L56.375 14.3478C56.4573 14.4779 56.5644 14.5904 56.6902 14.6791C56.8161 14.7677 56.9581 14.8307 57.1083 14.8644C57.2585 14.8982 57.4138 14.902 57.5655 14.8757C57.7171 14.8494 57.8621 14.7934 57.9921 14.7111L58.6484 14.2892C58.9323 14.1418 59.2434 14.0541 59.5625 14.0314C59.9125 13.9436 60.2788 13.9436 60.6289 14.0314C60.9473 14.0942 61.2492 14.2225 61.5155 14.4081C61.7818 14.5936 62.0066 14.8325 62.1757 15.1095C62.2283 15.1862 62.2716 15.2688 62.3046 15.3556C62.4483 15.6808 62.5215 16.0327 62.5195 16.3881C62.5175 16.7436 62.4403 17.0946 62.2929 17.4181Z" fill="#AC3A99" fill-opacity="0.698039"/>
<path d="M62.2929 17.4181C62.2242 17.5759 62.1377 17.7253 62.0351 17.8634C61.861 18.1235 61.6333 18.3433 61.3672 18.508L55.5078 22.2111L51.8281 16.3751C51.5578 15.9529 51.4228 15.4582 51.4414 14.9572C51.4292 14.7972 51.4292 14.6366 51.4414 14.4767C51.5928 13.8371 51.988 13.282 52.5429 12.9298C52.9704 12.6616 53.469 12.5292 53.9732 12.5501C54.4774 12.5711 54.9634 12.7443 55.3672 13.047C55.6049 13.2273 55.8074 13.4498 55.9648 13.7033L56.375 14.3478C56.4573 14.4779 56.5644 14.5904 56.6902 14.6791C56.8161 14.7677 56.9581 14.8307 57.1083 14.8644C57.2585 14.8982 57.4138 14.902 57.5655 14.8757C57.7171 14.8494 57.8621 14.7934 57.9922 14.7111L58.6484 14.2892C58.9323 14.1418 59.2434 14.054 59.5625 14.0314C59.9125 13.9436 60.2788 13.9436 60.6289 14.0314C60.9473 14.0942 61.2492 14.2225 61.5155 14.408C61.7818 14.5936 62.0066 14.8325 62.1758 15.1095C62.2283 15.1861 62.2716 15.2688 62.3047 15.3556C62.4483 15.6808 62.5215 16.0326 62.5195 16.3881C62.5175 16.7436 62.4403 17.0946 62.2929 17.4181ZM37.2968 23.8517C36.8997 23.8508 36.5049 23.7916 36.125 23.6759L31.8945 22.4455C31.7318 22.3975 31.5815 22.3149 31.4539 22.2032C31.3262 22.0916 31.2244 21.9535 31.1553 21.7987C31.0862 21.6438 31.0516 21.4758 31.0538 21.3062C31.0559 21.1367 31.0949 20.9696 31.1679 20.8165L32.0234 19.0119C32.159 18.7296 32.2348 18.4224 32.2461 18.1095C32.2642 17.9381 32.2642 17.7653 32.2461 17.5939C32.1888 17.2354 32.0543 16.8936 31.852 16.5921C31.6497 16.2906 31.3843 16.0367 31.0742 15.8478C30.8572 15.7123 30.6904 15.5096 30.5994 15.2705C30.5085 15.0314 30.4982 14.769 30.5703 14.5236L30.7343 13.9259C30.9674 13.1287 31.4324 12.4189 32.0703 11.8869C32.2822 11.6928 32.5186 11.5274 32.7734 11.3947C33.3922 11.0564 34.0862 10.8795 34.7914 10.8804C35.4966 10.8813 36.1902 11.0599 36.8081 11.3998C37.426 11.7397 37.9483 12.2299 38.3266 12.825C38.7049 13.4202 38.9271 14.1011 38.9726 14.8048C39.0189 15.1235 39.0189 15.4471 38.9726 15.7658C39.278 15.8967 39.5655 16.0661 39.8281 16.2697C40.3086 16.6225 40.7082 17.074 41 17.5939C41.2686 18.079 41.4389 18.6122 41.5012 19.1632C41.5636 19.7142 41.5167 20.272 41.3633 20.8048C41.1738 21.4768 40.8177 22.0901 40.3281 22.5879C39.8385 23.0857 39.2312 23.4519 38.5625 23.6525C38.1538 23.7855 37.7266 23.8528 37.2968 23.8517ZM33.8984 20.5822L36.8047 21.4259C37.1474 21.537 37.5166 21.537 37.8593 21.4259C38.131 21.3501 38.3816 21.2128 38.5918 21.0247C38.8019 20.8365 38.966 20.6026 39.0713 20.341C39.1767 20.0793 39.2204 19.797 39.1993 19.5157C39.1781 19.2344 39.0925 18.9618 38.9492 18.7189C38.8258 18.4857 38.6492 18.285 38.4336 18.133C38.2623 17.9907 38.0625 17.8868 37.8476 17.8283L37.2265 17.6525C36.931 17.5634 36.6825 17.3612 36.5351 17.09C36.3833 16.8188 36.3453 16.4985 36.4297 16.1994L36.6172 15.59C36.6458 15.38 36.6458 15.1671 36.6172 14.9572C36.5984 14.6438 36.5007 14.3402 36.3332 14.0746C36.1658 13.809 35.9339 13.5901 35.6592 13.4381C35.3844 13.2861 35.0757 13.2061 34.7618 13.2053C34.4478 13.2045 34.1387 13.2831 33.8633 13.4337C33.7576 13.4922 33.6592 13.563 33.5703 13.6447C33.3247 13.8426 33.1349 14.1011 33.0195 14.3947C33.8274 15.142 34.3565 16.1423 34.5195 17.2306C34.5601 17.5575 34.5601 17.8881 34.5195 18.215C34.5043 18.8329 34.3564 19.4404 34.0859 19.9962L33.8984 20.5822ZM70.1093 78.4845C69.6418 78.4939 69.1771 78.4098 68.7424 78.2374C68.3077 78.0649 67.9118 77.8074 67.5778 77.48C67.2439 77.1526 66.9786 76.7619 66.7976 76.3307C66.6165 75.8995 66.5233 75.4365 66.5234 74.9689L65.4218 35.1251C65.4163 34.9678 65.4425 34.811 65.4988 34.664C65.5552 34.517 65.6406 34.3829 65.75 34.2697C65.8628 34.1639 65.9954 34.0814 66.1402 34.0271C66.285 33.9728 66.4392 33.9477 66.5937 33.9533H73.625C73.782 33.9523 73.9376 33.983 74.0825 34.0434C74.2275 34.1038 74.3588 34.1927 74.4687 34.3048C74.6809 34.525 74.7987 34.8194 74.7968 35.1251L73.6953 74.9689C73.6954 75.4365 73.6022 75.8995 73.4211 76.3307C73.2401 76.7619 72.9748 77.1526 72.6408 77.48C72.3069 77.8074 71.911 78.0649 71.4763 78.2374C71.0416 78.4098 70.5769 78.4939 70.1093 78.4845ZM67.7656 36.297L68.832 74.9689C68.832 75.2983 68.9629 75.6143 69.1958 75.8473C69.4288 76.0802 69.7447 76.2111 70.0742 76.2111C70.4036 76.2111 70.7196 76.0802 70.9525 75.8473C71.1855 75.6143 71.3164 75.2983 71.3164 74.9689L72.4531 36.297H67.7656Z" fill="#AC3A99" fill-opacity="0.698039"/>
<path d="M73.625 36.2969H66.5938C66.3904 36.2968 66.1905 36.2439 66.0138 36.1432C65.8371 36.0425 65.6897 35.8976 65.5859 35.7227L61.7539 29.3359C61.3265 28.6246 61.0957 27.8125 61.0849 26.9827C61.0741 26.1529 61.2838 25.3351 61.6926 24.6129C62.1014 23.8907 62.6946 23.29 63.4115 22.8721C64.1285 22.4542 64.9436 22.2341 65.7734 22.2344H74.4453C75.2752 22.2341 76.0902 22.4542 76.8072 22.8721C77.5242 23.29 78.1174 23.8907 78.5261 24.6129C78.9349 25.3351 79.1446 26.1529 79.1339 26.9827C79.1231 27.8125 78.8922 28.6246 78.4648 29.3359L74.6328 35.7227C74.5291 35.8976 74.3816 36.0425 74.2049 36.1432C74.0282 36.2439 73.8284 36.2968 73.625 36.2969ZM67.2617 33.9531H72.957L76.4727 28.0938C76.6778 27.7385 76.7861 27.3356 76.7867 26.9254C76.7873 26.5152 76.6802 26.112 76.4762 25.7561C76.2722 25.4002 75.9783 25.1041 75.624 24.8974C75.2696 24.6907 74.8672 24.5806 74.457 24.5781H65.7734C65.3632 24.5806 64.9608 24.6907 64.6065 24.8974C64.2522 25.1041 63.9583 25.4002 63.7543 25.7561C63.5502 26.112 63.4432 26.5152 63.4438 26.9254C63.4444 27.3356 63.5527 27.7385 63.7578 28.0938L67.2617 33.9531ZM29.0938 78.4844H12.6875C12.3767 78.4844 12.0786 78.3609 11.8589 78.1411C11.6391 77.9214 11.5156 77.6233 11.5156 77.3125V63.25C11.5156 62.9392 11.6391 62.6411 11.8589 62.4214C12.0786 62.2016 12.3767 62.0781 12.6875 62.0781H29.0938C29.4046 62.0781 29.7026 62.2016 29.9224 62.4214C30.1422 62.6411 30.2656 62.9392 30.2656 63.25V77.3125C30.2656 77.6233 30.1422 77.9214 29.9224 78.1411C29.7026 78.3609 29.4046 78.4844 29.0938 78.4844ZM13.8594 76.1406H27.9219V64.4219H13.8594V76.1406ZM24.4062 48.0156H17.375C17.0642 48.0156 16.7661 47.8922 16.5464 47.6724C16.3266 47.4526 16.2031 47.1546 16.2031 46.8438V25.75C16.2037 25.538 16.2618 25.3301 16.3711 25.1485C16.4805 24.9669 16.6371 24.8184 16.8242 24.7188C17.0075 24.6247 17.2123 24.5805 17.418 24.5908C17.6238 24.6011 17.8231 24.6654 17.9961 24.7773L25.0273 29.4648C25.1929 29.5683 25.33 29.7114 25.4262 29.8813C25.5224 30.0511 25.5746 30.2423 25.5781 30.4375V46.8438C25.5781 47.1546 25.4547 47.4526 25.2349 47.6724C25.0151 47.8922 24.7171 48.0156 24.4062 48.0156ZM18.5469 45.6719H23.2344V31.0703L18.5469 27.9414V45.6719Z" fill="#AC3A99" fill-opacity="0.698039"/>
<path d="M26.75 64.4219H15.0312C14.7204 64.4219 14.4224 64.2984 14.2026 64.0786C13.9828 63.8589 13.8594 63.5608 13.8594 63.25V46.8437C13.8594 46.5329 13.9828 46.2349 14.2026 46.0151C14.4224 45.7953 14.7204 45.6719 15.0312 45.6719H26.75C27.0608 45.6719 27.3589 45.7953 27.5786 46.0151C27.7984 46.2349 27.9219 46.5329 27.9219 46.8437V63.25C27.9219 63.5608 27.7984 63.8589 27.5786 64.0786C27.3589 64.2984 27.0608 64.4219 26.75 64.4219ZM16.2031 62.0781H25.5781V48.0156H16.2031V62.0781ZM45.5 55.0469C43.2246 55.0507 40.9776 54.542 38.9258 53.5586C36.7251 52.5086 34.8085 50.9457 33.3372 49.0013C31.8659 47.0568 30.8828 44.7876 30.4706 42.3844C30.0584 39.9811 30.2291 37.514 30.9683 35.1904C31.7075 32.8668 32.9937 30.7546 34.7187 29.0312C36.4908 27.2621 38.6717 25.957 41.0683 25.2316C43.4649 24.5061 46.0034 24.3825 48.4591 24.8718C50.9149 25.3611 53.2121 26.4482 55.1477 28.0369C57.0832 29.6256 58.5972 31.6669 59.5559 33.9801C60.5145 36.2934 60.8882 38.8073 60.6438 41.2993C60.3994 43.7914 59.5445 46.1848 58.1547 48.2678C56.765 50.3507 54.8832 52.059 52.676 53.2414C50.4687 54.4238 48.004 55.0439 45.5 55.0469ZM45.5 26.9219C42.0812 26.9219 38.8024 28.28 36.385 30.6974C33.9675 33.1149 32.6094 36.3937 32.6094 39.8125C32.6077 41.9919 33.1586 44.1362 34.2107 46.0449C35.2627 47.9535 36.7815 49.5643 38.6251 50.7267C40.4687 51.889 42.5769 52.565 44.7526 52.6913C46.9284 52.8177 49.1007 52.3903 51.0664 51.4492C52.3696 50.8096 53.5576 49.9582 54.582 48.9297C56.3836 47.129 57.6113 44.8349 58.1101 42.3371C58.609 39.8393 58.3567 37.2496 57.385 34.8951C56.4134 32.5405 54.7659 30.5266 52.6507 29.1076C50.5354 27.6885 48.0472 26.928 45.5 26.9219Z" fill="#AC3A99" fill-opacity="0.698039"/>
<path d="M45.5 78.4845C44.2568 78.4845 43.0645 77.9906 42.1854 77.1116C41.3063 76.2325 40.8125 75.0402 40.8125 73.797V72.2736C40.8159 65.6999 39.969 59.1534 38.2929 52.797C38.2377 52.5811 38.2452 52.3539 38.3146 52.1421C38.3839 51.9303 38.5122 51.7426 38.6845 51.6011C38.8567 51.4597 39.0657 51.3703 39.2869 51.3434C39.5082 51.3165 39.7325 51.3532 39.9336 51.4493C41.6743 52.2708 43.5752 52.6968 45.5 52.6968C47.4248 52.6968 49.3257 52.2708 51.0664 51.4493C51.2675 51.3532 51.4918 51.3165 51.713 51.3434C51.9343 51.3703 52.1433 51.4597 52.3155 51.6011C52.4877 51.7426 52.616 51.9303 52.6854 52.1421C52.7547 52.3539 52.7622 52.5811 52.707 52.797C52.1797 54.8361 51.7226 56.922 51.3476 58.9845C50.5753 63.372 50.1871 67.8186 50.1875 72.2736V73.797C50.1875 75.0402 49.6936 76.2325 48.8145 77.1116C47.9355 77.9906 46.7432 78.4845 45.5 78.4845ZM41.1054 54.4025C42.4676 60.2619 43.1556 66.2578 43.1562 72.2736V73.797C43.1562 74.4186 43.4032 75.0147 43.8427 75.4543C44.2822 75.8938 44.8784 76.1407 45.5 76.1407C46.1216 76.1407 46.7177 75.8938 47.1573 75.4543C47.5968 75.0147 47.8437 74.4186 47.8437 73.797V72.2736C47.8292 67.6776 48.2214 63.0894 49.0156 58.5626C49.2617 57.1681 49.5429 55.7735 49.8594 54.3907C47.0042 55.2428 43.9629 55.2469 41.1054 54.4025ZM45.5 50.3595C43.414 50.3595 41.3749 49.7409 39.6404 48.582C37.906 47.4231 36.5542 45.7759 35.7559 43.8487C34.9577 41.9215 34.7488 39.8009 35.1558 37.755C35.5627 35.7091 36.5672 33.8299 38.0422 32.3548C39.5172 30.8798 41.3965 29.8753 43.4424 29.4684C45.4883 29.0614 47.6089 29.2703 49.5361 30.0686C51.4633 30.8668 53.1105 32.2187 54.2694 33.9531C55.4283 35.6875 56.0468 37.7266 56.0468 39.8126C56.0468 42.6098 54.9357 45.2925 52.9577 47.2704C50.9798 49.2483 48.2972 50.3595 45.5 50.3595ZM45.5 31.6095C43.8775 31.6095 42.2916 32.0906 40.9426 32.992C39.5936 33.8933 38.5421 35.1745 37.9213 36.6734C37.3004 38.1723 37.1379 39.8217 37.4545 41.413C37.771 43.0042 38.5523 44.4659 39.6995 45.6131C40.8467 46.7603 42.3084 47.5416 43.8996 47.8581C45.4909 48.1746 47.1402 48.0122 48.6392 47.3913C50.1381 46.7704 51.4193 45.719 52.3206 44.37C53.222 43.021 53.7031 41.435 53.7031 39.8126C53.7031 37.637 52.8388 35.5505 51.3005 34.0121C49.7621 32.4737 47.6756 31.6095 45.5 31.6095ZM29.6328 27.9884C29.4632 27.9872 29.2957 27.9513 29.1406 27.8829L21.8398 24.3673C20.9781 23.9659 20.2588 23.312 19.7773 22.4923C19.6102 22.2268 19.4727 21.9439 19.3672 21.6485C19.1517 21.0512 19.0584 20.4167 19.0926 19.7827C19.1268 19.1486 19.2879 18.5278 19.5664 17.9571C19.9914 17.0556 20.6843 16.3073 21.5506 15.8144C22.4168 15.3215 23.4141 15.1081 24.4062 15.2032C24.8088 15.2643 25.2024 15.3745 25.5781 15.5314C25.8037 15.1522 26.0797 14.8052 26.3984 14.5001C26.8928 14.0066 27.4943 13.6337 28.1562 13.4103C28.748 13.1912 29.3779 13.0938 30.0081 13.124C30.6384 13.1542 31.2561 13.3114 31.8242 13.586C32.0087 13.6671 32.1853 13.7651 32.3515 13.879C32.937 14.252 33.4356 14.7464 33.8137 15.3286C34.1917 15.9108 34.4404 16.5674 34.5429 17.254C34.5835 17.5809 34.5835 17.9115 34.5429 18.2384C34.5277 18.8564 34.3799 19.4638 34.1093 20.0196L30.5937 27.3204C30.5061 27.5062 30.3713 27.6657 30.2026 27.7829C30.034 27.9002 29.8374 27.971 29.6328 27.9884Z" fill="#AC3A99" fill-opacity="0.698039"/>
<path d="M21.5586 20.8749C21.6123 21.0269 21.683 21.1724 21.7695 21.3085C22.022 21.7401 22.3973 22.0869 22.8476 22.3046L29.0937 25.2577L32.0586 19.0116C32.1941 18.7293 32.2699 18.4221 32.2812 18.1092C32.2994 17.9378 32.2994 17.765 32.2812 17.5936C32.2239 17.2351 32.0895 16.8933 31.8871 16.5918C31.6848 16.2903 31.4194 16.0364 31.1093 15.8475C31.0333 15.7909 30.9507 15.7436 30.8632 15.7069C30.5704 15.5678 30.253 15.4879 29.9292 15.4718C29.6055 15.4557 29.2817 15.5037 28.9765 15.6131C28.6339 15.7233 28.3239 15.9165 28.0742 16.1756C27.8598 16.3757 27.6849 16.6142 27.5586 16.8788L27.2187 17.5467C27.0868 17.8243 26.8511 18.0389 26.5625 18.1444C26.4195 18.204 26.2662 18.2347 26.1113 18.2347C25.9564 18.2347 25.8031 18.204 25.6601 18.1444L24.9687 17.8163C24.7014 17.6946 24.4167 17.6155 24.125 17.5819C23.6208 17.5408 23.116 17.653 22.6768 17.904C22.2376 18.155 21.8845 18.5329 21.664 18.9881C21.3866 19.5799 21.3488 20.2559 21.5586 20.8749Z" fill="#AC3A99" fill-opacity="0.698039"/>
</svg>
