<svg width="90" height="90" viewBox="0 0 90 90" fill="none" xmlns="http://www.w3.org/2000/svg">
<rect width="90" height="90" rx="15" fill="#AC3A99" fill-opacity="0.698039"/>
<path d="M64.3906 15.3478C64.3086 15.1622 64.2147 14.9822 64.1093 14.8088C63.7702 14.2732 63.3285 13.8101 62.8096 13.4461C62.2907 13.0821 61.7049 12.8243 61.0859 12.6877C60.4062 12.5413 59.7031 12.5413 59.0234 12.6877C58.5904 12.7768 58.1722 12.9267 57.7812 13.133C57.5161 12.7877 57.209 12.4767 56.8671 12.2072C56.2195 11.7162 55.4587 11.3962 54.6548 11.2767C53.8509 11.1572 53.0299 11.2421 52.2675 11.5235C51.505 11.8049 50.8257 12.2737 50.2922 12.8868C49.7587 13.4999 49.3882 14.2374 49.2148 15.0314C49.1502 15.3359 49.1149 15.6459 49.1093 15.9572C49.0871 16.91 49.3482 17.8481 49.8593 18.6525L54.1953 25.4611C54.2998 25.6283 54.4448 25.7664 54.6168 25.8627C54.7889 25.959 54.9825 26.0103 55.1796 26.0119C55.4042 26.0113 55.6238 25.9462 55.8125 25.8244L62.6328 21.5002C63.1607 21.1743 63.6123 20.7387 63.957 20.2228C64.1484 19.9584 64.3132 19.6758 64.4492 19.3791C64.7313 18.7428 64.8721 18.0529 64.862 17.357C64.8519 16.6611 64.691 15.9756 64.3906 15.3478ZM62.2929 18.4181C62.2242 18.5759 62.1377 18.7253 62.0351 18.8634C61.861 19.1235 61.6333 19.3433 61.3672 19.508L55.5078 23.2111L51.8281 17.3752C51.5578 16.9529 51.4228 16.4582 51.4414 15.9572C51.4292 15.7973 51.4292 15.6366 51.4414 15.4767C51.5927 14.8372 51.988 14.2821 52.5429 13.9298C52.9704 13.6616 53.469 13.5292 53.9732 13.5501C54.4774 13.5711 54.9634 13.7443 55.3671 14.047C55.6049 14.2274 55.8074 14.4498 55.9648 14.7033L56.375 15.3478C56.4573 15.4779 56.5644 15.5904 56.6902 15.6791C56.8161 15.7677 56.9581 15.8307 57.1083 15.8644C57.2585 15.8982 57.4138 15.902 57.5655 15.8757C57.7171 15.8494 57.8621 15.7934 57.9921 15.7111L58.6484 15.2892C58.9323 15.1418 59.2434 15.0541 59.5625 15.0314C59.9125 14.9436 60.2788 14.9436 60.6289 15.0314C60.9473 15.0942 61.2492 15.2225 61.5155 15.4081C61.7818 15.5936 62.0066 15.8325 62.1757 16.1095C62.2283 16.1862 62.2716 16.2688 62.3046 16.3556C62.4483 16.6808 62.5215 17.0327 62.5195 17.3881C62.5175 17.7436 62.4403 18.0946 62.2929 18.4181Z" fill="white"/>
<path d="M62.2929 18.4181C62.2242 18.5759 62.1377 18.7253 62.0351 18.8634C61.861 19.1235 61.6333 19.3433 61.3672 19.508L55.5078 23.2111L51.8281 17.3751C51.5578 16.9529 51.4228 16.4582 51.4414 15.9572C51.4292 15.7972 51.4292 15.6366 51.4414 15.4767C51.5928 14.8371 51.988 14.282 52.5429 13.9298C52.9704 13.6616 53.469 13.5292 53.9732 13.5501C54.4774 13.5711 54.9634 13.7443 55.3672 14.047C55.6049 14.2273 55.8074 14.4498 55.9648 14.7033L56.375 15.3478C56.4573 15.4779 56.5644 15.5904 56.6902 15.6791C56.8161 15.7677 56.9581 15.8307 57.1083 15.8644C57.2585 15.8982 57.4138 15.902 57.5655 15.8757C57.7171 15.8494 57.8621 15.7934 57.9922 15.7111L58.6484 15.2892C58.9323 15.1418 59.2434 15.054 59.5625 15.0314C59.9125 14.9436 60.2788 14.9436 60.6289 15.0314C60.9473 15.0942 61.2492 15.2225 61.5155 15.408C61.7818 15.5936 62.0066 15.8325 62.1758 16.1095C62.2283 16.1861 62.2716 16.2688 62.3047 16.3556C62.4483 16.6808 62.5215 17.0326 62.5195 17.3881C62.5175 17.7436 62.4403 18.0946 62.2929 18.4181ZM37.2968 24.8517C36.8997 24.8508 36.5049 24.7916 36.125 24.6759L31.8945 23.4455C31.7318 23.3976 31.5815 23.3149 31.4539 23.2032C31.3262 23.0916 31.2244 22.9535 31.1553 22.7987C31.0862 22.6438 31.0516 22.4758 31.0538 22.3062C31.0559 22.1367 31.0949 21.9696 31.1679 21.8165L32.0234 20.0119C32.159 19.7296 32.2348 19.4224 32.2461 19.1095C32.2642 18.9381 32.2642 18.7653 32.2461 18.5939C32.1888 18.2354 32.0543 17.8936 31.852 17.5921C31.6497 17.2906 31.3843 17.0367 31.0742 16.8478C30.8572 16.7123 30.6904 16.5096 30.5994 16.2705C30.5085 16.0314 30.4982 15.769 30.5703 15.5236L30.7343 14.9259C30.9674 14.1287 31.4324 13.4189 32.0703 12.8869C32.2822 12.6928 32.5186 12.5274 32.7734 12.3947C33.3922 12.0564 34.0862 11.8795 34.7914 11.8804C35.4966 11.8813 36.1902 12.0599 36.8081 12.3998C37.426 12.7397 37.9483 13.2299 38.3266 13.825C38.7049 14.4202 38.9271 15.1011 38.9726 15.8048C39.0189 16.1235 39.0189 16.4471 38.9726 16.7658C39.278 16.8967 39.5655 17.0661 39.8281 17.2697C40.3086 17.6225 40.7082 18.074 41 18.5939C41.2686 19.079 41.4389 19.6122 41.5012 20.1632C41.5636 20.7142 41.5167 21.272 41.3633 21.8048C41.1738 22.4768 40.8177 23.0901 40.3281 23.5879C39.8385 24.0857 39.2312 24.4519 38.5625 24.6525C38.1538 24.7855 37.7266 24.8528 37.2968 24.8517ZM33.8984 21.5822L36.8047 22.4259C37.1474 22.537 37.5166 22.537 37.8593 22.4259C38.131 22.3501 38.3816 22.2128 38.5918 22.0247C38.8019 21.8365 38.966 21.6026 39.0713 21.341C39.1767 21.0793 39.2204 20.797 39.1993 20.5157C39.1781 20.2344 39.0925 19.9618 38.9492 19.7189C38.8258 19.4857 38.6492 19.285 38.4336 19.133C38.2623 18.9907 38.0625 18.8868 37.8476 18.8283L37.2265 18.6525C36.931 18.5634 36.6825 18.3612 36.5351 18.09C36.3833 17.8188 36.3453 17.4985 36.4297 17.1994L36.6172 16.59C36.6458 16.38 36.6458 16.1671 36.6172 15.9572C36.5984 15.6438 36.5007 15.3402 36.3332 15.0746C36.1658 14.809 35.9339 14.5901 35.6592 14.4381C35.3844 14.2861 35.0757 14.2061 34.7618 14.2053C34.4478 14.2045 34.1387 14.2831 33.8633 14.4337C33.7576 14.4922 33.6592 14.563 33.5703 14.6447C33.3247 14.8426 33.1349 15.1011 33.0195 15.3947C33.8274 16.142 34.3565 17.1423 34.5195 18.2306C34.5601 18.5575 34.5601 18.8881 34.5195 19.215C34.5043 19.8329 34.3564 20.4404 34.0859 20.9962L33.8984 21.5822ZM70.1093 79.4845C69.6418 79.4939 69.1771 79.4098 68.7424 79.2374C68.3077 79.0649 67.9118 78.8074 67.5778 78.48C67.2439 78.1526 66.9786 77.7619 66.7976 77.3307C66.6165 76.8995 66.5233 76.4366 66.5234 75.9689L65.4218 36.1251C65.4163 35.9678 65.4425 35.811 65.4988 35.664C65.5552 35.517 65.6406 35.3829 65.75 35.2697C65.8628 35.1639 65.9954 35.0814 66.1402 35.0271C66.285 34.9728 66.4392 34.9477 66.5937 34.9533H73.625C73.782 34.9524 73.9376 34.983 74.0825 35.0434C74.2275 35.1038 74.3588 35.1927 74.4687 35.3048C74.6809 35.525 74.7987 35.8194 74.7968 36.1251L73.6953 75.9689C73.6954 76.4366 73.6022 76.8995 73.4211 77.3307C73.2401 77.7619 72.9748 78.1526 72.6408 78.48C72.3069 78.8074 71.911 79.0649 71.4763 79.2374C71.0416 79.4098 70.5769 79.4939 70.1093 79.4845ZM67.7656 37.297L68.832 75.9689C68.832 76.2983 68.9629 76.6143 69.1958 76.8473C69.4288 77.0802 69.7447 77.2111 70.0742 77.2111C70.4036 77.2111 70.7196 77.0802 70.9525 76.8473C71.1855 76.6143 71.3164 76.2983 71.3164 75.9689L72.4531 37.297H67.7656Z" fill="white"/>
<path d="M73.625 37.2969H66.5938C66.3904 37.2968 66.1905 37.2439 66.0138 37.1432C65.8371 37.0425 65.6897 36.8976 65.5859 36.7227L61.7539 30.3359C61.3265 29.6246 61.0957 28.8125 61.0849 27.9827C61.0741 27.1529 61.2838 26.3351 61.6926 25.6129C62.1014 24.8907 62.6946 24.29 63.4115 23.8721C64.1285 23.4542 64.9436 23.2341 65.7734 23.2344H74.4453C75.2752 23.2341 76.0902 23.4542 76.8072 23.8721C77.5242 24.29 78.1174 24.8907 78.5261 25.6129C78.9349 26.3351 79.1446 27.1529 79.1339 27.9827C79.1231 28.8125 78.8922 29.6246 78.4648 30.3359L74.6328 36.7227C74.5291 36.8976 74.3816 37.0425 74.2049 37.1432C74.0282 37.2439 73.8284 37.2968 73.625 37.2969ZM67.2617 34.9531H72.957L76.4727 29.0938C76.6778 28.7385 76.7861 28.3356 76.7867 27.9254C76.7873 27.5152 76.6802 27.112 76.4762 26.7561C76.2722 26.4002 75.9783 26.1041 75.624 25.8974C75.2696 25.6907 74.8672 25.5806 74.457 25.5781H65.7734C65.3632 25.5806 64.9608 25.6907 64.6065 25.8974C64.2522 26.1041 63.9583 26.4002 63.7543 26.7561C63.5502 27.112 63.4432 27.5152 63.4438 27.9254C63.4444 28.3356 63.5527 28.7385 63.7578 29.0938L67.2617 34.9531ZM29.0938 79.4844H12.6875C12.3767 79.4844 12.0786 79.3609 11.8589 79.1411C11.6391 78.9214 11.5156 78.6233 11.5156 78.3125V64.25C11.5156 63.9392 11.6391 63.6411 11.8589 63.4214C12.0786 63.2016 12.3767 63.0781 12.6875 63.0781H29.0938C29.4046 63.0781 29.7026 63.2016 29.9224 63.4214C30.1422 63.6411 30.2656 63.9392 30.2656 64.25V78.3125C30.2656 78.6233 30.1422 78.9214 29.9224 79.1411C29.7026 79.3609 29.4046 79.4844 29.0938 79.4844ZM13.8594 77.1406H27.9219V65.4219H13.8594V77.1406ZM24.4062 49.0156H17.375C17.0642 49.0156 16.7661 48.8922 16.5464 48.6724C16.3266 48.4526 16.2031 48.1546 16.2031 47.8438V26.75C16.2037 26.538 16.2618 26.3301 16.3711 26.1485C16.4805 25.9669 16.6371 25.8184 16.8242 25.7188C17.0075 25.6247 17.2123 25.5805 17.418 25.5908C17.6238 25.6011 17.8231 25.6654 17.9961 25.7773L25.0273 30.4648C25.1929 30.5683 25.33 30.7114 25.4262 30.8813C25.5224 31.0511 25.5746 31.2423 25.5781 31.4375V47.8438C25.5781 48.1546 25.4547 48.4526 25.2349 48.6724C25.0151 48.8922 24.7171 49.0156 24.4062 49.0156ZM18.5469 46.6719H23.2344V32.0703L18.5469 28.9414V46.6719Z" fill="white"/>
<path d="M26.75 65.4219H15.0312C14.7204 65.4219 14.4224 65.2984 14.2026 65.0786C13.9828 64.8589 13.8594 64.5608 13.8594 64.25V47.8437C13.8594 47.5329 13.9828 47.2349 14.2026 47.0151C14.4224 46.7953 14.7204 46.6719 15.0312 46.6719H26.75C27.0608 46.6719 27.3589 46.7953 27.5786 47.0151C27.7984 47.2349 27.9219 47.5329 27.9219 47.8437V64.25C27.9219 64.5608 27.7984 64.8589 27.5786 65.0786C27.3589 65.2984 27.0608 65.4219 26.75 65.4219ZM16.2031 63.0781H25.5781V49.0156H16.2031V63.0781ZM45.5 56.0469C43.2246 56.0507 40.9776 55.542 38.9258 54.5586C36.7251 53.5086 34.8085 51.9457 33.3372 50.0013C31.8659 48.0568 30.8828 45.7876 30.4706 43.3844C30.0584 40.9811 30.2291 38.514 30.9683 36.1904C31.7075 33.8668 32.9937 31.7546 34.7187 30.0312C36.4908 28.2621 38.6717 26.957 41.0683 26.2316C43.4649 25.5061 46.0034 25.3825 48.4591 25.8718C50.9149 26.3611 53.2121 27.4482 55.1477 29.0369C57.0832 30.6256 58.5972 32.6669 59.5559 34.9801C60.5145 37.2934 60.8882 39.8073 60.6438 42.2993C60.3994 44.7914 59.5445 47.1848 58.1547 49.2678C56.765 51.3507 54.8832 53.059 52.676 54.2414C50.4687 55.4238 48.004 56.0439 45.5 56.0469ZM45.5 27.9219C42.0812 27.9219 38.8024 29.28 36.385 31.6974C33.9675 34.1149 32.6094 37.3937 32.6094 40.8125C32.6077 42.9919 33.1586 45.1362 34.2107 47.0449C35.2627 48.9535 36.7815 50.5643 38.6251 51.7267C40.4687 52.889 42.5769 53.565 44.7526 53.6913C46.9284 53.8177 49.1007 53.3903 51.0664 52.4492C52.3696 51.8096 53.5576 50.9582 54.582 49.9297C56.3836 48.129 57.6113 45.8349 58.1101 43.3371C58.609 40.8393 58.3567 38.2496 57.385 35.8951C56.4134 33.5405 54.7659 31.5266 52.6507 30.1076C50.5354 28.6885 48.0472 27.928 45.5 27.9219Z" fill="white"/>
<path d="M45.5 79.4845C44.2568 79.4845 43.0645 78.9906 42.1854 78.1116C41.3063 77.2325 40.8125 76.0402 40.8125 74.797V73.2736C40.8159 66.6999 39.969 60.1534 38.2929 53.797C38.2377 53.5811 38.2452 53.3539 38.3146 53.1421C38.3839 52.9303 38.5122 52.7426 38.6845 52.6011C38.8567 52.4597 39.0657 52.3703 39.2869 52.3434C39.5082 52.3165 39.7325 52.3532 39.9336 52.4493C41.6743 53.2708 43.5752 53.6968 45.5 53.6968C47.4248 53.6968 49.3257 53.2708 51.0664 52.4493C51.2675 52.3532 51.4918 52.3165 51.713 52.3434C51.9343 52.3703 52.1433 52.4597 52.3155 52.6011C52.4877 52.7426 52.616 52.9303 52.6854 53.1421C52.7547 53.3539 52.7622 53.5811 52.707 53.797C52.1797 55.8361 51.7226 57.922 51.3476 59.9845C50.5753 64.372 50.1871 68.8186 50.1875 73.2736V74.797C50.1875 76.0402 49.6936 77.2325 48.8145 78.1116C47.9355 78.9906 46.7432 79.4845 45.5 79.4845ZM41.1054 55.4025C42.4676 61.2619 43.1556 67.2578 43.1562 73.2736V74.797C43.1562 75.4186 43.4032 76.0147 43.8427 76.4543C44.2822 76.8938 44.8784 77.1407 45.5 77.1407C46.1216 77.1407 46.7177 76.8938 47.1573 76.4543C47.5968 76.0147 47.8437 75.4186 47.8437 74.797V73.2736C47.8292 68.6776 48.2214 64.0894 49.0156 59.5626C49.2617 58.1681 49.5429 56.7735 49.8594 55.3907C47.0042 56.2428 43.9629 56.2469 41.1054 55.4025ZM45.5 51.3595C43.414 51.3595 41.3749 50.7409 39.6404 49.582C37.906 48.4231 36.5542 46.7759 35.7559 44.8487C34.9577 42.9215 34.7488 40.8009 35.1558 38.755C35.5627 36.7091 36.5672 34.8299 38.0422 33.3548C39.5172 31.8798 41.3965 30.8753 43.4424 30.4684C45.4883 30.0614 47.6089 30.2703 49.5361 31.0686C51.4633 31.8668 53.1105 33.2187 54.2694 34.9531C55.4283 36.6875 56.0468 38.7266 56.0468 40.8126C56.0468 43.6098 54.9357 46.2925 52.9577 48.2704C50.9798 50.2483 48.2972 51.3595 45.5 51.3595ZM45.5 32.6095C43.8775 32.6095 42.2916 33.0906 40.9426 33.992C39.5936 34.8933 38.5421 36.1745 37.9213 37.6734C37.3004 39.1723 37.1379 40.8217 37.4545 42.413C37.771 44.0042 38.5523 45.4659 39.6995 46.6131C40.8467 47.7603 42.3084 48.5416 43.8996 48.8581C45.4909 49.1746 47.1402 49.0122 48.6392 48.3913C50.1381 47.7704 51.4193 46.719 52.3206 45.37C53.222 44.021 53.7031 42.435 53.7031 40.8126C53.7031 38.637 52.8388 36.5505 51.3005 35.0121C49.7621 33.4737 47.6756 32.6095 45.5 32.6095ZM29.6328 28.9884C29.4632 28.9872 29.2957 28.9513 29.1406 28.8829L21.8398 25.3673C20.9781 24.9659 20.2588 24.312 19.7773 23.4923C19.6102 23.2268 19.4727 22.9439 19.3672 22.6485C19.1517 22.0512 19.0584 21.4167 19.0926 20.7827C19.1268 20.1486 19.2879 19.5278 19.5664 18.9571C19.9914 18.0556 20.6843 17.3073 21.5506 16.8144C22.4168 16.3215 23.4141 16.1081 24.4062 16.2032C24.8088 16.2643 25.2024 16.3745 25.5781 16.5314C25.8037 16.1522 26.0797 15.8052 26.3984 15.5001C26.8928 15.0066 27.4943 14.6337 28.1562 14.4103C28.748 14.1912 29.3779 14.0938 30.0081 14.124C30.6384 14.1542 31.2561 14.3114 31.8242 14.586C32.0087 14.6671 32.1853 14.7651 32.3515 14.879C32.937 15.252 33.4356 15.7464 33.8137 16.3286C34.1917 16.9108 34.4404 17.5674 34.5429 18.254C34.5835 18.5809 34.5835 18.9115 34.5429 19.2384C34.5277 19.8564 34.3799 20.4638 34.1093 21.0196L30.5937 28.3204C30.5061 28.5062 30.3713 28.6657 30.2026 28.7829C30.034 28.9002 29.8374 28.971 29.6328 28.9884Z" fill="white"/>
<path d="M21.5586 21.8749C21.6123 22.0269 21.683 22.1724 21.7695 22.3085C22.022 22.7401 22.3973 23.0869 22.8476 23.3046L29.0937 26.2577L32.0586 20.0116C32.1941 19.7293 32.2699 19.4221 32.2812 19.1092C32.2994 18.9378 32.2994 18.765 32.2812 18.5936C32.2239 18.2351 32.0895 17.8933 31.8871 17.5918C31.6848 17.2903 31.4194 17.0364 31.1093 16.8475C31.0333 16.7909 30.9507 16.7436 30.8632 16.7069C30.5704 16.5678 30.253 16.4879 29.9292 16.4718C29.6055 16.4557 29.2817 16.5037 28.9765 16.6131C28.6339 16.7233 28.3239 16.9165 28.0742 17.1756C27.8598 17.3757 27.6849 17.6142 27.5586 17.8788L27.2187 18.5467C27.0868 18.8243 26.8511 19.0389 26.5625 19.1444C26.4195 19.204 26.2662 19.2347 26.1113 19.2347C25.9564 19.2347 25.8031 19.204 25.6601 19.1444L24.9687 18.8163C24.7014 18.6946 24.4167 18.6155 24.125 18.5819C23.6208 18.5408 23.116 18.653 22.6768 18.904C22.2376 19.155 21.8845 19.5329 21.664 19.9881C21.3866 20.5799 21.3488 21.2559 21.5586 21.8749Z" fill="white"/>
</svg>
