<svg width="300" height="249" viewBox="0 0 300 249" fill="none" xmlns="http://www.w3.org/2000/svg">
<g clip-path="url(#clip0_290_2679)">
<path opacity="0.1" d="M319.624 160.525C311.431 119.207 263.426 86.1832 254.063 43.126C237.046 -11.6544 180.957 -20.3153 144.509 3.47581C86.7565 41.1732 148.366 50.528 35.133 139.718C7.17328 161.74 16.0825 258.954 104.042 236.644C151.378 224.637 165.768 222.952 187.06 220.975C240.728 215.993 333.379 229.884 319.624 160.525Z" fill="#AC3A99" fill-opacity="0.698039"/>
<path d="M219.859 195.86H100.515C95.0666 195.86 89.7936 193.934 85.6279 190.423C81.4621 186.911 78.6718 182.04 77.75 176.67L61.3496 81.1348H259.024L242.624 176.67C241.702 182.04 238.912 186.911 234.746 190.423C230.58 193.934 225.308 195.86 219.859 195.86Z" fill="#AC3A99" fill-opacity="0.698039"/>
<path d="M259.452 71.9199H60.9222C56.2164 71.9199 52.4016 75.7347 52.4016 80.4405C52.4016 85.1463 56.2164 88.9611 60.9222 88.9611H259.452C264.158 88.9611 267.972 85.1463 267.972 80.4405C267.972 75.7347 264.158 71.9199 259.452 71.9199Z" fill="white"/>
<path d="M259.454 89.6335H60.9222C58.4844 89.6335 56.1464 88.665 54.4225 86.9412C52.6987 85.2174 51.7303 82.8794 51.7303 80.4415C51.7303 78.0036 52.6987 75.6656 54.4225 73.9418C56.1464 72.2179 58.4844 71.2495 60.9222 71.2495H259.454C261.892 71.2495 264.23 72.2179 265.954 73.9418C267.678 75.6656 268.646 78.0036 268.646 80.4415C268.646 82.8794 267.678 85.2174 265.954 86.9412C264.23 88.665 261.892 89.6335 259.454 89.6335ZM60.9244 72.5934C58.8429 72.5934 56.8467 73.4202 55.3749 74.892C53.9031 76.3638 53.0763 78.36 53.0763 80.4415C53.0763 82.523 53.9031 84.5191 55.3749 85.991C56.8467 87.4628 58.8429 88.2896 60.9244 88.2896H259.454C261.535 88.2896 263.532 87.4628 265.003 85.991C266.475 84.5191 267.302 82.523 267.302 80.4415C267.302 78.36 266.475 76.3638 265.003 74.892C263.532 73.4202 261.535 72.5934 259.454 72.5934H60.9244Z" fill="#262626"/>
<path d="M186.475 75.2112C184.256 78.0016 184.719 82.0629 187.509 84.2825C190.299 86.502 194.361 86.0392 196.58 83.2488L234.576 35.4801C236.795 32.6897 236.333 28.6283 233.542 26.4088C230.752 24.1893 226.69 24.6521 224.471 27.4425L186.475 75.2112Z" fill="white"/>
<path d="M191.512 86.3601C189.905 86.3611 188.345 85.8141 187.09 84.8093C185.612 83.6314 184.662 81.9154 184.448 80.0378C184.234 78.1603 184.774 76.2746 185.948 74.7944L223.943 27.0251C224.526 26.2925 225.248 25.6819 226.066 25.2281C226.885 24.7743 227.785 24.4862 228.715 24.3803C229.645 24.2743 230.587 24.3526 231.487 24.6106C232.387 24.8687 233.227 25.3014 233.959 25.8841C234.692 26.4669 235.302 27.1882 235.756 28.0069C236.21 28.8256 236.498 29.7257 236.604 30.6557C236.71 31.5858 236.632 32.5276 236.374 33.4274C236.116 34.3272 235.683 35.1674 235.1 35.8999L197.106 83.6687C196.525 84.4031 195.804 85.015 194.985 85.4689C194.165 85.9229 193.264 86.2099 192.334 86.3134C192.061 86.3444 191.787 86.36 191.512 86.3601ZM187.926 83.7579C188.52 84.2308 189.202 84.582 189.932 84.7913C190.663 85.0007 191.427 85.0642 192.182 84.9782C192.936 84.8922 193.667 84.6584 194.331 84.2901C194.995 83.9218 195.581 83.4262 196.054 82.8317L234.048 35.0624C234.521 34.468 234.872 33.7863 235.082 33.0561C235.291 32.3259 235.355 31.5617 235.269 30.8069C235.183 30.0522 234.95 29.3217 234.581 28.6573C234.213 27.9929 233.718 27.4075 233.123 26.9345C232.529 26.4615 231.847 26.1103 231.117 25.9008C230.387 25.6913 229.623 25.6277 228.868 25.7136C228.113 25.7995 227.383 26.0332 226.718 26.4013C226.054 26.7695 225.468 27.2649 224.995 27.8593L187 75.6281C186.047 76.8292 185.609 78.3595 185.783 79.8831C185.956 81.4067 186.727 82.7992 187.926 83.7552V83.7579Z" fill="#262626"/>
<path d="M191.095 82.2071C192.438 82.2071 193.528 81.1179 193.528 79.7742C193.528 78.4306 192.438 77.3413 191.095 77.3413C189.751 77.3413 188.662 78.4306 188.662 79.7742C188.662 81.1179 189.751 82.2071 191.095 82.2071Z" fill="white"/>
<path d="M191.102 82.8795C190.642 82.8798 190.189 82.7783 189.773 82.5824C189.358 82.3864 188.991 82.1008 188.699 81.7462C188.407 81.3915 188.198 80.9766 188.085 80.5312C187.973 80.0859 187.96 79.6212 188.049 79.1705C188.163 78.594 188.439 78.0618 188.844 77.6359C189.249 77.21 189.767 76.9079 190.337 76.7646C190.907 76.6213 191.506 76.6427 192.064 76.8265C192.623 77.0102 193.117 77.3487 193.491 77.8025C193.864 78.2563 194.101 78.8068 194.174 79.39C194.247 79.9732 194.153 80.5651 193.903 81.0969C193.652 81.6287 193.256 82.0786 192.761 82.3941C192.265 82.7097 191.689 82.878 191.102 82.8795ZM189.368 79.4317C189.288 79.8315 189.35 80.2464 189.542 80.6058C189.734 80.9652 190.045 81.2468 190.422 81.4027C190.798 81.5585 191.217 81.579 191.607 81.4605C191.997 81.3421 192.334 81.0921 192.56 80.7531C192.787 80.4142 192.888 80.0072 192.848 79.6016C192.808 79.196 192.629 78.8169 192.34 78.5288C192.052 78.2408 191.673 78.0616 191.267 78.0219C190.861 77.9822 190.455 78.0843 190.116 78.3109C189.728 78.5707 189.459 78.9738 189.368 79.4317Z" fill="#262626"/>
<path d="M95.9046 27.4426C93.685 24.6522 89.6237 24.1894 86.8333 26.4089C84.0428 28.6285 83.58 32.6898 85.7996 35.4802L123.795 83.2489C126.015 86.0393 130.076 86.5021 132.866 84.2826C135.657 82.0631 136.12 78.0017 133.9 75.2113L95.9046 27.4426Z" fill="white"/>
<path d="M128.855 86.3559C127.781 86.3581 126.721 86.1174 125.754 85.652C124.787 85.1865 123.937 84.5084 123.269 83.6682L85.2735 35.8994C84.0966 34.42 83.5556 32.5336 83.7696 30.6553C83.9836 28.7769 84.9349 27.0606 86.4144 25.8837C87.8939 24.7068 89.7803 24.1658 91.6586 24.3798C93.5369 24.5938 95.2533 25.5451 96.4302 27.0246L134.426 74.7939C135.261 75.8425 135.783 77.1054 135.932 78.4374C136.081 79.7694 135.852 81.1165 135.27 82.324C134.688 83.5315 133.778 84.5503 132.643 85.2635C131.508 85.9767 130.195 86.3554 128.855 86.3559ZM90.8462 25.6802C89.7587 25.681 88.6935 25.9885 87.7728 26.5673C86.8521 27.1462 86.1134 27.9729 85.6413 28.9526C85.1693 29.9323 84.9831 31.0253 85.1041 32.106C85.2251 33.1867 85.6484 34.2115 86.3255 35.0625L124.321 82.8312C125.277 84.0303 126.669 84.8012 128.193 84.9749C129.716 85.1485 131.247 84.7107 132.448 83.7574C133.042 83.2847 133.538 82.6994 133.906 82.0351C134.274 81.3708 134.508 80.6404 134.594 79.8857C134.68 79.131 134.617 78.3668 134.407 77.6366C134.198 76.9065 133.847 76.2247 133.374 75.6303L95.3787 27.8616C94.8365 27.1798 94.1472 26.6295 93.3623 26.2518C92.5774 25.874 91.7173 25.6786 90.8462 25.6802Z" fill="#262626"/>
<path d="M129.279 82.2071C130.623 82.2071 131.712 81.1179 131.712 79.7742C131.712 78.4306 130.623 77.3413 129.279 77.3413C127.936 77.3413 126.847 78.4306 126.847 79.7742C126.847 81.1179 127.936 82.2071 129.279 82.2071Z" fill="white"/>
<path d="M129.273 82.8797C128.685 82.8787 128.109 82.7107 127.613 82.3952C127.116 82.0798 126.72 81.6299 126.469 81.0978C126.219 80.5658 126.124 79.9736 126.197 79.39C126.27 78.8064 126.507 78.2555 126.88 77.8013C127.254 77.3472 127.749 77.0085 128.308 76.8246C128.866 76.6407 129.466 76.6193 130.036 76.7627C130.606 76.9062 131.124 77.2087 131.529 77.6349C131.935 78.0612 132.21 78.5938 132.325 79.1707C132.413 79.6213 132.401 80.086 132.289 80.5313C132.176 80.9766 131.967 81.3915 131.675 81.7462C131.383 82.1008 131.017 82.3864 130.601 82.5824C130.186 82.7784 129.732 82.8799 129.273 82.8797ZM129.283 78.0128C128.92 78.012 128.566 78.1234 128.268 78.3318C127.971 78.5403 127.745 78.8356 127.622 79.1772C127.499 79.5189 127.485 79.8902 127.581 80.2404C127.677 80.5905 127.879 80.9024 128.16 81.1332C128.44 81.364 128.785 81.5026 129.147 81.5298C129.509 81.5571 129.871 81.4717 130.182 81.2854C130.494 81.0991 130.741 80.8211 130.888 80.4893C131.036 80.1574 131.077 79.7881 131.007 79.4319C130.927 79.0328 130.712 78.6734 130.398 78.4147C130.084 78.1561 129.69 78.0141 129.283 78.0128Z" fill="#262626"/>
<path d="M165.217 118.925C165.217 116.147 162.965 113.895 160.187 113.895C157.408 113.895 155.156 116.147 155.156 118.925V166.488C155.156 169.266 157.408 171.519 160.187 171.519C162.965 171.519 165.217 169.266 165.217 166.488V118.925Z" fill="white"/>
<path d="M117.126 118.436C116.7 115.691 114.128 113.811 111.383 114.238C108.637 114.665 106.758 117.236 107.185 119.982L114.492 166.979C114.919 169.725 117.491 171.605 120.236 171.178C122.981 170.751 124.861 168.179 124.434 165.434L117.126 118.436Z" fill="white"/>
<path d="M196.978 165.433C196.551 168.178 198.431 170.75 201.176 171.177C203.922 171.604 206.493 169.724 206.92 166.979L214.228 119.981C214.655 117.235 212.775 114.664 210.03 114.237C207.284 113.81 204.713 115.69 204.286 118.435L196.978 165.433Z" fill="white"/>
<path d="M242.13 215.345C258.526 215.345 271.818 202.053 271.818 185.657C271.818 169.261 258.526 155.97 242.13 155.97C225.734 155.97 212.443 169.261 212.443 185.657C212.443 202.053 225.734 215.345 242.13 215.345Z" fill="white"/>
<path d="M242.13 216.016C236.125 216.015 230.255 214.235 225.263 210.899C220.27 207.563 216.379 202.821 214.082 197.274C211.784 191.726 211.183 185.622 212.354 179.733C213.526 173.844 216.417 168.434 220.663 164.189C224.909 159.943 230.319 157.051 236.208 155.88C242.097 154.709 248.201 155.31 253.749 157.608C259.296 159.906 264.037 163.797 267.373 168.79C270.709 173.783 272.49 179.652 272.489 185.657C272.48 193.706 269.279 201.422 263.587 207.114C257.895 212.805 250.179 216.007 242.13 216.016ZM242.13 156.641C236.391 156.641 230.781 158.343 226.01 161.531C221.238 164.719 217.519 169.251 215.323 174.553C213.127 179.855 212.553 185.689 213.672 191.317C214.792 196.945 217.555 202.115 221.613 206.173C225.671 210.231 230.841 212.995 236.469 214.114C242.098 215.234 247.932 214.659 253.234 212.463C258.535 210.267 263.067 206.548 266.255 201.777C269.444 197.005 271.146 191.395 271.146 185.657C271.137 177.964 268.077 170.589 262.637 165.149C257.198 159.71 249.822 156.65 242.13 156.642V156.641Z" fill="#262626"/>
<path d="M242.108 200.866C240.669 200.897 239.246 200.554 237.981 199.869C236.715 199.184 235.65 198.181 234.889 196.959C233.122 194.355 232.239 190.586 232.239 185.653C232.24 180.719 233.123 176.995 234.889 174.482C235.699 173.317 236.78 172.365 238.038 171.708C239.296 171.052 240.695 170.71 242.114 170.712C243.533 170.715 244.93 171.061 246.186 171.721C247.443 172.382 248.52 173.337 249.326 174.504C251.092 177.033 251.975 180.749 251.976 185.653C251.976 190.586 251.093 194.355 249.326 196.959C248.566 198.181 247.5 199.184 246.234 199.869C244.969 200.553 243.546 200.897 242.108 200.866ZM242.108 196.754C242.797 196.758 243.472 196.559 244.049 196.183C244.724 195.704 245.254 195.048 245.58 194.287C246.068 193.195 246.406 192.043 246.585 190.86C246.852 189.138 246.974 187.396 246.95 185.653C246.974 183.932 246.852 182.212 246.585 180.513C246.41 179.351 246.071 178.221 245.58 177.154C245.254 176.418 244.722 175.791 244.049 175.349C243.46 175.005 242.79 174.824 242.108 174.824C241.425 174.824 240.755 175.005 240.166 175.349C239.493 175.791 238.961 176.418 238.636 177.154C238.143 178.22 237.805 179.351 237.63 180.513C237.363 182.212 237.241 183.932 237.265 185.653C237.24 187.395 237.362 189.137 237.63 190.859C237.807 192.041 238.146 193.194 238.635 194.285C238.96 195.047 239.49 195.703 240.165 196.181C240.743 196.558 241.418 196.758 242.108 196.754Z" fill="#AC3A99" fill-opacity="0.698039"/>
</g>
<defs>
<clipPath id="clip0_290_2679">
<rect width="300" height="248.947" fill="white"/>
</clipPath>
</defs>
</svg>
