<svg width="300" height="249" viewBox="0 0 300 249" fill="none" xmlns="http://www.w3.org/2000/svg">
<g clip-path="url(#clip0_290_2679)">
<path d="M219.129 228.47H99.7847C94.3363 228.47 89.0633 226.544 84.8976 223.033C80.7319 219.521 77.9416 214.65 77.0198 209.28L60.6193 113.745H258.294L241.893 209.28C240.972 214.65 238.182 219.521 234.016 223.033C229.85 226.544 224.577 228.47 219.129 228.47Z" fill="#AC3A99" fill-opacity="0.698039"/>
<path d="M258.722 104.53H60.192C55.4862 104.53 51.6714 108.345 51.6714 113.05C51.6714 117.756 55.4862 121.571 60.192 121.571H258.722C263.427 121.571 267.242 117.756 267.242 113.05C267.242 108.345 263.427 104.53 258.722 104.53Z" fill="white"/>
<path d="M258.724 122.243H60.192C57.7541 122.243 55.4161 121.275 53.6923 119.551C51.9684 117.827 51 115.489 51 113.051C51 110.613 51.9684 108.275 53.6923 106.552C55.4161 104.828 57.7541 103.859 60.192 103.859H258.724C261.162 103.859 263.5 104.828 265.223 106.552C266.947 108.275 267.916 110.613 267.916 113.051C267.916 115.489 266.947 117.827 265.223 119.551C263.5 121.275 261.162 122.243 258.724 122.243ZM60.1941 105.203C58.1127 105.203 56.1165 106.03 54.6447 107.502C53.1729 108.974 52.346 110.97 52.346 113.051C52.346 115.133 53.1729 117.129 54.6447 118.601C56.1165 120.073 58.1127 120.899 60.1941 120.899H258.724C260.805 120.899 262.801 120.073 264.273 118.601C265.745 117.129 266.572 115.133 266.572 113.051C266.572 110.97 265.745 108.974 264.273 107.502C262.801 106.03 260.805 105.203 258.724 105.203H60.1941Z" fill="#262626"/>
<path d="M185.745 107.821C183.526 110.611 183.988 114.673 186.779 116.892C189.569 119.112 193.631 118.649 195.85 115.859L233.846 68.09C236.065 65.2996 235.602 61.2382 232.812 59.0187C230.021 56.7992 225.96 57.262 223.741 60.0524L185.745 107.821Z" fill="white"/>
<path d="M190.782 118.97C189.174 118.971 187.614 118.424 186.359 117.419C184.882 116.241 183.932 114.525 183.718 112.648C183.504 110.77 184.043 108.884 185.218 107.404L223.213 59.6349C223.796 58.9024 224.517 58.2918 225.336 57.838C226.155 57.3842 227.055 57.0961 227.985 56.9901C228.915 56.8842 229.857 56.9625 230.756 57.2205C231.656 57.4785 232.496 57.9113 233.229 58.494C233.961 59.0767 234.572 59.798 235.026 60.6168C235.48 61.4355 235.768 62.3355 235.874 63.2656C235.98 64.1956 235.901 65.1375 235.643 66.0373C235.385 66.9371 234.953 67.7772 234.37 68.5098L196.375 116.279C195.794 117.013 195.073 117.625 194.254 118.079C193.435 118.533 192.534 118.82 191.603 118.923C191.331 118.954 191.057 118.97 190.782 118.97ZM187.196 116.368C187.79 116.841 188.472 117.192 189.202 117.401C189.932 117.611 190.697 117.674 191.451 117.588C192.206 117.502 192.936 117.268 193.601 116.9C194.265 116.532 194.85 116.036 195.323 115.442L233.318 67.6723C233.791 67.0779 234.142 66.3961 234.352 65.666C234.561 64.9358 234.625 64.1715 234.539 63.4168C234.453 62.662 234.219 61.9316 233.851 61.2672C233.483 60.6027 232.987 60.0173 232.393 59.5444C231.799 59.0714 231.117 58.7202 230.387 58.5107C229.657 58.3012 228.892 58.2376 228.138 58.3234C227.383 58.4093 226.652 58.643 225.988 59.0112C225.324 59.3794 224.738 59.8748 224.265 60.4692L186.27 108.238C185.317 109.439 184.879 110.969 185.052 112.493C185.226 114.017 185.997 115.409 187.196 116.365V116.368Z" fill="#262626"/>
<path d="M190.364 114.817C191.708 114.817 192.797 113.728 192.797 112.384C192.797 111.04 191.708 109.951 190.364 109.951C189.021 109.951 187.932 111.04 187.932 112.384C187.932 113.728 189.021 114.817 190.364 114.817Z" fill="white"/>
<path d="M190.371 115.489C189.912 115.49 189.458 115.388 189.043 115.192C188.628 114.996 188.261 114.711 187.969 114.356C187.677 114.001 187.467 113.586 187.355 113.141C187.242 112.696 187.23 112.231 187.319 111.78C187.433 111.204 187.709 110.672 188.114 110.246C188.519 109.82 189.037 109.518 189.607 109.374C190.177 109.231 190.776 109.253 191.334 109.436C191.892 109.62 192.387 109.959 192.76 110.412C193.134 110.866 193.371 111.417 193.444 112C193.517 112.583 193.423 113.175 193.172 113.707C192.922 114.239 192.526 114.688 192.03 115.004C191.534 115.32 190.959 115.488 190.371 115.489ZM188.637 112.042C188.558 112.441 188.62 112.856 188.812 113.216C189.004 113.575 189.315 113.857 189.691 114.013C190.068 114.168 190.487 114.189 190.877 114.07C191.267 113.952 191.604 113.702 191.83 113.363C192.056 113.024 192.158 112.617 192.118 112.211C192.078 111.806 191.898 111.427 191.61 111.139C191.322 110.851 190.942 110.671 190.537 110.632C190.131 110.592 189.724 110.694 189.386 110.921C188.998 111.181 188.728 111.584 188.637 112.042Z" fill="#262626"/>
<path d="M95.1743 60.0525C92.9548 57.2621 88.8934 56.7993 86.103 59.0188C83.3126 61.2383 82.8498 65.2997 85.0693 68.0901L123.065 115.859C125.284 118.649 129.346 119.112 132.136 116.892C134.927 114.673 135.389 110.612 133.17 107.821L95.1743 60.0525Z" fill="white"/>
<path d="M128.125 118.966C127.051 118.968 125.991 118.727 125.024 118.262C124.057 117.796 123.207 117.118 122.539 116.278L84.5432 68.5093C83.3663 67.0298 82.8254 65.1435 83.0394 63.2651C83.2533 61.3868 84.2047 59.6704 85.6842 58.4935C87.1636 57.3167 89.05 56.7757 90.9283 56.9897C92.8067 57.2036 94.5231 58.155 95.6999 59.6345L133.696 107.404C134.53 108.452 135.052 109.715 135.202 111.047C135.351 112.379 135.122 113.726 134.54 114.934C133.958 116.141 133.048 117.16 131.913 117.873C130.778 118.587 129.465 118.965 128.125 118.966ZM90.1159 58.2901C89.0284 58.2909 87.9632 58.5984 87.0426 59.1772C86.1219 59.756 85.3831 60.5827 84.9111 61.5624C84.439 62.5422 84.2528 63.6351 84.3738 64.7159C84.4948 65.7966 84.9182 66.8213 85.5952 67.6724L123.59 115.441C124.546 116.64 125.939 117.411 127.462 117.585C128.986 117.758 130.516 117.321 131.717 116.367C132.312 115.895 132.808 115.309 133.176 114.645C133.544 113.981 133.778 113.25 133.864 112.496C133.95 111.741 133.886 110.977 133.677 110.247C133.468 109.516 133.117 108.835 132.644 108.24L94.6485 60.4714C94.1063 59.7897 93.4169 59.2394 92.632 58.8616C91.8471 58.4839 90.987 58.2885 90.1159 58.2901Z" fill="#262626"/>
<path d="M128.549 114.817C129.893 114.817 130.982 113.728 130.982 112.384C130.982 111.04 129.893 109.951 128.549 109.951C127.206 109.951 126.116 111.04 126.116 112.384C126.116 113.728 127.206 114.817 128.549 114.817Z" fill="white"/>
<path d="M128.543 115.49C127.955 115.489 127.379 115.321 126.883 115.005C126.386 114.69 125.99 114.24 125.739 113.708C125.488 113.176 125.394 112.583 125.467 112C125.54 111.416 125.777 110.865 126.15 110.411C126.524 109.957 127.019 109.618 127.577 109.434C128.136 109.251 128.735 109.229 129.306 109.373C129.876 109.516 130.394 109.819 130.799 110.245C131.204 110.671 131.48 111.204 131.594 111.781C131.683 112.231 131.671 112.696 131.559 113.141C131.446 113.586 131.237 114.001 130.945 114.356C130.653 114.711 130.286 114.996 129.871 115.192C129.456 115.388 129.002 115.49 128.543 115.49ZM128.553 110.623C128.19 110.622 127.835 110.733 127.538 110.942C127.241 111.15 127.015 111.445 126.892 111.787C126.769 112.129 126.755 112.5 126.851 112.85C126.947 113.2 127.149 113.512 127.429 113.743C127.71 113.974 128.055 114.112 128.417 114.14C128.779 114.167 129.14 114.082 129.452 113.895C129.764 113.709 130.01 113.431 130.158 113.099C130.305 112.767 130.347 112.398 130.276 112.042C130.197 111.643 129.982 111.283 129.668 111.025C129.354 110.766 128.96 110.624 128.553 110.623Z" fill="#262626"/>
<path d="M164.487 151.535C164.487 148.757 162.235 146.504 159.457 146.504C156.678 146.504 154.426 148.757 154.426 151.535V199.098C154.426 201.876 156.678 204.128 159.457 204.128C162.235 204.128 164.487 201.876 164.487 199.098V151.535Z" fill="white"/>
<path d="M116.396 151.046C115.969 148.3 113.398 146.421 110.652 146.848C107.907 147.275 106.028 149.846 106.454 152.592L113.762 199.589C114.189 202.335 116.76 204.214 119.506 203.788C122.251 203.361 124.131 200.789 123.704 198.044L116.396 151.046Z" fill="white"/>
<path d="M196.248 198.043C195.821 200.788 197.701 203.36 200.446 203.787C203.191 204.214 205.763 202.334 206.19 199.588L213.497 152.591C213.924 149.845 212.045 147.274 209.299 146.847C206.554 146.42 203.983 148.3 203.556 151.045L196.248 198.043Z" fill="white"/>
<path d="M241.4 247.954C257.796 247.954 271.087 234.663 271.087 218.267C271.087 201.871 257.796 188.58 241.4 188.58C225.004 188.58 211.712 201.871 211.712 218.267C211.712 234.663 225.004 247.954 241.4 247.954Z" fill="white"/>
<path d="M241.399 248.625C235.395 248.625 229.525 246.845 224.533 243.509C219.54 240.173 215.649 235.431 213.351 229.884C211.054 224.336 210.452 218.232 211.624 212.343C212.795 206.454 215.687 201.044 219.933 196.798C224.179 192.553 229.588 189.661 235.478 188.49C241.367 187.319 247.471 187.92 253.018 190.218C258.566 192.516 263.307 196.407 266.643 201.4C269.979 206.392 271.759 212.262 271.759 218.267C271.75 226.316 268.548 234.032 262.857 239.724C257.165 245.415 249.448 248.616 241.399 248.625ZM241.399 189.251C235.661 189.251 230.051 190.953 225.279 194.141C220.508 197.329 216.789 201.861 214.593 207.163C212.397 212.464 211.822 218.298 212.942 223.927C214.062 229.555 216.825 234.725 220.883 238.783C224.941 242.841 230.111 245.604 235.739 246.724C241.367 247.844 247.201 247.269 252.503 245.073C257.805 242.877 262.337 239.158 265.525 234.387C268.713 229.615 270.415 224.005 270.415 218.267C270.407 210.574 267.347 203.199 261.907 197.759C256.467 192.32 249.092 189.26 241.399 189.252V189.251Z" fill="#262626"/>
<path d="M241.377 233.475C239.938 233.507 238.516 233.164 237.251 232.479C235.985 231.794 234.919 230.791 234.159 229.569C232.392 226.965 231.508 223.196 231.509 218.262C231.51 213.328 232.393 209.605 234.159 207.092C234.969 205.926 236.049 204.975 237.308 204.318C238.566 203.662 239.964 203.32 241.383 203.322C242.803 203.324 244.2 203.671 245.456 204.331C246.712 204.991 247.79 205.946 248.596 207.114C250.362 209.643 251.245 213.359 251.245 218.262C251.245 223.196 250.362 226.965 248.596 229.569C247.835 230.791 246.77 231.793 245.504 232.478C244.238 233.163 242.816 233.507 241.377 233.475ZM241.377 229.364C242.066 229.368 242.741 229.169 243.319 228.793C243.994 228.314 244.524 227.658 244.85 226.897C245.338 225.805 245.676 224.653 245.854 223.47C246.122 221.747 246.244 220.005 246.22 218.262C246.244 216.542 246.122 214.822 245.854 213.122C245.679 211.961 245.341 210.83 244.85 209.764C244.523 209.028 243.992 208.401 243.319 207.959C242.73 207.615 242.06 207.434 241.377 207.434C240.695 207.434 240.025 207.615 239.436 207.959C238.762 208.401 238.231 209.027 237.905 209.764C237.413 210.83 237.074 211.961 236.9 213.122C236.633 214.822 236.51 216.542 236.535 218.262C236.51 220.005 236.632 221.746 236.9 223.468C237.077 224.651 237.415 225.804 237.905 226.895C238.23 227.657 238.76 228.313 239.435 228.791C240.012 229.168 240.688 229.368 241.377 229.364Z" fill="#AC3A99" fill-opacity="0.698039"/>
<path opacity="0.1" d="M298.624 169.525C290.431 128.207 242.426 95.1832 233.063 52.126C216.046 -2.65441 159.957 -11.3153 123.509 12.4758C65.7565 50.1732 127.366 59.528 14.133 148.718C-13.8267 170.74 -4.91748 267.954 83.0423 245.644C130.378 233.637 144.768 231.952 166.06 229.975C219.728 224.993 312.379 238.884 298.624 169.525Z" fill="#AC3A99" fill-opacity="0.698039"/>
</g>
<defs>
<clipPath id="clip0_290_2679">
<rect width="300" height="248.947" fill="white"/>
</clipPath>
</defs>
</svg>
