<svg width="20" height="20" viewBox="0 0 20 20" fill="none" xmlns="http://www.w3.org/2000/svg">
<path d="M17 0H3C1.34315 0 0 1.34315 0 3V17C0 18.6569 1.34315 20 3 20H17C18.6569 20 20 18.6569 20 17V3C20 1.34315 18.6569 0 17 0Z" fill="#1877F2"/>
<path d="M13.8906 12.8906L14.3359 10H11.5625V8.125C11.5625 7.33594 11.9492 6.5625 13.1914 6.5625H14.4531V4.10156C14.4531 4.10156 13.3086 3.90625 12.2148 3.90625C9.92969 3.90625 8.4375 5.28906 8.4375 7.79688V10H5.89844V12.8906H8.4375V20H11.5625V12.8906H13.8906Z" fill="white"/>
</svg>
