<svg width="20" height="21" viewBox="0 0 20 21" fill="none" xmlns="http://www.w3.org/2000/svg">
<path d="M17 0.5H3C1.34315 0.5 0 1.84315 0 3.5V17.5C0 19.1569 1.34315 20.5 3 20.5H17C18.6569 20.5 20 19.1569 20 17.5V3.5C20 1.84315 18.6569 0.5 17 0.5Z" fill="#E9E6E6"/>
<path d="M6.17188 15.7734V10.2266L2.96875 7.76562V14.6016C2.96875 15.3828 3.35938 15.7734 4.14062 15.7734" fill="#4285F4"/>
<path d="M6.01562 10.1875L10 13.1953L13.9844 10.1875V6.35938L10 9.36719L6.01562 6.35938" fill="#EA4335"/>
<path d="M13.8281 15.7734V10.2266L17.0312 7.76562V14.6016C17.0312 15.3828 16.6406 15.7734 15.8594 15.7734" fill="#34A853"/>
<path d="M2.96875 7.84378L6.17188 10.3047V6.47659L5 5.57815C3.94531 4.75784 2.96875 5.57815 2.96875 6.59378" fill="#C5221F"/>
<path d="M17.0312 7.84378L13.8281 10.3047V6.47659L15 5.57815C16.0547 4.75784 17.0312 5.57815 17.0312 6.59378" fill="#FBBC04"/>
</svg>
