<svg width="350" height="350" viewBox="0 0 350 350" fill="none" xmlns="http://www.w3.org/2000/svg">
<path d="M231.615 269.055C196.178 298.08 186.366 277.451 147.54 250.691C131.297 239.496 94.6712 235.687 67.4963 220.163C11.0827 187.935 32.2714 128.205 82.5343 87.0369C132.797 45.8691 206.916 53.2424 248.084 103.505C289.251 153.768 281.878 227.887 231.615 269.055ZM337.459 334.12H18.6499C16.9213 334.12 15.5073 332.706 15.5073 330.977V322.194C15.5073 320.465 16.9216 319.051 18.6499 319.051H337.459C339.188 319.051 340.602 320.465 340.602 322.194V330.977C340.602 332.706 339.188 334.12 337.459 334.12Z" fill="#F7F7F7"/>
<path d="M290.432 294.696C292.549 289.314 294.684 283.331 292.7 277.898C292.219 276.578 291.493 275.181 291.928 273.845C292.515 272.04 294.889 271.396 295.692 269.677C296.576 267.787 295.191 265.559 295.551 263.504C295.916 261.415 297.961 260.061 299.943 259.307C301.926 258.553 304.106 258.098 305.704 256.704C308.778 254.022 308.408 249.22 307.732 245.197C307.055 241.174 306.549 236.426 309.49 233.598C304.08 234.632 298.539 235.716 293.834 238.58C289.13 241.444 285.365 246.512 285.641 252.013C285.78 254.773 286.872 257.715 285.609 260.173C284.245 262.826 280.574 263.857 279.648 266.693C278.583 269.952 281.76 272.903 283.015 276.094C284.193 279.09 283.635 282.451 283.899 285.66C284.163 288.869 285.847 292.499 289.03 292.979L290.432 294.696Z" fill="#0CBC8B"/>
<path d="M288.24 287.62C288.188 271.964 291.206 239.199 309.295 233.73" stroke="white" stroke-width="0.75" stroke-miterlimit="10" stroke-linecap="round"/>
<path d="M277.822 293.384C274.602 287.373 271.279 280.662 272.853 274.028C273.236 272.416 273.894 270.68 273.201 269.175C272.264 267.144 269.396 266.716 268.219 264.814C266.925 262.722 268.239 259.924 267.535 257.567C266.82 255.171 264.24 253.867 261.815 253.257C259.39 252.647 256.775 252.414 254.711 251.002C250.743 248.285 250.515 242.612 250.753 237.808C250.992 233.004 250.93 227.375 247.098 224.468C253.575 224.934 260.212 225.441 266.114 228.147C272.017 230.853 277.123 236.27 277.556 242.748C277.773 245.999 276.9 249.594 278.717 252.298C280.68 255.216 285.12 255.918 286.595 259.112C288.289 262.781 284.975 266.673 283.946 270.581C282.979 274.252 284.095 278.111 284.227 281.905C284.359 285.698 282.888 290.18 279.226 291.18L277.822 293.384Z" fill="#0CBC8B"/>
<path d="M279.415 284.797C277.321 266.459 269.278 228.51 247.345 224.596" stroke="white" stroke-width="0.75" stroke-miterlimit="10" stroke-linecap="round"/>
<path d="M298.158 328.648H269.883C267.919 328.648 266.312 327.041 266.312 325.076L263.931 284.301C263.931 282.337 265.538 280.73 267.502 280.73H300.539C302.503 280.73 304.11 282.337 304.11 284.301L301.73 325.076C301.729 327.041 300.122 328.648 298.158 328.648Z" fill="#CCE9FF"/>
<path d="M49.1157 305.507C47.6726 301.838 46.2175 297.76 47.5696 294.057C47.8978 293.157 48.393 292.205 48.0962 291.294C47.6956 290.064 46.0775 289.625 45.5302 288.454C44.928 287.165 45.8717 285.647 45.6267 284.246C45.3775 282.822 43.9843 281.899 42.6329 281.385C41.2815 280.871 39.7957 280.561 38.7065 279.611C36.611 277.783 36.8631 274.51 37.3243 271.768C37.7854 269.026 38.1299 265.789 36.1259 263.862C39.8132 264.567 43.5903 265.305 46.7966 267.258C50.003 269.21 52.5697 272.665 52.3808 276.414C52.2861 278.295 51.5417 280.301 52.4028 281.976C53.3326 283.784 55.8347 284.487 56.466 286.42C57.1913 288.641 55.0259 290.653 54.1709 292.827C53.3679 294.87 53.7484 297.161 53.5682 299.348C53.388 301.535 52.2411 304.009 50.0708 304.336L49.1157 305.507Z" fill="#0CBC8B"/>
<path d="M50.61 300.683C50.6457 290.012 48.5884 267.679 36.259 263.952" stroke="white" stroke-width="0.75" stroke-miterlimit="10" stroke-linecap="round"/>
<path d="M57.7111 304.612C59.9058 300.515 62.1707 295.941 61.0974 291.418C60.8365 290.32 60.3883 289.136 60.8608 288.111C61.4989 286.726 63.454 286.435 64.2564 285.138C65.1386 283.713 64.2428 281.805 64.7225 280.199C65.2102 278.565 66.9686 277.677 68.6217 277.261C70.2748 276.845 72.0569 276.687 73.4634 275.724C76.1684 273.872 76.3237 270.005 76.161 266.731C75.9983 263.456 76.0404 259.62 78.6525 257.639C74.2383 257.956 69.7139 258.301 65.6908 260.146C61.6677 261.991 58.1872 265.683 57.8923 270.099C57.7442 272.314 58.3398 274.765 57.1009 276.607C55.7634 278.597 52.7369 279.075 51.7316 281.252C50.5766 283.752 52.8351 286.406 53.537 289.07C54.1962 291.571 53.4356 294.202 53.3455 296.787C53.2554 299.373 54.2581 302.428 56.7541 303.109L57.7111 304.612Z" fill="#0CBC8B"/>
<path d="M56.6251 298.759C58.052 286.26 63.5344 260.394 78.4836 257.726" stroke="white" stroke-width="0.75" stroke-miterlimit="10" stroke-linecap="round"/>
<path d="M43.8498 328.648H63.1215C64.4602 328.648 65.5559 327.552 65.5559 326.213L67.1789 298.421C67.1789 297.083 66.0835 295.987 64.7444 295.987H42.2268C40.8881 295.987 39.7924 297.082 39.7924 298.421L41.4153 326.213C41.4156 327.552 42.511 328.648 43.8498 328.648Z" fill="#CCE9FF"/>
<path d="M297.62 73.2018V209.977C297.62 212.994 295.154 215.464 292.137 215.464H74.7736C71.7564 215.464 69.287 212.994 69.287 209.977V73.2018C69.287 70.1847 71.7564 67.7185 74.7736 67.7185H292.137C295.154 67.7185 297.62 70.1847 297.62 73.2018Z" stroke="#CCE9FF" stroke-width="2" stroke-miterlimit="10"/>
<path d="M296.333 74.2457V209.251C296.333 210.876 295.604 212.341 294.457 213.333C294.287 213.486 294.104 213.624 293.914 213.752C293.023 214.349 291.973 214.668 290.898 214.667H75.4385C74.327 214.667 73.2862 214.331 72.4221 213.752C70.9637 212.776 70 211.119 70 209.251V74.2457C70 71.2677 72.4478 68.8334 75.4385 68.8334H290.898C293.889 68.8334 296.333 71.2677 296.333 74.2457Z" fill="#F3FAFF"/>
<path d="M186.574 179.028C210.149 179.028 229.26 159.917 229.26 136.343C229.26 112.768 210.149 93.6573 186.574 93.6573C163 93.6573 143.889 112.768 143.889 136.343C143.889 159.917 163 179.028 186.574 179.028Z" fill="#CCE9FF"/>
<path d="M190.324 182.778C213.898 182.778 233.009 163.667 233.009 140.092C233.009 116.518 213.898 97.407 190.324 97.407C166.749 97.407 147.638 116.518 147.638 140.092C147.638 163.667 166.749 182.778 190.324 182.778Z" stroke="#CCE9FF" stroke-miterlimit="10"/>
<path d="M160.576 160.486L161.322 158.542C161.322 158.542 164.653 156.152 164.961 155.175C164.698 154.985 162.961 155.727 162.508 155.8C162.918 154.779 163.922 152.564 164.622 151.624C164.826 151.351 164.651 150.959 164.311 150.947C163.386 150.915 161.803 151.336 160.689 151.681C158.906 153.591 158.697 156.641 159.295 157.474C158.796 158.796 157.988 160.262 157.988 160.262L160.576 160.486Z" fill="#FFE3CA"/>
<path d="M158.634 158.31L161.227 160.255L155.231 174.676L152.468 169.8L158.634 158.31Z" fill="#AC3A99"/>
<path d="M179.547 158.227L175.514 161.627C175.816 161.374 176.087 161.086 176.321 160.769L180.354 157.369C180.12 157.686 179.849 157.974 179.547 158.227Z" fill="#FCAD00"/>
<path d="M187.899 145.011L191.932 141.612L180.354 157.369L176.321 160.769L187.899 145.011Z" fill="#FFEBC2"/>
<g opacity="0.55">
<path d="M171.38 105.626C171.145 105.602 170.909 105.586 170.673 105.58L170.181 105.569C168.206 105.522 166.58 106.109 165.461 107.053L161.428 110.453C162.547 109.509 164.173 108.922 166.148 108.969L166.64 108.98C166.877 108.986 167.113 109.002 167.347 109.026C169.454 109.248 171.446 110.214 172.741 111.674L186.344 126.981L190.377 123.581L176.774 108.274C175.479 106.814 173.488 105.848 171.38 105.626ZM218.131 152.101L199.992 132.693L213.368 115.281C216.018 111.831 212.664 107.037 207.493 106.494C207.248 106.468 206.998 106.452 206.738 106.445C204.882 106.401 203.184 106.954 202 107.952L197.967 111.352C199.151 110.354 200.849 109.801 202.706 109.845C202.958 109.852 203.21 109.868 203.46 109.894C208.63 110.438 211.986 115.232 209.335 118.681L195.959 136.093L214.099 155.501C216.371 157.934 216.012 160.849 213.968 162.571L218.001 159.172C220.044 157.448 220.404 154.534 218.131 152.101Z" fill="#AC3A99"/>
</g>
<path d="M203.46 109.894C208.63 110.437 211.985 115.231 209.335 118.681L195.959 136.092L214.098 155.501C217.617 159.267 214.826 164.187 209.247 164.054L208.736 164.041C208.499 164.035 208.262 164.02 208.026 163.995C205.938 163.776 203.963 162.824 202.666 161.387L187.9 145.011L176.321 160.769C175.196 162.299 173.114 163.187 170.778 163.131C170.528 163.125 170.279 163.109 170.03 163.083C164.858 162.539 161.503 157.743 164.158 154.292L178.375 135.826L161.295 117.517C157.782 113.752 160.572 108.837 166.149 108.969L166.641 108.98C166.878 108.986 167.113 109.002 167.348 109.026C169.455 109.248 171.447 110.214 172.742 111.674L186.345 126.981L197.155 112.216C198.28 110.681 200.367 109.789 202.705 109.845C202.958 109.851 203.209 109.868 203.46 109.894ZM136.273 231.875C133.681 238.033 113.912 292.477 120.07 315.81H127.523C127.523 315.81 147.94 251.32 147.94 250.023C147.94 257.153 150.532 309.653 152.477 315.81C156.366 316.459 161.875 315.81 161.875 315.81C161.875 315.81 164.792 243.542 162.847 231.551C152.477 230.255 136.273 231.875 136.273 231.875Z" fill="#AC3A99"/>
<path d="M162.339 232.483L135.771 233.918C134.852 233.968 134.411 232.807 135.132 232.234C135.519 231.926 135.748 231.465 135.782 230.971C135.825 230.345 136.034 229.86 136.721 229.823L162.121 228.45C162.969 228.405 162.925 228.99 162.945 229.794C162.949 229.969 163.023 230.137 163.15 230.258C163.613 230.698 163.737 231.423 163.371 231.946C163.153 232.258 162.81 232.458 162.339 232.483Z" fill="#AC3A99"/>
<path opacity="0.09" d="M162.339 232.483L135.771 233.918C134.852 233.968 134.411 232.807 135.132 232.234C135.519 231.926 135.748 231.465 135.782 230.971C135.825 230.345 136.034 229.86 136.721 229.823L162.121 228.45C162.969 228.405 162.925 228.99 162.945 229.794C162.949 229.969 163.023 230.137 163.15 230.258C163.613 230.698 163.737 231.423 163.371 231.946C163.153 232.258 162.81 232.458 162.339 232.483Z" fill="#070707"/>
<path d="M157.927 185.485L174.838 160.255L178.079 162.199L158.796 197.685C158.796 197.685 161.052 208.036 161.551 211.782C161.908 214.458 163.443 216.839 164.75 218.979C166.314 221.538 166.253 224.775 164.586 227.267C163.527 228.849 162.523 230.255 162.523 230.255C158.958 230.579 139.19 233.171 135.301 230.255C131.412 227.338 134.329 224.097 134.329 224.097C134.329 224.097 138.961 216.446 138.589 210.712C138.218 204.977 137.245 189.421 137.245 189.421L157.927 185.485Z" fill="#AC3A99"/>
<path d="M175.398 160.59L176.458 158.958C176.458 158.958 175.162 155.069 175.486 154.097C175.81 154.097 176.782 155.718 177.106 156.042C177.373 154.975 177.859 152.592 177.842 151.42C177.838 151.079 178.21 150.864 178.493 151.054C179.26 151.571 180.295 152.84 180.995 153.773C181.319 156.366 179.699 158.958 178.727 159.282C177.755 160.579 177.625 161.927 177.625 161.927L175.398 160.59ZM121.029 315.81L121.042 318.727H125.579V315.81H121.029ZM154.408 315.81L154.421 318.727H158.958V315.81H154.408Z" fill="#FFE3CA"/>
<path d="M160.903 325.532C160.903 325.795 160.316 326.031 159.441 326.21C157.059 326.689 152.538 326.715 151.829 325.532C151.385 324.794 151.884 323.121 152.558 321.527C153.358 319.628 154.408 317.832 154.408 317.832H158.958C159.931 320.023 160.903 324.56 160.903 325.532ZM128.171 325.532C128.171 325.834 127.296 326.096 126.062 326.268C123.32 326.647 118.796 326.573 118.125 325.455C117.707 324.758 118.125 323.241 118.738 321.738C119.548 319.738 120.705 317.755 120.705 317.755H125.255C126.227 319.945 128.171 324.56 128.171 325.532Z" fill="#0E538C"/>
<path d="M126.062 326.268C123.32 326.647 118.796 326.573 118.125 325.455C117.707 324.758 118.125 323.241 118.738 321.738C119.428 321.365 120.212 321.157 121.042 321.157C123.79 321.157 126.026 323.439 126.062 326.268ZM159.441 326.21C157.059 326.689 152.538 326.715 151.829 325.532C151.385 324.794 151.884 323.121 152.558 321.527C153.135 321.287 153.763 321.157 154.421 321.157C157.153 321.157 159.373 323.407 159.441 326.21Z" fill="#4898F3" fill-opacity="0.729412"/>
<path d="M156.204 174.838C156.204 178.524 155.765 181.12 152.801 181.12C149.837 181.12 145.995 178.393 145.995 174.707C145.995 171.021 148.398 168.032 151.361 168.032C154.325 168.032 156.204 171.152 156.204 174.838Z" fill="#FFE3CA"/>
<path d="M151.829 170.625C155.394 169.977 160.579 164.144 155.718 161.875C150.856 159.606 141.782 158.958 137.894 165.116C134.005 171.273 138.866 176.134 139.514 179.375C140.162 182.616 137.407 185.046 133.519 188.287C129.63 191.528 123.958 204.329 133.681 208.866C143.403 213.403 158.958 209.838 159.931 195.255C160.903 180.671 147.94 178.727 147.94 177.431C147.94 176.134 151.829 170.625 151.829 170.625Z" fill="#0E538C"/>
<path d="M149.892 175.504C150.803 175.243 151.261 174.047 150.913 172.832C150.566 171.617 149.545 170.843 148.634 171.104C147.722 171.364 147.265 172.561 147.613 173.776C147.96 174.991 148.981 175.765 149.892 175.504Z" fill="#FFE3CA"/>
<path d="M296.477 73.6632V81.1937H70V77.5833V74.0833C70 71.0581 72.1655 68.8333 75.1562 68.8333H292.393C295.384 68.8333 296.477 70.638 296.477 73.6632ZM149.726 97.6229H80.9568C79.6385 97.6229 78.5598 96.5318 78.5598 95.1983V93.6912C78.5598 92.3577 79.6385 91.2666 80.9568 91.2666H149.726C151.044 91.2666 152.123 92.3577 152.123 93.6912V95.1983C152.123 96.5318 151.044 97.6229 149.726 97.6229ZM130.474 107.838H80.6128C79.4837 107.838 78.5598 106.904 78.5598 105.761V103.559C78.5598 102.417 79.4837 101.482 80.6128 101.482H130.474C131.604 101.482 132.527 102.417 132.527 103.559V105.761C132.527 106.904 131.604 107.838 130.474 107.838ZM135.834 117.911H80.7143C79.5293 117.911 78.5598 116.93 78.5598 115.732V113.734C78.5598 112.535 79.5293 111.555 80.7143 111.555H135.834C137.019 111.555 137.989 112.535 137.989 113.734V115.732C137.988 116.93 137.019 117.911 135.834 117.911ZM288.006 211.167H252.67C250.55 211.167 248.815 209.412 248.815 207.267V176.399C248.815 174.254 250.55 172.5 252.67 172.5H288.006C290.126 172.5 291.861 174.254 291.861 176.399V207.267C291.861 209.412 290.126 211.167 288.006 211.167Z" fill="#0977F5"/>
<path opacity="0.2" d="M154.628 93.8395H85.2516C83.9216 93.8395 82.8334 92.7513 82.8334 91.4213V89.9182C82.8334 88.5882 83.9216 87.5 85.2516 87.5H154.628C155.958 87.5 157.047 88.5882 157.047 89.9182V91.4213C157.046 92.7513 155.958 93.8395 154.628 93.8395ZM135.207 104.028H84.9045C83.7654 104.028 82.8334 103.096 82.8334 101.957V99.7597C82.8334 98.6206 83.7654 97.6886 84.9045 97.6886H135.207C136.346 97.6886 137.278 98.6206 137.278 99.7597V101.957C137.278 103.096 136.346 104.028 135.207 104.028ZM140.614 114.074H85.0069C83.8114 114.074 82.8334 113.096 82.8334 111.901V109.908C82.8334 108.713 83.8114 107.735 85.0069 107.735H140.614C141.809 107.735 142.787 108.713 142.787 109.908V111.901C142.787 113.096 141.809 114.074 140.614 114.074ZM294.13 207.083H258.482C256.343 207.083 254.593 205.333 254.593 203.194V172.407C254.593 170.269 256.343 168.519 258.482 168.519H294.13C296.269 168.519 298.019 170.269 298.019 172.407V203.194C298.019 205.333 296.269 207.083 294.13 207.083Z" fill="white"/>
</svg>
