<svg width="195" height="85" viewBox="0 0 195 85" fill="none" xmlns="http://www.w3.org/2000/svg">
<path d="M27.9385 54.1489L6.40381 30.3804H6.31445C6.35417 32.6242 6.39388 34.6694 6.43359 36.5161C6.45345 37.3104 6.46338 38.1047 6.46338 38.8989C6.48324 39.6733 6.49316 40.3882 6.49316 41.0435C6.51302 41.6987 6.52295 42.2646 6.52295 42.7412C6.54281 43.2178 6.55273 43.5454 6.55273 43.7241V54H3.8125V23.2915H5.62939L27.1938 47.0005H27.2236C27.1839 44.9155 27.1541 42.9795 27.1343 41.1924C27.1343 40.4378 27.1243 39.6733 27.1045 38.8989C27.1045 38.1245 27.0946 37.3997 27.0747 36.7246C27.0747 36.0296 27.0747 35.4141 27.0747 34.8779C27.0747 34.3418 27.0747 33.9248 27.0747 33.627V23.5298H29.8149V54.1489H27.9385ZM135.463 54.1489L113.928 30.3804H113.839C113.879 32.6242 113.918 34.6694 113.958 36.5161C113.978 37.3104 113.988 38.1047 113.988 38.8989C114.008 39.6733 114.018 40.3882 114.018 41.0435C114.037 41.6987 114.047 42.2646 114.047 42.7412C114.067 43.2178 114.077 43.5454 114.077 43.7241V54H111.337V23.2915H113.154L134.718 47.0005H134.748C134.708 44.9155 134.679 42.9795 134.659 41.1924C134.659 40.4378 134.649 39.6733 134.629 38.8989C134.629 38.1245 134.619 37.3997 134.599 36.7246C134.599 36.0296 134.599 35.4141 134.599 34.8779C134.599 34.3418 134.599 33.9248 134.599 33.627V23.5298H137.339V54.1489H135.463ZM191.578 38.6309C191.578 41.0534 191.26 43.2376 190.625 45.1836C190.009 47.1296 189.086 48.7876 187.855 50.1577C186.624 51.5278 185.075 52.5802 183.208 53.3149C181.362 54.0496 179.207 54.417 176.745 54.417C174.243 54.417 172.089 54.0397 170.282 53.2852C168.475 52.5306 166.995 51.4683 165.844 50.0981C164.692 48.7082 163.838 47.0501 163.282 45.124C162.746 43.1781 162.478 41.0137 162.478 38.6309C162.478 36.248 162.756 34.1035 163.312 32.1973C163.868 30.291 164.732 28.6727 165.903 27.3423C167.075 25.992 168.564 24.9595 170.371 24.2446C172.178 23.5298 174.323 23.1724 176.805 23.1724C179.267 23.1724 181.421 23.5298 183.268 24.2446C185.115 24.9595 186.654 25.992 187.885 27.3423C189.116 28.6727 190.039 30.291 190.655 32.1973C191.27 34.1035 191.578 36.248 191.578 38.6309ZM187.14 38.6309C187.14 36.6849 186.942 34.9077 186.544 33.2993C186.147 31.6909 185.522 30.3109 184.668 29.1592C183.834 28.0075 182.762 27.1139 181.451 26.4785C180.16 25.8431 178.612 25.5254 176.805 25.5254C175.236 25.5254 173.777 25.6942 172.426 26.0317C171.076 26.3693 170.004 26.8757 169.209 27.5508C168.773 27.9281 168.405 28.484 168.107 29.2188C167.81 29.9535 167.571 30.8172 167.393 31.8101C167.214 32.783 167.085 33.8553 167.005 35.0269C166.926 36.1785 166.886 37.3799 166.886 38.6309C166.886 40.557 167.045 42.3441 167.363 43.9922C167.7 45.6204 168.246 47.0303 169.001 48.2217C169.756 49.4131 170.758 50.3464 172.009 51.0215C173.28 51.6966 174.859 52.0342 176.745 52.0342C178.552 52.0342 180.081 51.8753 181.332 51.5576C182.603 51.2201 183.735 50.6243 184.728 49.7705C185.164 49.4131 185.532 48.8571 185.83 48.1025C186.127 47.3281 186.376 46.4445 186.574 45.4517C186.773 44.439 186.912 43.3468 186.991 42.1753C187.09 41.0037 187.14 39.8223 187.14 38.6309Z" fill="white"/>
<ellipse cx="69.5" cy="34" rx="7.5" ry="7" fill="white"/>
<ellipse cx="59.5" cy="55" rx="6.5" ry="6" fill="white"/>
<circle cx="83.5" cy="54.5" r="7.5" fill="white"/>
<line x1="79.316" y1="49.4209" x2="72.316" y2="40.4209" stroke="white" stroke-width="3"/>
<line x1="60.5903" y1="49.9874" x2="64.5903" y2="38.9874" stroke="white" stroke-width="3"/>
<path d="M50.7393 74V66.4048L48.1245 66.3633L48.2075 65.5H55.0889L55.0059 66.3384L52.4741 66.4048V74H50.7393ZM66.4858 74H61.3643V65.5H66.3032L66.2202 66.3633L63.0991 66.4048V69.1689L66.0376 69.2021L65.9546 69.9907L63.0991 70.0571V73.0952L66.5688 73.1616L66.4858 74ZM76.5298 74.1162C75.8657 74.1162 75.2985 74.0111 74.8281 73.8008C74.3633 73.585 73.9842 73.2834 73.6909 72.896C73.4032 72.5031 73.1929 72.0355 73.0601 71.4932C72.9272 70.9508 72.8608 70.3477 72.8608 69.6836C72.8608 69.1468 72.9245 68.6681 73.0518 68.2476C73.1846 67.827 73.3617 67.459 73.583 67.1436C73.8044 66.8226 74.0617 66.5514 74.355 66.3301C74.6538 66.1087 74.9665 65.9289 75.293 65.7905C75.6195 65.6522 75.9543 65.5526 76.2974 65.4917C76.6405 65.4308 76.9725 65.4004 77.2935 65.4004C77.4927 65.4004 77.703 65.4087 77.9243 65.4253C78.1512 65.4364 78.3698 65.453 78.5801 65.4751C78.7904 65.4917 78.9868 65.5138 79.1694 65.5415C79.3521 65.5692 79.5015 65.5968 79.6177 65.6245L79.2939 66.8364C79.1777 66.8032 79.0117 66.7645 78.7959 66.7202C78.5856 66.6759 78.3587 66.6372 78.1152 66.604C77.8717 66.5653 77.631 66.5348 77.3931 66.5127C77.1606 66.485 76.9642 66.4712 76.8037 66.4712C76.6266 66.4712 76.4717 66.4767 76.3389 66.4878C76.2061 66.4989 76.0843 66.5182 75.9736 66.5459C75.863 66.5736 75.755 66.6123 75.6499 66.6621C75.5503 66.7064 75.4479 66.7673 75.3428 66.8447C75.0771 67.0218 74.8973 67.3621 74.8032 67.8657C74.7147 68.3638 74.6704 68.9836 74.6704 69.7251C74.6704 70.8595 74.8475 71.7228 75.2017 72.3149C75.5558 72.9015 76.1286 73.1948 76.9199 73.1948C77.1413 73.1948 77.3709 73.1865 77.6089 73.1699C77.8468 73.1533 78.082 73.1284 78.3145 73.0952C78.5524 73.062 78.7821 73.0205 79.0034 72.9707C79.2303 72.9209 79.4434 72.8628 79.6426 72.7964V73.502C79.4212 73.6016 79.1805 73.6901 78.9204 73.7676C78.6659 73.8395 78.403 73.9032 78.1318 73.9585C77.8607 74.0083 77.5895 74.047 77.3184 74.0747C77.0472 74.1024 76.7843 74.1162 76.5298 74.1162ZM91.8613 74V70.1733H88.0181V74H86.2832V65.5H88.0181V69.2188H91.8613V65.5H93.5962V74H91.8613Z" fill="white"/>
<path d="M114.63 71.0957C114.083 71.0957 113.616 71.0091 113.229 70.8359C112.846 70.6582 112.534 70.4098 112.292 70.0908C112.055 69.7673 111.882 69.3822 111.772 68.9355C111.663 68.4889 111.608 67.9922 111.608 67.4453C111.608 67.0033 111.661 66.609 111.766 66.2627C111.875 65.9163 112.021 65.6133 112.203 65.3535C112.385 65.0892 112.597 64.8659 112.839 64.6836C113.085 64.5013 113.342 64.3532 113.611 64.2393C113.88 64.1253 114.156 64.0433 114.438 63.9932C114.721 63.943 114.994 63.918 115.259 63.918C115.423 63.918 115.596 63.9248 115.778 63.9385C115.965 63.9476 116.145 63.9613 116.318 63.9795C116.492 63.9932 116.653 64.0114 116.804 64.0342C116.954 64.057 117.077 64.0798 117.173 64.1025L116.906 65.1006C116.811 65.0732 116.674 65.0413 116.496 65.0049C116.323 64.9684 116.136 64.9365 115.936 64.9092C115.735 64.8773 115.537 64.8522 115.341 64.834C115.149 64.8112 114.988 64.7998 114.855 64.7998C114.71 64.7998 114.582 64.8044 114.473 64.8135C114.363 64.8226 114.263 64.8385 114.172 64.8613C114.081 64.8841 113.992 64.916 113.905 64.957C113.823 64.9935 113.739 65.0436 113.652 65.1074C113.434 65.2533 113.285 65.5335 113.208 65.9482C113.135 66.3584 113.099 66.8688 113.099 67.4795C113.099 68.4137 113.244 69.1247 113.536 69.6123C113.828 70.0954 114.299 70.3369 114.951 70.3369C115.133 70.3369 115.323 70.3301 115.519 70.3164C115.715 70.3027 115.908 70.2822 116.1 70.2549C116.296 70.2275 116.485 70.1934 116.667 70.1523C116.854 70.1113 117.029 70.0635 117.193 70.0088V70.5898C117.011 70.6719 116.813 70.7448 116.599 70.8086C116.389 70.8678 116.173 70.9202 115.949 70.9658C115.726 71.0068 115.503 71.0387 115.279 71.0615C115.056 71.0843 114.84 71.0957 114.63 71.0957ZM127.29 67.4727C127.29 68.0286 127.215 68.5299 127.064 68.9766C126.919 69.4232 126.698 69.8037 126.401 70.1182C126.105 70.4326 125.736 70.6742 125.294 70.8428C124.852 71.0114 124.337 71.0957 123.749 71.0957C123.147 71.0957 122.632 71.0091 122.204 70.8359C121.776 70.6628 121.423 70.4189 121.145 70.1045C120.867 69.7855 120.661 69.4049 120.529 68.9629C120.402 68.5163 120.338 68.0195 120.338 67.4727C120.338 66.9258 120.404 66.4336 120.536 65.9961C120.673 65.5586 120.88 65.1872 121.158 64.8818C121.436 64.5719 121.789 64.335 122.218 64.1709C122.651 64.0068 123.166 63.9248 123.763 63.9248C124.351 63.9248 124.863 64.0068 125.301 64.1709C125.743 64.335 126.11 64.5719 126.401 64.8818C126.698 65.1872 126.919 65.5586 127.064 65.9961C127.215 66.4336 127.29 66.9258 127.29 67.4727ZM125.786 67.4795C125.786 67.0511 125.747 66.6683 125.67 66.3311C125.592 65.9938 125.472 65.7067 125.308 65.4697C125.144 65.2327 124.934 65.0527 124.679 64.9297C124.424 64.8021 124.118 64.7383 123.763 64.7383C123.453 64.7383 123.163 64.7702 122.895 64.834C122.63 64.8978 122.421 64.9889 122.266 65.1074C122.111 65.2259 121.997 65.4834 121.924 65.8799C121.855 66.2718 121.821 66.805 121.821 67.4795C121.821 67.8988 121.853 68.2793 121.917 68.6211C121.981 68.9629 122.086 69.2568 122.231 69.5029C122.382 69.749 122.58 69.9404 122.826 70.0771C123.072 70.2093 123.38 70.2754 123.749 70.2754C124.127 70.2754 124.439 70.2435 124.686 70.1797C124.936 70.1113 125.146 70.0225 125.314 69.9131C125.392 69.863 125.46 69.7627 125.52 69.6123C125.579 69.4574 125.627 69.2705 125.663 69.0518C125.704 68.833 125.734 68.5892 125.752 68.3203C125.775 68.0469 125.786 67.7666 125.786 67.4795ZM135.076 68.9492C135.076 69.2044 135.01 69.4596 134.878 69.7148C134.75 69.9701 134.566 70.2002 134.324 70.4053C134.087 70.6104 133.8 70.7767 133.463 70.9043C133.126 71.0319 132.747 71.0957 132.328 71.0957C132.1 71.0957 131.891 71.0843 131.699 71.0615C131.512 71.0387 131.335 71.0046 131.166 70.959C130.997 70.9134 130.836 70.861 130.681 70.8018C130.526 70.738 130.371 70.6673 130.216 70.5898L130.564 69.5508C130.665 69.6191 130.799 69.6921 130.968 69.7695C131.141 69.8424 131.323 69.9108 131.515 69.9746C131.711 70.0384 131.909 70.0931 132.109 70.1387C132.31 70.1797 132.492 70.2002 132.656 70.2002C133.035 70.2002 133.319 70.1592 133.511 70.0771C133.616 70.0316 133.7 69.929 133.764 69.7695C133.832 69.61 133.866 69.4004 133.866 69.1406C133.866 68.9583 133.816 68.8079 133.716 68.6895C133.62 68.5664 133.493 68.4593 133.333 68.3682C133.174 68.277 132.991 68.195 132.786 68.1221C132.581 68.0492 132.371 67.9717 132.157 67.8896C131.948 67.8076 131.74 67.7142 131.535 67.6094C131.33 67.5 131.148 67.3678 130.988 67.2129C130.829 67.0534 130.699 66.8643 130.599 66.6455C130.503 66.4222 130.455 66.1533 130.455 65.8389C130.455 65.6338 130.51 65.4173 130.619 65.1895C130.733 64.9616 130.897 64.7542 131.111 64.5674C131.326 64.3805 131.588 64.2256 131.897 64.1025C132.212 63.9795 132.57 63.918 132.971 63.918C133.294 63.918 133.602 63.9339 133.894 63.9658C134.19 63.9977 134.477 64.0387 134.755 64.0889L134.536 65.1279C134.404 65.0824 134.256 65.0391 134.092 64.998C133.932 64.957 133.768 64.9229 133.6 64.8955C133.431 64.8636 133.267 64.8385 133.107 64.8203C132.948 64.8021 132.807 64.793 132.684 64.793C132.551 64.793 132.412 64.8021 132.267 64.8203C132.125 64.834 132.009 64.8659 131.918 64.916C131.827 64.9661 131.761 65.0527 131.72 65.1758C131.679 65.2988 131.658 65.4469 131.658 65.6201C131.658 65.7979 131.706 65.946 131.802 66.0645C131.902 66.1829 132.032 66.2855 132.191 66.3721C132.351 66.4587 132.533 66.5384 132.738 66.6113C132.943 66.6842 133.153 66.764 133.367 66.8506C133.581 66.9326 133.791 67.0283 133.996 67.1377C134.201 67.2425 134.383 67.377 134.543 67.541C134.702 67.7005 134.83 67.8942 134.926 68.1221C135.026 68.3499 135.076 68.6257 135.076 68.9492ZM139.779 71V64.7451L137.626 64.7109L137.694 64H143.361L143.293 64.6904L141.208 64.7451V71H139.779ZM153.643 71L153.068 65.6611L150.553 71H150.115L147.47 65.6611L146.998 71H146.171L146.889 63.9521H148.215L150.669 68.915L153.014 63.9521H154.306L155.085 71H153.643ZM162.823 71H158.605V64H162.673L162.604 64.7109L160.034 64.7451V67.0215L162.454 67.0488L162.386 67.6982L160.034 67.7529V70.2549L162.892 70.3096L162.823 71ZM167.602 71V64.7451L165.448 64.7109L165.517 64H171.184L171.115 64.6904L169.03 64.7451V71H167.602ZM175.661 71H174.232V64H175.661V71ZM182.237 71.0957C181.69 71.0957 181.223 71.0091 180.836 70.8359C180.453 70.6582 180.141 70.4098 179.899 70.0908C179.662 69.7673 179.489 69.3822 179.38 68.9355C179.271 68.4889 179.216 67.9922 179.216 67.4453C179.216 67.0033 179.268 66.609 179.373 66.2627C179.482 65.9163 179.628 65.6133 179.811 65.3535C179.993 65.0892 180.205 64.8659 180.446 64.6836C180.692 64.5013 180.95 64.3532 181.219 64.2393C181.488 64.1253 181.763 64.0433 182.046 63.9932C182.328 63.943 182.602 63.918 182.866 63.918C183.03 63.918 183.203 63.9248 183.386 63.9385C183.573 63.9476 183.753 63.9613 183.926 63.9795C184.099 63.9932 184.261 64.0114 184.411 64.0342C184.562 64.057 184.685 64.0798 184.78 64.1025L184.514 65.1006C184.418 65.0732 184.281 65.0413 184.104 65.0049C183.93 64.9684 183.743 64.9365 183.543 64.9092C183.342 64.8773 183.144 64.8522 182.948 64.834C182.757 64.8112 182.595 64.7998 182.463 64.7998C182.317 64.7998 182.189 64.8044 182.08 64.8135C181.971 64.8226 181.87 64.8385 181.779 64.8613C181.688 64.8841 181.599 64.916 181.513 64.957C181.431 64.9935 181.346 65.0436 181.26 65.1074C181.041 65.2533 180.893 65.5335 180.815 65.9482C180.743 66.3584 180.706 66.8688 180.706 67.4795C180.706 68.4137 180.852 69.1247 181.144 69.6123C181.435 70.0954 181.907 70.3369 182.559 70.3369C182.741 70.3369 182.93 70.3301 183.126 70.3164C183.322 70.3027 183.516 70.2822 183.707 70.2549C183.903 70.2275 184.092 70.1934 184.274 70.1523C184.461 70.1113 184.637 70.0635 184.801 70.0088V70.5898C184.618 70.6719 184.42 70.7448 184.206 70.8086C183.996 70.8678 183.78 70.9202 183.557 70.9658C183.333 71.0068 183.11 71.0387 182.887 71.0615C182.663 71.0843 182.447 71.0957 182.237 71.0957Z" fill="white"/>
</svg>
