<svg width="194" height="85" viewBox="0 0 194 85" fill="none" xmlns="http://www.w3.org/2000/svg">
<path d="M27.9385 47.1489L6.40381 23.3804H6.31445C6.35417 25.6242 6.39388 27.6694 6.43359 29.5161C6.45345 30.3104 6.46338 31.1047 6.46338 31.8989C6.48324 32.6733 6.49316 33.3882 6.49316 34.0435C6.51302 34.6987 6.52295 35.2646 6.52295 35.7412C6.54281 36.2178 6.55273 36.5454 6.55273 36.7241V47H3.8125V16.2915H5.62939L27.1938 40.0005H27.2236C27.1839 37.9155 27.1541 35.9795 27.1343 34.1924C27.1343 33.4378 27.1243 32.6733 27.1045 31.8989C27.1045 31.1245 27.0946 30.3997 27.0747 29.7246C27.0747 29.0296 27.0747 28.4141 27.0747 27.8779C27.0747 27.3418 27.0747 26.9248 27.0747 26.627V16.5298H29.8149V47.1489H27.9385ZM135.463 47.1489L113.928 23.3804H113.839C113.879 25.6242 113.918 27.6694 113.958 29.5161C113.978 30.3104 113.988 31.1047 113.988 31.8989C114.008 32.6733 114.018 33.3882 114.018 34.0435C114.037 34.6987 114.047 35.2646 114.047 35.7412C114.067 36.2178 114.077 36.5454 114.077 36.7241V47H111.337V16.2915H113.154L134.718 40.0005H134.748C134.708 37.9155 134.679 35.9795 134.659 34.1924C134.659 33.4378 134.649 32.6733 134.629 31.8989C134.629 31.1245 134.619 30.3997 134.599 29.7246C134.599 29.0296 134.599 28.4141 134.599 27.8779C134.599 27.3418 134.599 26.9248 134.599 26.627V16.5298H137.339V47.1489H135.463ZM191.578 31.6309C191.578 34.0534 191.26 36.2376 190.625 38.1836C190.009 40.1296 189.086 41.7876 187.855 43.1577C186.624 44.5278 185.075 45.5802 183.208 46.3149C181.362 47.0496 179.207 47.417 176.745 47.417C174.243 47.417 172.089 47.0397 170.282 46.2852C168.475 45.5306 166.995 44.4683 165.844 43.0981C164.692 41.7082 163.838 40.0501 163.282 38.124C162.746 36.1781 162.478 34.0137 162.478 31.6309C162.478 29.248 162.756 27.1035 163.312 25.1973C163.868 23.291 164.732 21.6727 165.903 20.3423C167.075 18.992 168.564 17.9595 170.371 17.2446C172.178 16.5298 174.323 16.1724 176.805 16.1724C179.267 16.1724 181.421 16.5298 183.268 17.2446C185.115 17.9595 186.654 18.992 187.885 20.3423C189.116 21.6727 190.039 23.291 190.655 25.1973C191.27 27.1035 191.578 29.248 191.578 31.6309ZM187.14 31.6309C187.14 29.6849 186.942 27.9077 186.544 26.2993C186.147 24.6909 185.522 23.3109 184.668 22.1592C183.834 21.0075 182.762 20.1139 181.451 19.4785C180.16 18.8431 178.612 18.5254 176.805 18.5254C175.236 18.5254 173.777 18.6942 172.426 19.0317C171.076 19.3693 170.004 19.8757 169.209 20.5508C168.773 20.9281 168.405 21.484 168.107 22.2188C167.81 22.9535 167.571 23.8172 167.393 24.8101C167.214 25.783 167.085 26.8553 167.005 28.0269C166.926 29.1785 166.886 30.3799 166.886 31.6309C166.886 33.557 167.045 35.3441 167.363 36.9922C167.7 38.6204 168.246 40.0303 169.001 41.2217C169.756 42.4131 170.758 43.3464 172.009 44.0215C173.28 44.6966 174.859 45.0342 176.745 45.0342C178.552 45.0342 180.081 44.8753 181.332 44.5576C182.603 44.2201 183.735 43.6243 184.728 42.7705C185.164 42.4131 185.532 41.8571 185.83 41.1025C186.127 40.3281 186.376 39.4445 186.574 38.4517C186.773 37.439 186.912 36.3468 186.991 35.1753C187.09 34.0037 187.14 32.8223 187.14 31.6309Z" fill="#727171"/>
<path d="M76.5 27C76.5 30.5579 73.399 33.5 69.5 33.5C65.601 33.5 62.5 30.5579 62.5 27C62.5 23.4421 65.601 20.5 69.5 20.5C73.399 20.5 76.5 23.4421 76.5 27Z" fill="white" stroke="#727171"/>
<path d="M65.5 48C65.5 51.0006 62.8521 53.5 59.5 53.5C56.1479 53.5 53.5 51.0006 53.5 48C53.5 44.9994 56.1479 42.5 59.5 42.5C62.8521 42.5 65.5 44.9994 65.5 48Z" fill="white" stroke="#727171"/>
<circle cx="83.5" cy="47.5" r="7" fill="white" stroke="#727171"/>
<line x1="79.316" y1="42.4209" x2="72.316" y2="33.4209" stroke="#727171" stroke-width="3"/>
<line x1="60.5903" y1="42.9874" x2="64.5903" y2="31.9874" stroke="#727171" stroke-width="3"/>
<path d="M50.7393 67V59.4048L48.1245 59.3633L48.2075 58.5H55.0889L55.0059 59.3384L52.4741 59.4048V67H50.7393ZM66.4858 67H61.3643V58.5H66.3032L66.2202 59.3633L63.0991 59.4048V62.1689L66.0376 62.2021L65.9546 62.9907L63.0991 63.0571V66.0952L66.5688 66.1616L66.4858 67ZM76.5298 67.1162C75.8657 67.1162 75.2985 67.0111 74.8281 66.8008C74.3633 66.585 73.9842 66.2834 73.6909 65.896C73.4032 65.5031 73.1929 65.0355 73.0601 64.4932C72.9272 63.9508 72.8608 63.3477 72.8608 62.6836C72.8608 62.1468 72.9245 61.6681 73.0518 61.2476C73.1846 60.827 73.3617 60.459 73.583 60.1436C73.8044 59.8226 74.0617 59.5514 74.355 59.3301C74.6538 59.1087 74.9665 58.9289 75.293 58.7905C75.6195 58.6522 75.9543 58.5526 76.2974 58.4917C76.6405 58.4308 76.9725 58.4004 77.2935 58.4004C77.4927 58.4004 77.703 58.4087 77.9243 58.4253C78.1512 58.4364 78.3698 58.453 78.5801 58.4751C78.7904 58.4917 78.9868 58.5138 79.1694 58.5415C79.3521 58.5692 79.5015 58.5968 79.6177 58.6245L79.2939 59.8364C79.1777 59.8032 79.0117 59.7645 78.7959 59.7202C78.5856 59.6759 78.3587 59.6372 78.1152 59.604C77.8717 59.5653 77.631 59.5348 77.3931 59.5127C77.1606 59.485 76.9642 59.4712 76.8037 59.4712C76.6266 59.4712 76.4717 59.4767 76.3389 59.4878C76.2061 59.4989 76.0843 59.5182 75.9736 59.5459C75.863 59.5736 75.755 59.6123 75.6499 59.6621C75.5503 59.7064 75.4479 59.7673 75.3428 59.8447C75.0771 60.0218 74.8973 60.3621 74.8032 60.8657C74.7147 61.3638 74.6704 61.9836 74.6704 62.7251C74.6704 63.8595 74.8475 64.7228 75.2017 65.3149C75.5558 65.9015 76.1286 66.1948 76.9199 66.1948C77.1413 66.1948 77.3709 66.1865 77.6089 66.1699C77.8468 66.1533 78.082 66.1284 78.3145 66.0952C78.5524 66.062 78.7821 66.0205 79.0034 65.9707C79.2303 65.9209 79.4434 65.8628 79.6426 65.7964V66.502C79.4212 66.6016 79.1805 66.6901 78.9204 66.7676C78.6659 66.8395 78.403 66.9032 78.1318 66.9585C77.8607 67.0083 77.5895 67.047 77.3184 67.0747C77.0472 67.1024 76.7843 67.1162 76.5298 67.1162ZM91.8613 67V63.1733H88.0181V67H86.2832V58.5H88.0181V62.2188H91.8613V58.5H93.5962V67H91.8613Z" fill="#727171"/>
<path d="M114.63 64.0957C114.083 64.0957 113.616 64.0091 113.229 63.8359C112.846 63.6582 112.534 63.4098 112.292 63.0908C112.055 62.7673 111.882 62.3822 111.772 61.9355C111.663 61.4889 111.608 60.9922 111.608 60.4453C111.608 60.0033 111.661 59.609 111.766 59.2627C111.875 58.9163 112.021 58.6133 112.203 58.3535C112.385 58.0892 112.597 57.8659 112.839 57.6836C113.085 57.5013 113.342 57.3532 113.611 57.2393C113.88 57.1253 114.156 57.0433 114.438 56.9932C114.721 56.943 114.994 56.918 115.259 56.918C115.423 56.918 115.596 56.9248 115.778 56.9385C115.965 56.9476 116.145 56.9613 116.318 56.9795C116.492 56.9932 116.653 57.0114 116.804 57.0342C116.954 57.057 117.077 57.0798 117.173 57.1025L116.906 58.1006C116.811 58.0732 116.674 58.0413 116.496 58.0049C116.323 57.9684 116.136 57.9365 115.936 57.9092C115.735 57.8773 115.537 57.8522 115.341 57.834C115.149 57.8112 114.988 57.7998 114.855 57.7998C114.71 57.7998 114.582 57.8044 114.473 57.8135C114.363 57.8226 114.263 57.8385 114.172 57.8613C114.081 57.8841 113.992 57.916 113.905 57.957C113.823 57.9935 113.739 58.0436 113.652 58.1074C113.434 58.2533 113.285 58.5335 113.208 58.9482C113.135 59.3584 113.099 59.8688 113.099 60.4795C113.099 61.4137 113.244 62.1247 113.536 62.6123C113.828 63.0954 114.299 63.3369 114.951 63.3369C115.133 63.3369 115.323 63.3301 115.519 63.3164C115.715 63.3027 115.908 63.2822 116.1 63.2549C116.296 63.2275 116.485 63.1934 116.667 63.1523C116.854 63.1113 117.029 63.0635 117.193 63.0088V63.5898C117.011 63.6719 116.813 63.7448 116.599 63.8086C116.389 63.8678 116.173 63.9202 115.949 63.9658C115.726 64.0068 115.503 64.0387 115.279 64.0615C115.056 64.0843 114.84 64.0957 114.63 64.0957ZM127.29 60.4727C127.29 61.0286 127.215 61.5299 127.064 61.9766C126.919 62.4232 126.698 62.8037 126.401 63.1182C126.105 63.4326 125.736 63.6742 125.294 63.8428C124.852 64.0114 124.337 64.0957 123.749 64.0957C123.147 64.0957 122.632 64.0091 122.204 63.8359C121.776 63.6628 121.423 63.4189 121.145 63.1045C120.867 62.7855 120.661 62.4049 120.529 61.9629C120.402 61.5163 120.338 61.0195 120.338 60.4727C120.338 59.9258 120.404 59.4336 120.536 58.9961C120.673 58.5586 120.88 58.1872 121.158 57.8818C121.436 57.5719 121.789 57.335 122.218 57.1709C122.651 57.0068 123.166 56.9248 123.763 56.9248C124.351 56.9248 124.863 57.0068 125.301 57.1709C125.743 57.335 126.11 57.5719 126.401 57.8818C126.698 58.1872 126.919 58.5586 127.064 58.9961C127.215 59.4336 127.29 59.9258 127.29 60.4727ZM125.786 60.4795C125.786 60.0511 125.747 59.6683 125.67 59.3311C125.592 58.9938 125.472 58.7067 125.308 58.4697C125.144 58.2327 124.934 58.0527 124.679 57.9297C124.424 57.8021 124.118 57.7383 123.763 57.7383C123.453 57.7383 123.163 57.7702 122.895 57.834C122.63 57.8978 122.421 57.9889 122.266 58.1074C122.111 58.2259 121.997 58.4834 121.924 58.8799C121.855 59.2718 121.821 59.805 121.821 60.4795C121.821 60.8988 121.853 61.2793 121.917 61.6211C121.981 61.9629 122.086 62.2568 122.231 62.5029C122.382 62.749 122.58 62.9404 122.826 63.0771C123.072 63.2093 123.38 63.2754 123.749 63.2754C124.127 63.2754 124.439 63.2435 124.686 63.1797C124.936 63.1113 125.146 63.0225 125.314 62.9131C125.392 62.863 125.46 62.7627 125.52 62.6123C125.579 62.4574 125.627 62.2705 125.663 62.0518C125.704 61.833 125.734 61.5892 125.752 61.3203C125.775 61.0469 125.786 60.7666 125.786 60.4795ZM135.076 61.9492C135.076 62.2044 135.01 62.4596 134.878 62.7148C134.75 62.9701 134.566 63.2002 134.324 63.4053C134.087 63.6104 133.8 63.7767 133.463 63.9043C133.126 64.0319 132.747 64.0957 132.328 64.0957C132.1 64.0957 131.891 64.0843 131.699 64.0615C131.512 64.0387 131.335 64.0046 131.166 63.959C130.997 63.9134 130.836 63.861 130.681 63.8018C130.526 63.738 130.371 63.6673 130.216 63.5898L130.564 62.5508C130.665 62.6191 130.799 62.6921 130.968 62.7695C131.141 62.8424 131.323 62.9108 131.515 62.9746C131.711 63.0384 131.909 63.0931 132.109 63.1387C132.31 63.1797 132.492 63.2002 132.656 63.2002C133.035 63.2002 133.319 63.1592 133.511 63.0771C133.616 63.0316 133.7 62.929 133.764 62.7695C133.832 62.61 133.866 62.4004 133.866 62.1406C133.866 61.9583 133.816 61.8079 133.716 61.6895C133.62 61.5664 133.493 61.4593 133.333 61.3682C133.174 61.277 132.991 61.195 132.786 61.1221C132.581 61.0492 132.371 60.9717 132.157 60.8896C131.948 60.8076 131.74 60.7142 131.535 60.6094C131.33 60.5 131.148 60.3678 130.988 60.2129C130.829 60.0534 130.699 59.8643 130.599 59.6455C130.503 59.4222 130.455 59.1533 130.455 58.8389C130.455 58.6338 130.51 58.4173 130.619 58.1895C130.733 57.9616 130.897 57.7542 131.111 57.5674C131.326 57.3805 131.588 57.2256 131.897 57.1025C132.212 56.9795 132.57 56.918 132.971 56.918C133.294 56.918 133.602 56.9339 133.894 56.9658C134.19 56.9977 134.477 57.0387 134.755 57.0889L134.536 58.1279C134.404 58.0824 134.256 58.0391 134.092 57.998C133.932 57.957 133.768 57.9229 133.6 57.8955C133.431 57.8636 133.267 57.8385 133.107 57.8203C132.948 57.8021 132.807 57.793 132.684 57.793C132.551 57.793 132.412 57.8021 132.267 57.8203C132.125 57.834 132.009 57.8659 131.918 57.916C131.827 57.9661 131.761 58.0527 131.72 58.1758C131.679 58.2988 131.658 58.4469 131.658 58.6201C131.658 58.7979 131.706 58.946 131.802 59.0645C131.902 59.1829 132.032 59.2855 132.191 59.3721C132.351 59.4587 132.533 59.5384 132.738 59.6113C132.943 59.6842 133.153 59.764 133.367 59.8506C133.581 59.9326 133.791 60.0283 133.996 60.1377C134.201 60.2425 134.383 60.377 134.543 60.541C134.702 60.7005 134.83 60.8942 134.926 61.1221C135.026 61.3499 135.076 61.6257 135.076 61.9492ZM139.779 64V57.7451L137.626 57.7109L137.694 57H143.361L143.293 57.6904L141.208 57.7451V64H139.779ZM153.643 64L153.068 58.6611L150.553 64H150.115L147.47 58.6611L146.998 64H146.171L146.889 56.9521H148.215L150.669 61.915L153.014 56.9521H154.306L155.085 64H153.643ZM162.823 64H158.605V57H162.673L162.604 57.7109L160.034 57.7451V60.0215L162.454 60.0488L162.386 60.6982L160.034 60.7529V63.2549L162.892 63.3096L162.823 64ZM167.602 64V57.7451L165.448 57.7109L165.517 57H171.184L171.115 57.6904L169.03 57.7451V64H167.602ZM175.661 64H174.232V57H175.661V64ZM182.237 64.0957C181.69 64.0957 181.223 64.0091 180.836 63.8359C180.453 63.6582 180.141 63.4098 179.899 63.0908C179.662 62.7673 179.489 62.3822 179.38 61.9355C179.271 61.4889 179.216 60.9922 179.216 60.4453C179.216 60.0033 179.268 59.609 179.373 59.2627C179.482 58.9163 179.628 58.6133 179.811 58.3535C179.993 58.0892 180.205 57.8659 180.446 57.6836C180.692 57.5013 180.95 57.3532 181.219 57.2393C181.488 57.1253 181.763 57.0433 182.046 56.9932C182.328 56.943 182.602 56.918 182.866 56.918C183.03 56.918 183.203 56.9248 183.386 56.9385C183.573 56.9476 183.753 56.9613 183.926 56.9795C184.099 56.9932 184.261 57.0114 184.411 57.0342C184.562 57.057 184.685 57.0798 184.78 57.1025L184.514 58.1006C184.418 58.0732 184.281 58.0413 184.104 58.0049C183.93 57.9684 183.743 57.9365 183.543 57.9092C183.342 57.8773 183.144 57.8522 182.948 57.834C182.757 57.8112 182.595 57.7998 182.463 57.7998C182.317 57.7998 182.189 57.8044 182.08 57.8135C181.971 57.8226 181.87 57.8385 181.779 57.8613C181.688 57.8841 181.599 57.916 181.513 57.957C181.431 57.9935 181.346 58.0436 181.26 58.1074C181.041 58.2533 180.893 58.5335 180.815 58.9482C180.743 59.3584 180.706 59.8688 180.706 60.4795C180.706 61.4137 180.852 62.1247 181.144 62.6123C181.435 63.0954 181.907 63.3369 182.559 63.3369C182.741 63.3369 182.93 63.3301 183.126 63.3164C183.322 63.3027 183.516 63.2822 183.707 63.2549C183.903 63.2275 184.092 63.1934 184.274 63.1523C184.461 63.1113 184.637 63.0635 184.801 63.0088V63.5898C184.618 63.6719 184.42 63.7448 184.206 63.8086C183.996 63.8678 183.78 63.9202 183.557 63.9658C183.333 64.0068 183.11 64.0387 182.887 64.0615C182.663 64.0843 182.447 64.0957 182.237 64.0957Z" fill="#CDE3D9"/>
</svg>
