<svg width="152" height="69" viewBox="0 0 152 69" fill="none" xmlns="http://www.w3.org/2000/svg">
<path d="M22.9004 46.8657L5.24902 27.3833H5.17578C5.20833 29.2225 5.24089 30.8989 5.27344 32.4126C5.28971 33.0636 5.29785 33.7147 5.29785 34.3657C5.31413 35.0005 5.32227 35.5864 5.32227 36.1235C5.33854 36.6606 5.34668 37.1245 5.34668 37.5151C5.36296 37.9058 5.37109 38.1743 5.37109 38.3208V46.7437H3.125V21.5728H4.61426L22.29 41.0063H22.3145C22.2819 39.2974 22.2575 37.7104 22.2412 36.2456C22.2412 35.6271 22.2331 35.0005 22.2168 34.3657C22.2168 33.731 22.2087 33.1369 22.1924 32.5835C22.1924 32.0138 22.1924 31.5093 22.1924 31.0698C22.1924 30.6304 22.1924 30.2886 22.1924 30.0444V21.7681H24.4385V46.8657H22.9004ZM103.467 46.8657L85.8154 27.3833H85.7422C85.7747 29.2225 85.8073 30.8989 85.8398 32.4126C85.8561 33.0636 85.8643 33.7147 85.8643 34.3657C85.8805 35.0005 85.8887 35.5864 85.8887 36.1235C85.9049 36.6606 85.9131 37.1245 85.9131 37.5151C85.9294 37.9058 85.9375 38.1743 85.9375 38.3208V46.7437H83.6914V21.5728H85.1807L102.856 41.0063H102.881C102.848 39.2974 102.824 37.7104 102.808 36.2456C102.808 35.6271 102.799 35.0005 102.783 34.3657C102.783 33.731 102.775 33.1369 102.759 32.5835C102.759 32.0138 102.759 31.5093 102.759 31.0698C102.759 30.6304 102.759 30.2886 102.759 30.0444V21.7681H105.005V46.8657H103.467ZM149.463 34.146C149.463 36.1317 149.202 37.922 148.682 39.5171C148.177 41.1121 147.42 42.4712 146.411 43.5942C145.402 44.7173 144.132 45.5799 142.603 46.1821C141.089 46.7843 139.323 47.0854 137.305 47.0854C135.254 47.0854 133.488 46.7762 132.007 46.1577C130.526 45.5392 129.313 44.6685 128.369 43.5454C127.425 42.4061 126.725 41.047 126.27 39.4683C125.83 37.8732 125.61 36.0991 125.61 34.146C125.61 32.1929 125.838 30.4351 126.294 28.8726C126.75 27.3101 127.458 25.9836 128.418 24.8931C129.378 23.7863 130.599 22.9399 132.08 22.354C133.561 21.7681 135.319 21.4751 137.354 21.4751C139.372 21.4751 141.138 21.7681 142.651 22.354C144.165 22.9399 145.426 23.7863 146.436 24.8931C147.445 25.9836 148.201 27.3101 148.706 28.8726C149.211 30.4351 149.463 32.1929 149.463 34.146ZM145.825 34.146C145.825 32.5509 145.662 31.0942 145.337 29.7759C145.011 28.4575 144.499 27.3263 143.799 26.3823C143.115 25.4383 142.236 24.7059 141.162 24.1851C140.104 23.6642 138.835 23.4038 137.354 23.4038C136.068 23.4038 134.871 23.5422 133.765 23.8188C132.658 24.0955 131.779 24.5106 131.128 25.064C130.77 25.3732 130.469 25.8289 130.225 26.4312C129.98 27.0334 129.785 27.7414 129.639 28.5552C129.492 29.3527 129.386 30.2316 129.321 31.1919C129.256 32.1359 129.224 33.1206 129.224 34.146C129.224 35.7248 129.354 37.1896 129.614 38.5405C129.891 39.8752 130.339 41.0308 130.957 42.0073C131.576 42.9839 132.397 43.7489 133.423 44.3022C134.465 44.8556 135.758 45.1323 137.305 45.1323C138.786 45.1323 140.039 45.0021 141.064 44.7417C142.106 44.465 143.034 43.9767 143.848 43.2769C144.206 42.9839 144.507 42.5282 144.751 41.9097C144.995 41.2749 145.199 40.5506 145.361 39.7368C145.524 38.9067 145.638 38.0116 145.703 37.0513C145.785 36.091 145.825 35.1226 145.825 34.146Z" fill="white"/>
<ellipse cx="50.2719" cy="27.6" rx="6" ry="5.6" fill="white"/>
<ellipse cx="41" cy="45.6154" rx="5" ry="4.61538" fill="white"/>
<circle cx="64.5513" cy="43.6538" r="6" fill="white"/>
<line x1="61.9595" y1="40.1055" x2="54.8159" y2="30.9209" stroke="white" stroke-width="3"/>
<path d="M43.374 42.3462L45.415 36.7334L47.4561 31.1205" stroke="white" stroke-width="3"/>
<path d="M38.0947 61V55.1919L36.0952 55.1602L36.1587 54.5H41.4209L41.3574 55.1411L39.4214 55.1919V61H38.0947ZM50.1362 61H46.2197V54.5H49.9966L49.9331 55.1602L47.5464 55.1919V57.3057L49.7935 57.3311L49.73 57.9341L47.5464 57.9849V60.3081L50.1997 60.3589L50.1362 61ZM57.8169 61.0889C57.3091 61.0889 56.8753 61.0085 56.5156 60.8477C56.1602 60.6826 55.8703 60.452 55.646 60.1558C55.4259 59.8553 55.2651 59.4977 55.1636 59.083C55.062 58.6683 55.0112 58.207 55.0112 57.6992C55.0112 57.2887 55.0599 56.9227 55.1572 56.6011C55.2588 56.2795 55.3942 55.998 55.5635 55.7568C55.7327 55.5114 55.9295 55.304 56.1538 55.1348C56.3823 54.9655 56.6214 54.828 56.8711 54.7222C57.1208 54.6164 57.3768 54.5402 57.6392 54.4937C57.9015 54.4471 58.1554 54.4238 58.4009 54.4238C58.5532 54.4238 58.714 54.4302 58.8833 54.4429C59.0568 54.4513 59.224 54.464 59.3848 54.481C59.5456 54.4937 59.6958 54.5106 59.8354 54.5317C59.9751 54.5529 60.0894 54.5741 60.1782 54.5952L59.9307 55.522C59.8418 55.4966 59.7148 55.467 59.5498 55.4331C59.389 55.3993 59.2155 55.3696 59.0293 55.3442C58.8431 55.3146 58.659 55.2913 58.4771 55.2744C58.2993 55.2533 58.1491 55.2427 58.0264 55.2427C57.891 55.2427 57.7725 55.2469 57.6709 55.2554C57.5693 55.2638 57.4762 55.2786 57.3916 55.2998C57.307 55.321 57.2244 55.3506 57.144 55.3887C57.0679 55.4225 56.9896 55.4691 56.9092 55.5283C56.7061 55.6637 56.5685 55.924 56.4966 56.3091C56.4289 56.6899 56.395 57.1639 56.395 57.731C56.395 58.5985 56.5304 59.2586 56.8013 59.7114C57.0721 60.16 57.5101 60.3843 58.1152 60.3843C58.2845 60.3843 58.4601 60.3779 58.6421 60.3652C58.8241 60.3525 59.0039 60.3335 59.1816 60.3081C59.3636 60.2827 59.5392 60.251 59.7085 60.2129C59.882 60.1748 60.0449 60.1304 60.1973 60.0796V60.6191C60.028 60.6953 59.8439 60.763 59.645 60.8223C59.4504 60.8773 59.2493 60.9259 59.042 60.9683C58.8346 61.0063 58.6273 61.036 58.4199 61.0571C58.2126 61.0783 58.0116 61.0889 57.8169 61.0889ZM69.541 61V58.0737H66.6021V61H65.2754V54.5H66.6021V57.3438H69.541V54.5H70.8677V61H69.541Z" fill="white"/>
<path d="M88.8521 57.0752C88.4224 57.0752 88.0553 57.0072 87.751 56.8711C87.4502 56.7314 87.2049 56.5363 87.0151 56.2856C86.8289 56.0314 86.6929 55.7288 86.6069 55.3779C86.521 55.027 86.478 54.6367 86.478 54.207C86.478 53.8597 86.5192 53.55 86.6016 53.2778C86.6875 53.0057 86.8021 52.7676 86.9453 52.5635C87.0885 52.3558 87.255 52.1803 87.4448 52.0371C87.6382 51.8939 87.8405 51.7775 88.0518 51.688C88.263 51.5985 88.4797 51.534 88.7017 51.4946C88.9237 51.4552 89.1385 51.4355 89.3462 51.4355C89.4751 51.4355 89.6112 51.4409 89.7544 51.4517C89.9012 51.4588 90.0426 51.4696 90.1787 51.4839C90.3148 51.4946 90.4419 51.509 90.5601 51.5269C90.6782 51.5448 90.7749 51.5627 90.8501 51.5806L90.6406 52.3647C90.5654 52.3433 90.458 52.3182 90.3184 52.2896C90.1823 52.2609 90.0355 52.2358 89.8779 52.2144C89.7204 52.1893 89.5646 52.1696 89.4106 52.1553C89.2603 52.1374 89.1331 52.1284 89.0293 52.1284C88.9147 52.1284 88.8145 52.132 88.7285 52.1392C88.6426 52.1463 88.5638 52.1589 88.4922 52.1768C88.4206 52.1947 88.3507 52.2197 88.2827 52.252C88.2183 52.2806 88.152 52.32 88.084 52.3701C87.9121 52.4847 87.7957 52.7049 87.7349 53.0308C87.6776 53.353 87.6489 53.7541 87.6489 54.2339C87.6489 54.9679 87.7635 55.5265 87.9927 55.9097C88.2218 56.2892 88.5924 56.479 89.1045 56.479C89.2477 56.479 89.3963 56.4736 89.5503 56.4629C89.7043 56.4521 89.8564 56.436 90.0068 56.4146C90.1608 56.3931 90.3094 56.3662 90.4526 56.334C90.5994 56.3018 90.7373 56.2642 90.8662 56.2212V56.6777C90.723 56.7422 90.5672 56.7995 90.3989 56.8496C90.2342 56.8962 90.0641 56.9373 89.8887 56.9731C89.7132 57.0054 89.5378 57.0304 89.3623 57.0483C89.1868 57.0662 89.0168 57.0752 88.8521 57.0752ZM98.7993 54.2285C98.7993 54.6654 98.7402 55.0592 98.6221 55.4102C98.5075 55.7611 98.3338 56.0601 98.1011 56.3071C97.8683 56.5542 97.5783 56.744 97.231 56.8765C96.8836 57.009 96.479 57.0752 96.0171 57.0752C95.5444 57.0752 95.1398 57.0072 94.8032 56.8711C94.4666 56.735 94.1891 56.5435 93.9707 56.2964C93.7523 56.0457 93.5911 55.7467 93.4873 55.3994C93.387 55.0485 93.3369 54.6582 93.3369 54.2285C93.3369 53.7988 93.3888 53.4121 93.4927 53.0684C93.6001 52.7246 93.763 52.4328 93.9814 52.1929C94.1999 51.9494 94.4774 51.7632 94.814 51.6343C95.1541 51.5054 95.5588 51.4409 96.0278 51.4409C96.4897 51.4409 96.8926 51.5054 97.2363 51.6343C97.5837 51.7632 97.8719 51.9494 98.1011 52.1929C98.3338 52.4328 98.5075 52.7246 98.6221 53.0684C98.7402 53.4121 98.7993 53.7988 98.7993 54.2285ZM97.6177 54.2339C97.6177 53.8973 97.5872 53.5965 97.5264 53.3315C97.4655 53.0666 97.3706 52.841 97.2417 52.6548C97.1128 52.4686 96.9481 52.3271 96.7476 52.2305C96.547 52.1302 96.3071 52.0801 96.0278 52.0801C95.7843 52.0801 95.557 52.1051 95.3457 52.1553C95.138 52.2054 94.9733 52.277 94.8516 52.3701C94.7298 52.4632 94.6403 52.6655 94.583 52.9771C94.5293 53.285 94.5024 53.7039 94.5024 54.2339C94.5024 54.5633 94.5275 54.8623 94.5776 55.1309C94.6278 55.3994 94.7101 55.6304 94.8247 55.8237C94.9429 56.0171 95.0986 56.1675 95.292 56.2749C95.4854 56.3787 95.7271 56.4307 96.0171 56.4307C96.3143 56.4307 96.5596 56.4056 96.7529 56.3555C96.9499 56.3018 97.1146 56.2319 97.2471 56.146C97.3079 56.1066 97.3617 56.0278 97.4082 55.9097C97.4548 55.7879 97.4924 55.6411 97.521 55.4692C97.5532 55.2974 97.5765 55.1058 97.5908 54.8945C97.6087 54.6797 97.6177 54.4595 97.6177 54.2339ZM104.917 55.3887C104.917 55.5892 104.865 55.7897 104.761 55.9902C104.661 56.1908 104.516 56.3716 104.326 56.5327C104.14 56.6938 103.914 56.8245 103.649 56.9248C103.384 57.0251 103.087 57.0752 102.758 57.0752C102.579 57.0752 102.414 57.0662 102.264 57.0483C102.117 57.0304 101.977 57.0036 101.845 56.9678C101.712 56.932 101.585 56.8908 101.463 56.8442C101.342 56.7941 101.22 56.7386 101.098 56.6777L101.372 55.8613C101.451 55.915 101.556 55.9723 101.689 56.0332C101.825 56.0905 101.968 56.1442 102.119 56.1943C102.273 56.2445 102.428 56.2874 102.586 56.3232C102.743 56.3555 102.887 56.3716 103.016 56.3716C103.313 56.3716 103.537 56.3394 103.687 56.2749C103.769 56.2391 103.836 56.1585 103.886 56.0332C103.939 55.9079 103.966 55.7432 103.966 55.5391C103.966 55.3958 103.927 55.2777 103.848 55.1846C103.773 55.0879 103.673 55.0037 103.547 54.9321C103.422 54.8605 103.279 54.7961 103.118 54.7388C102.957 54.6815 102.792 54.6206 102.624 54.5562C102.459 54.4917 102.296 54.4183 102.135 54.3359C101.974 54.25 101.83 54.1462 101.705 54.0244C101.58 53.8991 101.478 53.7505 101.399 53.5786C101.324 53.4032 101.286 53.1919 101.286 52.9448C101.286 52.7837 101.329 52.6136 101.415 52.4346C101.505 52.2555 101.633 52.0926 101.802 51.9458C101.97 51.799 102.176 51.6772 102.419 51.5806C102.667 51.4839 102.948 51.4355 103.263 51.4355C103.517 51.4355 103.759 51.4481 103.988 51.4731C104.221 51.4982 104.446 51.5304 104.665 51.5698L104.493 52.3862C104.389 52.3504 104.272 52.3164 104.144 52.2842C104.018 52.252 103.889 52.2251 103.757 52.2036C103.624 52.1785 103.495 52.1589 103.37 52.1445C103.245 52.1302 103.134 52.123 103.037 52.123C102.933 52.123 102.824 52.1302 102.709 52.1445C102.598 52.1553 102.507 52.1803 102.436 52.2197C102.364 52.2591 102.312 52.3271 102.28 52.4238C102.248 52.5205 102.231 52.6369 102.231 52.7729C102.231 52.9126 102.269 53.029 102.344 53.1221C102.423 53.2152 102.525 53.2957 102.65 53.3638C102.776 53.4318 102.919 53.4945 103.08 53.5518C103.241 53.609 103.406 53.6717 103.574 53.7397C103.743 53.8042 103.907 53.8794 104.068 53.9653C104.229 54.0477 104.373 54.1533 104.498 54.2822C104.623 54.4076 104.724 54.5597 104.799 54.7388C104.878 54.9178 104.917 55.1344 104.917 55.3887ZM108.612 57V52.0854L106.92 52.0586L106.974 51.5H111.427L111.373 52.0425L109.735 52.0854V57H108.612ZM119.505 57L119.054 52.8052L117.077 57H116.733L114.655 52.8052L114.284 57H113.634L114.198 51.4624H115.24L117.168 55.3618L119.011 51.4624H120.026L120.638 57H119.505ZM126.718 57H123.404V51.5H126.6L126.546 52.0586L124.527 52.0854V53.874L126.428 53.8955L126.375 54.4058L124.527 54.4487V56.4146L126.772 56.4575L126.718 57ZM130.473 57V52.0854L128.781 52.0586L128.834 51.5H133.287L133.233 52.0425L131.595 52.0854V57H130.473ZM136.805 57H135.683V51.5H136.805V57ZM141.972 57.0752C141.542 57.0752 141.175 57.0072 140.871 56.8711C140.57 56.7314 140.325 56.5363 140.135 56.2856C139.949 56.0314 139.813 55.7288 139.727 55.3779C139.641 55.027 139.598 54.6367 139.598 54.207C139.598 53.8597 139.639 53.55 139.722 53.2778C139.808 53.0057 139.922 52.7676 140.065 52.5635C140.209 52.3558 140.375 52.1803 140.565 52.0371C140.758 51.8939 140.961 51.7775 141.172 51.688C141.383 51.5985 141.6 51.534 141.822 51.4946C142.044 51.4552 142.259 51.4355 142.466 51.4355C142.595 51.4355 142.731 51.4409 142.875 51.4517C143.021 51.4588 143.163 51.4696 143.299 51.4839C143.435 51.4946 143.562 51.509 143.68 51.5269C143.798 51.5448 143.895 51.5627 143.97 51.5806L143.761 52.3647C143.686 52.3433 143.578 52.3182 143.438 52.2896C143.302 52.2609 143.156 52.2358 142.998 52.2144C142.84 52.1893 142.685 52.1696 142.531 52.1553C142.38 52.1374 142.253 52.1284 142.149 52.1284C142.035 52.1284 141.935 52.132 141.849 52.1392C141.763 52.1463 141.684 52.1589 141.612 52.1768C141.541 52.1947 141.471 52.2197 141.403 52.252C141.338 52.2806 141.272 52.32 141.204 52.3701C141.032 52.4847 140.916 52.7049 140.855 53.0308C140.798 53.353 140.769 53.7541 140.769 54.2339C140.769 54.9679 140.884 55.5265 141.113 55.9097C141.342 56.2892 141.713 56.479 142.225 56.479C142.368 56.479 142.516 56.4736 142.67 56.4629C142.824 56.4521 142.977 56.436 143.127 56.4146C143.281 56.3931 143.43 56.3662 143.573 56.334C143.72 56.3018 143.857 56.2642 143.986 56.2212V56.6777C143.843 56.7422 143.687 56.7995 143.519 56.8496C143.354 56.8962 143.184 56.9373 143.009 56.9731C142.833 57.0054 142.658 57.0304 142.482 57.0483C142.307 57.0662 142.137 57.0752 141.972 57.0752Z" fill="white"/>
</svg>
