<svg width="152" height="45" viewBox="0 0 152 45" fill="none" xmlns="http://www.w3.org/2000/svg">
<path d="M22.9004 29.1221L5.24902 9.63965H5.17578C5.20833 11.4788 5.24089 13.1553 5.27344 14.6689C5.28971 15.32 5.29785 15.971 5.29785 16.6221C5.31413 17.2568 5.32227 17.8428 5.32227 18.3799C5.33854 18.917 5.34668 19.3809 5.34668 19.7715C5.36296 20.1621 5.37109 20.4307 5.37109 20.5771V29H3.125V3.8291H4.61426L22.29 23.2627H22.3145C22.2819 21.5537 22.2575 19.9668 22.2412 18.502C22.2412 17.8835 22.2331 17.2568 22.2168 16.6221C22.2168 15.9873 22.2087 15.3932 22.1924 14.8398C22.1924 14.2702 22.1924 13.7656 22.1924 13.3262C22.1924 12.8867 22.1924 12.5449 22.1924 12.3008V4.02441H24.4385V29.1221H22.9004ZM103.467 29.1221L85.8154 9.63965H85.7422C85.7747 11.4788 85.8073 13.1553 85.8398 14.6689C85.8561 15.32 85.8643 15.971 85.8643 16.6221C85.8805 17.2568 85.8887 17.8428 85.8887 18.3799C85.9049 18.917 85.9131 19.3809 85.9131 19.7715C85.9294 20.1621 85.9375 20.4307 85.9375 20.5771V29H83.6914V3.8291H85.1807L102.856 23.2627H102.881C102.848 21.5537 102.824 19.9668 102.808 18.502C102.808 17.8835 102.799 17.2568 102.783 16.6221C102.783 15.9873 102.775 15.3932 102.759 14.8398C102.759 14.2702 102.759 13.7656 102.759 13.3262C102.759 12.8867 102.759 12.5449 102.759 12.3008V4.02441H105.005V29.1221H103.467ZM149.463 16.4023C149.463 18.388 149.202 20.1784 148.682 21.7734C148.177 23.3685 147.42 24.7275 146.411 25.8506C145.402 26.9736 144.132 27.8363 142.603 28.4385C141.089 29.0407 139.323 29.3418 137.305 29.3418C135.254 29.3418 133.488 29.0326 132.007 28.4141C130.526 27.7956 129.313 26.9248 128.369 25.8018C127.425 24.6624 126.725 23.3034 126.27 21.7246C125.83 20.1296 125.61 18.3555 125.61 16.4023C125.61 14.4492 125.838 12.6914 126.294 11.1289C126.75 9.56641 127.458 8.23991 128.418 7.14941C129.378 6.04264 130.599 5.19629 132.08 4.61035C133.561 4.02441 135.319 3.73145 137.354 3.73145C139.372 3.73145 141.138 4.02441 142.651 4.61035C144.165 5.19629 145.426 6.04264 146.436 7.14941C147.445 8.23991 148.201 9.56641 148.706 11.1289C149.211 12.6914 149.463 14.4492 149.463 16.4023ZM145.825 16.4023C145.825 14.8073 145.662 13.3506 145.337 12.0322C145.011 10.7139 144.499 9.58268 143.799 8.63867C143.115 7.69466 142.236 6.96224 141.162 6.44141C140.104 5.92057 138.835 5.66016 137.354 5.66016C136.068 5.66016 134.871 5.7985 133.765 6.0752C132.658 6.35189 131.779 6.76693 131.128 7.32031C130.77 7.62956 130.469 8.08529 130.225 8.6875C129.98 9.28971 129.785 9.99772 129.639 10.8115C129.492 11.609 129.386 12.488 129.321 13.4482C129.256 14.3923 129.224 15.377 129.224 16.4023C129.224 17.9811 129.354 19.446 129.614 20.7969C129.891 22.1315 130.339 23.2871 130.957 24.2637C131.576 25.2402 132.397 26.0052 133.423 26.5586C134.465 27.112 135.758 27.3887 137.305 27.3887C138.786 27.3887 140.039 27.2585 141.064 26.998C142.106 26.7214 143.034 26.2331 143.848 25.5332C144.206 25.2402 144.507 24.7845 144.751 24.166C144.995 23.5312 145.199 22.807 145.361 21.9932C145.524 21.1631 145.638 20.2679 145.703 19.3076C145.785 18.3473 145.825 17.3789 145.825 16.4023Z" fill="white"/>
<ellipse cx="51.7272" cy="8.43077" rx="4.93022" ry="5.43077" fill="white"/>
<ellipse cx="44.1085" cy="25.9017" rx="4.10852" ry="4.47591" fill="white"/>
<ellipse cx="63.4609" cy="23.9993" rx="4.93022" ry="5.81868" fill="white"/>
<line y1="-1.5" x2="10.6673" y2="-1.5" transform="matrix(-0.550271 -0.834986 0.736687 -0.676234 62.3041 19.6646)" stroke="white" stroke-width="3"/>
<path d="M46.0593 22.731L47.7364 17.2878L49.4136 11.8445" stroke="white" stroke-width="3"/>
<path d="M38.0947 43.3438V37.5356L36.0952 37.5039L36.1587 36.8438H41.4209L41.3574 37.4849L39.4214 37.5356V43.3438H38.0947ZM50.1362 43.3438H46.2197V36.8438H49.9966L49.9331 37.5039L47.5464 37.5356V39.6494L49.7935 39.6748L49.73 40.2778L47.5464 40.3286V42.6519L50.1997 42.7026L50.1362 43.3438ZM57.8169 43.4326C57.3091 43.4326 56.8753 43.3522 56.5156 43.1914C56.1602 43.0264 55.8703 42.7957 55.646 42.4995C55.4259 42.1991 55.2651 41.8415 55.1636 41.4268C55.062 41.012 55.0112 40.5508 55.0112 40.043C55.0112 39.6325 55.0599 39.2664 55.1572 38.9448C55.2588 38.6232 55.3942 38.3418 55.5635 38.1006C55.7327 37.8551 55.9295 37.6478 56.1538 37.4785C56.3823 37.3092 56.6214 37.1717 56.8711 37.0659C57.1208 36.9601 57.3768 36.884 57.6392 36.8374C57.9015 36.7909 58.1554 36.7676 58.4009 36.7676C58.5532 36.7676 58.714 36.7739 58.8833 36.7866C59.0568 36.7951 59.224 36.8078 59.3848 36.8247C59.5456 36.8374 59.6958 36.8543 59.8354 36.8755C59.9751 36.8966 60.0894 36.9178 60.1782 36.939L59.9307 37.8657C59.8418 37.8403 59.7148 37.8107 59.5498 37.7769C59.389 37.743 59.2155 37.7134 59.0293 37.688C58.8431 37.6584 58.659 37.6351 58.4771 37.6182C58.2993 37.597 58.1491 37.5864 58.0264 37.5864C57.891 37.5864 57.7725 37.5907 57.6709 37.5991C57.5693 37.6076 57.4762 37.6224 57.3916 37.6436C57.307 37.6647 57.2244 37.6943 57.144 37.7324C57.0679 37.7663 56.9896 37.8128 56.9092 37.8721C56.7061 38.0075 56.5685 38.2677 56.4966 38.6528C56.4289 39.0337 56.395 39.5076 56.395 40.0747C56.395 40.9422 56.5304 41.6024 56.8013 42.0552C57.0721 42.5037 57.5101 42.728 58.1152 42.728C58.2845 42.728 58.4601 42.7217 58.6421 42.709C58.8241 42.6963 59.0039 42.6772 59.1816 42.6519C59.3636 42.6265 59.5392 42.5947 59.7085 42.5566C59.882 42.5186 60.0449 42.4741 60.1973 42.4233V42.9629C60.028 43.0391 59.8439 43.1068 59.645 43.166C59.4504 43.221 59.2493 43.2697 59.042 43.312C58.8346 43.3501 58.6273 43.3797 58.4199 43.4009C58.2126 43.422 58.0116 43.4326 57.8169 43.4326ZM69.541 43.3438V40.4175H66.6021V43.3438H65.2754V36.8438H66.6021V39.6875H69.541V36.8438H70.8677V43.3438H69.541Z" fill="white"/>
<path d="M87.8521 40.2495C87.4224 40.2495 87.0553 40.1815 86.751 40.0454C86.4502 39.9058 86.2049 39.7106 86.0151 39.46C85.8289 39.2057 85.6929 38.9032 85.6069 38.5522C85.521 38.2013 85.478 37.811 85.478 37.3813C85.478 37.034 85.5192 36.7243 85.6016 36.4521C85.6875 36.18 85.8021 35.9419 85.9453 35.7378C86.0885 35.5301 86.255 35.3547 86.4448 35.2114C86.6382 35.0682 86.8405 34.9518 87.0518 34.8623C87.263 34.7728 87.4797 34.7083 87.7017 34.6689C87.9237 34.6296 88.1385 34.6099 88.3462 34.6099C88.4751 34.6099 88.6112 34.6152 88.7544 34.626C88.9012 34.6331 89.0426 34.6439 89.1787 34.6582C89.3148 34.6689 89.4419 34.6833 89.5601 34.7012C89.6782 34.7191 89.7749 34.737 89.8501 34.7549L89.6406 35.5391C89.5654 35.5176 89.458 35.4925 89.3184 35.4639C89.1823 35.4352 89.0355 35.4102 88.8779 35.3887C88.7204 35.3636 88.5646 35.3439 88.4106 35.3296C88.2603 35.3117 88.1331 35.3027 88.0293 35.3027C87.9147 35.3027 87.8145 35.3063 87.7285 35.3135C87.6426 35.3206 87.5638 35.3332 87.4922 35.3511C87.4206 35.369 87.3507 35.394 87.2827 35.4263C87.2183 35.4549 87.152 35.4943 87.084 35.5444C86.9121 35.659 86.7957 35.8792 86.7349 36.2051C86.6776 36.5273 86.6489 36.9284 86.6489 37.4082C86.6489 38.1423 86.7635 38.7008 86.9927 39.084C87.2218 39.4635 87.5924 39.6533 88.1045 39.6533C88.2477 39.6533 88.3963 39.6479 88.5503 39.6372C88.7043 39.6265 88.8564 39.6104 89.0068 39.5889C89.1608 39.5674 89.3094 39.5405 89.4526 39.5083C89.5994 39.4761 89.7373 39.4385 89.8662 39.3955V39.8521C89.723 39.9165 89.5672 39.9738 89.3989 40.0239C89.2342 40.0705 89.0641 40.1117 88.8887 40.1475C88.7132 40.1797 88.5378 40.2048 88.3623 40.2227C88.1868 40.2406 88.0168 40.2495 87.8521 40.2495ZM97.7993 37.4028C97.7993 37.8397 97.7402 38.2336 97.6221 38.5845C97.5075 38.9354 97.3338 39.2344 97.1011 39.4814C96.8683 39.7285 96.5783 39.9183 96.231 40.0508C95.8836 40.1833 95.479 40.2495 95.0171 40.2495C94.5444 40.2495 94.1398 40.1815 93.8032 40.0454C93.4666 39.9093 93.1891 39.7178 92.9707 39.4707C92.7523 39.2201 92.5911 38.9211 92.4873 38.5737C92.387 38.2228 92.3369 37.8325 92.3369 37.4028C92.3369 36.9731 92.3888 36.5864 92.4927 36.2427C92.6001 35.8989 92.763 35.6071 92.9814 35.3672C93.1999 35.1237 93.4774 34.9375 93.814 34.8086C94.1541 34.6797 94.5588 34.6152 95.0278 34.6152C95.4897 34.6152 95.8926 34.6797 96.2363 34.8086C96.5837 34.9375 96.8719 35.1237 97.1011 35.3672C97.3338 35.6071 97.5075 35.8989 97.6221 36.2427C97.7402 36.5864 97.7993 36.9731 97.7993 37.4028ZM96.6177 37.4082C96.6177 37.0716 96.5872 36.7708 96.5264 36.5059C96.4655 36.2409 96.3706 36.0153 96.2417 35.8291C96.1128 35.6429 95.9481 35.5015 95.7476 35.4048C95.547 35.3045 95.3071 35.2544 95.0278 35.2544C94.7843 35.2544 94.557 35.2795 94.3457 35.3296C94.138 35.3797 93.9733 35.4513 93.8516 35.5444C93.7298 35.6375 93.6403 35.8398 93.583 36.1514C93.5293 36.4593 93.5024 36.8783 93.5024 37.4082C93.5024 37.7376 93.5275 38.0366 93.5776 38.3052C93.6278 38.5737 93.7101 38.8047 93.8247 38.998C93.9429 39.1914 94.0986 39.3418 94.292 39.4492C94.4854 39.5531 94.7271 39.605 95.0171 39.605C95.3143 39.605 95.5596 39.5799 95.7529 39.5298C95.9499 39.4761 96.1146 39.4062 96.2471 39.3203C96.3079 39.2809 96.3617 39.2021 96.4082 39.084C96.4548 38.9622 96.4924 38.8154 96.521 38.6436C96.5532 38.4717 96.5765 38.2801 96.5908 38.0688C96.6087 37.854 96.6177 37.6338 96.6177 37.4082ZM103.917 38.563C103.917 38.7635 103.865 38.964 103.761 39.1646C103.661 39.3651 103.516 39.5459 103.326 39.707C103.14 39.8682 102.914 39.9989 102.649 40.0991C102.384 40.1994 102.087 40.2495 101.758 40.2495C101.579 40.2495 101.414 40.2406 101.264 40.2227C101.117 40.2048 100.977 40.1779 100.845 40.1421C100.712 40.1063 100.585 40.0651 100.463 40.0186C100.342 39.9684 100.22 39.9129 100.098 39.8521L100.372 39.0356C100.451 39.0894 100.556 39.1466 100.689 39.2075C100.825 39.2648 100.968 39.3185 101.119 39.3687C101.273 39.4188 101.428 39.4618 101.586 39.4976C101.743 39.5298 101.887 39.5459 102.016 39.5459C102.313 39.5459 102.537 39.5137 102.687 39.4492C102.769 39.4134 102.836 39.3328 102.886 39.2075C102.939 39.0822 102.966 38.9175 102.966 38.7134C102.966 38.5701 102.927 38.452 102.848 38.3589C102.773 38.2622 102.673 38.1781 102.547 38.1064C102.422 38.0348 102.279 37.9704 102.118 37.9131C101.957 37.8558 101.792 37.7949 101.624 37.7305C101.459 37.666 101.296 37.5926 101.135 37.5103C100.974 37.4243 100.83 37.3205 100.705 37.1987C100.58 37.0734 100.478 36.9248 100.399 36.7529C100.324 36.5775 100.286 36.3662 100.286 36.1191C100.286 35.958 100.329 35.7879 100.415 35.6089C100.505 35.4299 100.633 35.2669 100.802 35.1201C100.97 34.9733 101.176 34.8516 101.419 34.7549C101.667 34.6582 101.948 34.6099 102.263 34.6099C102.517 34.6099 102.759 34.6224 102.988 34.6475C103.221 34.6725 103.446 34.7048 103.665 34.7441L103.493 35.5605C103.389 35.5247 103.272 35.4907 103.144 35.4585C103.018 35.4263 102.889 35.3994 102.757 35.3779C102.624 35.3529 102.495 35.3332 102.37 35.3188C102.245 35.3045 102.134 35.2974 102.037 35.2974C101.933 35.2974 101.824 35.3045 101.709 35.3188C101.598 35.3296 101.507 35.3547 101.436 35.394C101.364 35.4334 101.312 35.5015 101.28 35.5981C101.248 35.6948 101.231 35.8112 101.231 35.9473C101.231 36.0869 101.269 36.2033 101.344 36.2964C101.423 36.3895 101.525 36.4701 101.65 36.5381C101.776 36.6061 101.919 36.6688 102.08 36.7261C102.241 36.7834 102.406 36.846 102.574 36.9141C102.743 36.9785 102.907 37.0537 103.068 37.1396C103.229 37.222 103.373 37.3276 103.498 37.4565C103.623 37.5819 103.724 37.734 103.799 37.9131C103.878 38.0921 103.917 38.3088 103.917 38.563ZM107.612 40.1743V35.2598L105.92 35.2329L105.974 34.6743H110.427L110.373 35.2168L108.735 35.2598V40.1743H107.612ZM118.505 40.1743L118.054 35.9795L116.077 40.1743H115.733L113.655 35.9795L113.284 40.1743H112.634L113.198 34.6367H114.24L116.168 38.5361L118.011 34.6367H119.026L119.638 40.1743H118.505ZM125.718 40.1743H122.404V34.6743H125.6L125.546 35.2329L123.527 35.2598V37.0483L125.428 37.0698L125.375 37.5801L123.527 37.623V39.5889L125.772 39.6318L125.718 40.1743ZM129.473 40.1743V35.2598L127.781 35.2329L127.834 34.6743H132.287L132.233 35.2168L130.595 35.2598V40.1743H129.473ZM135.805 40.1743H134.683V34.6743H135.805V40.1743ZM140.972 40.2495C140.542 40.2495 140.175 40.1815 139.871 40.0454C139.57 39.9058 139.325 39.7106 139.135 39.46C138.949 39.2057 138.813 38.9032 138.727 38.5522C138.641 38.2013 138.598 37.811 138.598 37.3813C138.598 37.034 138.639 36.7243 138.722 36.4521C138.808 36.18 138.922 35.9419 139.065 35.7378C139.209 35.5301 139.375 35.3547 139.565 35.2114C139.758 35.0682 139.961 34.9518 140.172 34.8623C140.383 34.7728 140.6 34.7083 140.822 34.6689C141.044 34.6296 141.259 34.6099 141.466 34.6099C141.595 34.6099 141.731 34.6152 141.875 34.626C142.021 34.6331 142.163 34.6439 142.299 34.6582C142.435 34.6689 142.562 34.6833 142.68 34.7012C142.798 34.7191 142.895 34.737 142.97 34.7549L142.761 35.5391C142.686 35.5176 142.578 35.4925 142.438 35.4639C142.302 35.4352 142.156 35.4102 141.998 35.3887C141.84 35.3636 141.685 35.3439 141.531 35.3296C141.38 35.3117 141.253 35.3027 141.149 35.3027C141.035 35.3027 140.935 35.3063 140.849 35.3135C140.763 35.3206 140.684 35.3332 140.612 35.3511C140.541 35.369 140.471 35.394 140.403 35.4263C140.338 35.4549 140.272 35.4943 140.204 35.5444C140.032 35.659 139.916 35.8792 139.855 36.2051C139.798 36.5273 139.769 36.9284 139.769 37.4082C139.769 38.1423 139.884 38.7008 140.113 39.084C140.342 39.4635 140.713 39.6533 141.225 39.6533C141.368 39.6533 141.516 39.6479 141.67 39.6372C141.824 39.6265 141.977 39.6104 142.127 39.5889C142.281 39.5674 142.43 39.5405 142.573 39.5083C142.72 39.4761 142.857 39.4385 142.986 39.3955V39.8521C142.843 39.9165 142.687 39.9738 142.519 40.0239C142.354 40.0705 142.184 40.1117 142.009 40.1475C141.833 40.1797 141.658 40.2048 141.482 40.2227C141.307 40.2406 141.137 40.2495 140.972 40.2495Z" fill="white"/>
</svg>
