<svg width="48" height="48" viewBox="0 0 48 48" fill="none" xmlns="http://www.w3.org/2000/svg">
<g clip-path="url(#clip0_302_2649)">
<path d="M18.463 11.0066C17.4244 11.0066 16.5824 10.1647 16.5824 9.12611C16.5824 8.17408 17.2899 7.38728 18.2078 7.26276L18.463 7.24559H42.1195C43.1581 7.24559 44 8.08753 44 9.12611C44 10.0781 43.2925 10.8649 42.3747 10.9895L42.1195 11.0066L18.463 11.0066ZM5.88052 24.8455C4.84194 24.8455 4 24.0036 4 22.965C4 22.0129 4.70746 21.2261 5.62535 21.1016L5.88052 21.0845L42.1195 21.0845C43.1581 21.0845 44 21.9264 44 22.965C44 23.917 43.2925 24.7038 42.3747 24.8283L42.1195 24.8455L5.88052 24.8455ZM15.9694 40C14.9308 40 14.0888 39.1581 14.0888 38.1195C14.0888 37.1674 14.7963 36.3806 15.7142 36.2561L15.9694 36.239H42.1195C43.1581 36.239 44 37.0809 44 38.1195C44 39.0715 43.2925 39.8583 42.3747 39.9828L42.1195 40H15.9694Z" fill="white"/>
</g>
<defs>
<clipPath id="clip0_302_2649">
<rect width="48" height="48" fill="white" transform="matrix(-1 0 0 -1 48 48)"/>
</clipPath>
</defs>
</svg>
