<svg width="48" height="48" viewBox="0 0 48 48" fill="none" xmlns="http://www.w3.org/2000/svg">
<g clip-path="url(#clip0_93_2549)">
<path d="M29.537 36.9934C30.5756 36.9934 31.4176 37.8353 31.4176 38.8739C31.4176 39.8259 30.7101 40.6127 29.7922 40.7372L29.537 40.7544H5.88052C4.84194 40.7544 4 39.9125 4 38.8739C4 37.9219 4.70746 37.1351 5.62535 37.0105L5.88052 36.9934H29.537ZM42.1195 23.1545C43.1581 23.1545 44 23.9964 44 25.035C44 25.9871 43.2925 26.7739 42.3747 26.8984L42.1195 26.9155H5.88052C4.84194 26.9155 4 26.0736 4 25.035C4 24.083 4.70746 23.2962 5.62535 23.1717L5.88052 23.1545H42.1195ZM32.0306 8C33.0692 8 33.9112 8.84194 33.9112 9.88052C33.9112 10.8326 33.2037 11.6194 32.2858 11.7439L32.0306 11.761H5.88052C4.84194 11.761 4 10.9191 4 9.88052C4 8.92849 4.70746 8.14169 5.62535 8.01717L5.88052 8H32.0306Z" fill="white"/>
</g>
<defs>
<clipPath id="clip0_93_2549">
<rect width="48" height="48" fill="white"/>
</clipPath>
</defs>
</svg>
