<svg width="300" height="330" viewBox="0 0 300 330" fill="none" xmlns="http://www.w3.org/2000/svg">
<g clip-path="url(#clip0_327_3342)">
<path opacity="0.1" d="M150 329.126C232.843 329.126 300 261.968 300 179.125C300 96.2825 232.843 29.1251 150 29.1251C67.1574 29.1251 0 96.2825 0 179.125C0 261.968 67.1574 329.126 150 329.126Z" fill="#4898F3" fill-opacity="0.729412"/>
<path d="M100.454 84.903C100.371 84.9028 100.289 84.8797 100.217 84.836C100.146 84.7924 100.088 84.73 100.049 84.6556C100.011 84.5812 99.9936 84.4976 99.9994 84.4141C100.005 84.3306 100.034 84.2503 100.082 84.182C100.166 84.0623 108.424 72.1246 99.206 61.2419C97.5743 59.3052 95.5387 57.749 93.2419 56.6821C90.9452 55.6153 88.4429 55.0637 85.9105 55.0661H85.7889C86.6643 58.1071 86.5081 60.811 85.2685 62.8853C84.7403 63.8227 83.9608 64.5939 83.0179 65.1122C82.0749 65.6304 81.006 65.8751 79.9316 65.8186C79.0422 65.7458 78.1934 65.4151 77.4892 64.8672C76.785 64.3192 76.2558 63.5778 75.9666 62.7336C74.9528 60.0891 76.0123 57.5251 78.8044 55.8725C80.5734 54.8969 82.5392 54.3317 84.5562 54.2185C83.9002 52.4787 83.0471 50.8197 82.0136 49.274C78.6852 44.1906 72.6185 40.6721 65.3695 39.6199C59.2265 38.728 53.339 39.778 50.3688 42.2936C50.2763 42.372 50.1565 42.4104 50.0357 42.4004C49.915 42.3904 49.8031 42.3329 49.7248 42.2404C49.6464 42.1479 49.608 42.0281 49.618 41.9074C49.628 41.7866 49.6855 41.6747 49.778 41.5964C52.9392 38.919 59.1105 37.7873 65.5006 38.7157C73.0092 39.8054 79.3061 43.4715 82.7785 48.7737C83.9043 50.4551 84.82 52.268 85.5052 54.1719C88.2365 54.1063 90.9478 54.6543 93.4392 55.7756C95.9307 56.8968 98.1388 58.5628 99.901 60.6507C109.584 72.0817 100.914 84.5855 100.826 84.7102C100.784 84.7696 100.728 84.8181 100.663 84.8516C100.599 84.8852 100.527 84.9028 100.454 84.903ZM84.8528 55.1012C82.897 55.1841 80.9868 55.7173 79.2709 56.6593C76.8603 58.0861 75.9676 60.181 76.8206 62.407C77.0516 63.0891 77.4765 63.6891 78.0432 64.1334C78.61 64.5778 79.294 64.8473 80.0115 64.9089C80.9149 64.9493 81.8118 64.7377 82.6018 64.2976C83.3918 63.8575 84.0438 63.2064 84.485 62.417C85.6244 60.5118 85.7291 57.9797 84.8528 55.1012Z" fill="#292A2E"/>
<path d="M42.4842 49.6643C41.7086 49.8966 40.873 49.817 40.1552 49.4424C39.4375 49.0678 38.8943 48.4278 38.6413 47.6587C38.3884 46.8895 38.4457 46.0521 38.801 45.3246C39.1563 44.5971 39.7816 44.037 40.5437 43.7636C41.3058 43.4903 42.1445 43.5252 42.8812 43.861C43.6179 44.1967 44.1945 44.8068 44.4881 45.5614C44.7817 46.3159 44.7692 47.1552 44.4532 47.9006C44.1372 48.6461 43.5427 49.2387 42.7963 49.5523C42.6943 49.5951 42.5901 49.6325 42.4842 49.6643ZM40.965 44.585C40.891 44.6075 40.8181 44.6337 40.7466 44.6636C40.2204 44.8851 39.8014 45.3033 39.5789 45.8292C39.3564 46.355 39.348 46.947 39.5555 47.4789C39.763 48.0109 40.17 48.4408 40.6898 48.6771C41.2096 48.9135 41.8011 48.9375 42.3383 48.7442C42.8756 48.5509 43.3161 48.1554 43.5662 47.6421C43.8162 47.1288 43.8559 46.5381 43.6769 45.9959C43.4979 45.4537 43.1143 45.0028 42.6077 44.7393C42.1012 44.4758 41.5118 44.4204 40.965 44.585Z" fill="#292A2E"/>
<path d="M42.4783 42.5011C41.7438 42.7202 40.9543 42.6601 40.2614 42.3324C39.5686 42.0046 39.0213 41.4324 38.7249 40.7256C38.4871 40.1589 38.4227 39.5345 38.5399 38.9313C38.657 38.328 38.9504 37.7731 39.383 37.3366C39.8155 36.9001 40.3678 36.6017 40.97 36.4791C41.5721 36.3565 42.1971 36.4152 42.7659 36.6478C43.3347 36.8805 43.8217 37.2765 44.1654 37.786C44.509 38.2954 44.6939 38.8953 44.6966 39.5098C44.6993 40.1243 44.5198 40.7258 44.1806 41.2382C43.8414 41.7507 43.3579 42.151 42.7912 42.3887C42.6889 42.4314 42.5844 42.4689 42.4783 42.5011ZM40.9609 37.4232C40.8862 37.4456 40.8127 37.472 40.7407 37.5022C40.2046 37.7272 39.7798 38.156 39.5597 38.6941C39.3396 39.2322 39.3422 39.8357 39.5669 40.3719C39.7308 40.7628 40.0045 41.0978 40.3548 41.3363C40.705 41.5749 41.1169 41.7069 41.5406 41.7163C41.9644 41.7258 42.3817 41.6122 42.7422 41.3894C43.1028 41.1666 43.391 40.8441 43.5721 40.461C43.7533 40.0778 43.8195 39.6504 43.7627 39.2304C43.706 38.8104 43.5288 38.4158 43.2526 38.0944C42.9764 37.7729 42.6129 37.5384 42.2062 37.4192C41.7995 37.3 41.367 37.3017 40.9609 37.4232Z" fill="#292A2E"/>
<path d="M41.5919 45.7321C43.8356 45.7321 45.6546 44.5173 45.6546 43.0187C45.6546 41.52 43.8356 40.3052 41.5919 40.3052C39.3481 40.3052 37.5292 41.52 37.5292 43.0187C37.5292 44.5173 39.3481 45.7321 41.5919 45.7321Z" fill="white"/>
<path d="M43.3889 45.9314C42.8064 46.1038 42.2021 46.1906 41.5947 46.1891C39.0603 46.1891 37.0737 44.8001 37.0714 43.0224C37.0691 41.2446 39.0543 39.8506 41.5883 39.8483C42.693 39.8272 43.7799 40.1289 44.7157 40.7164C45.1358 40.9355 45.4879 41.2654 45.7338 41.6704C45.9796 42.0755 46.1098 42.5401 46.1102 43.0139C46.1105 43.4878 45.9811 43.9526 45.7359 44.358C45.4907 44.7635 45.1391 45.094 44.7193 45.3137C44.3089 45.5844 43.8605 45.7926 43.3889 45.9314ZM40.0723 40.9832C38.8515 41.3488 37.9857 42.1374 37.9866 43.0237C37.9866 44.2473 39.6392 45.279 41.5937 45.2776C42.518 45.297 43.4279 45.0466 44.2122 44.5571C44.5064 44.4216 44.7556 44.2045 44.9302 43.9316C45.1047 43.6587 45.1974 43.3415 45.1971 43.0176C45.1968 42.6937 45.1036 42.3766 44.9285 42.1041C44.7535 41.8315 44.5039 41.6149 44.2095 41.4799C43.4244 40.9919 42.5142 40.7433 41.5901 40.7644C41.0762 40.7634 40.5649 40.8371 40.0723 40.9832Z" fill="#292A2E"/>
<path d="M42.5884 45.6491L42.4924 40.3724L41.1802 40.319L41.0884 45.7108L42.5884 45.6491Z" fill="#292A2E"/>
<path d="M36.2019 44.1665C36.4335 44.1665 36.6213 43.9787 36.6213 43.7471C36.6213 43.5154 36.4335 43.3276 36.2019 43.3276C35.9703 43.3276 35.7825 43.5154 35.7825 43.7471C35.7825 43.9787 35.9703 44.1665 36.2019 44.1665Z" fill="#292A2E"/>
<path d="M36.5295 41.9222C36.7612 41.9222 36.949 41.7344 36.949 41.5028C36.949 41.2712 36.7612 41.0834 36.5295 41.0834C36.2979 41.0834 36.1101 41.2712 36.1101 41.5028C36.1101 41.7344 36.2979 41.9222 36.5295 41.9222Z" fill="#292A2E"/>
<path d="M175.742 60.6598C175.644 60.6598 175.549 60.6284 175.47 60.5703C175.391 60.5121 175.333 60.4303 175.305 60.3368C173.789 54.6777 173.385 48.7783 174.114 42.9653C175.295 34.4671 179.981 23.3139 195.602 18.4301C197.8 17.7235 200.054 17.2066 202.34 16.8854C203.076 12.2904 205.876 7.3016 212.135 3.86119C227.013 -4.31354 237.062 3.02097 237.162 3.0959C237.259 3.1686 237.323 3.27684 237.34 3.3968C237.357 3.51675 237.326 3.63861 237.253 3.73555C237.181 3.83249 237.073 3.89657 236.953 3.91371C236.833 3.93085 236.711 3.89963 236.614 3.82692C236.519 3.75565 226.915 -3.21699 212.576 4.66258C206.725 7.87774 204.046 12.4924 203.285 16.7762C210.174 16.0977 213.474 18.3959 214.954 20.1316C215.871 21.1752 216.46 22.4655 216.649 23.8416C216.837 25.2177 216.616 26.6189 216.014 27.8705C215.537 28.8816 214.766 29.7245 213.8 30.2881C212.835 30.8516 211.721 31.1093 210.607 31.0271C206.759 30.8014 203.575 27.5648 202.496 22.7811C202.14 21.1618 202.045 19.4959 202.215 17.8467C200.065 18.1556 197.944 18.6433 195.875 19.3046C183.701 23.111 176.685 31.1153 175.019 43.0937C174.304 48.7748 174.698 54.5405 176.178 60.0718C176.199 60.1401 176.204 60.2124 176.192 60.2828C176.18 60.3532 176.151 60.4199 176.109 60.4773C176.066 60.5348 176.011 60.5814 175.947 60.6136C175.883 60.6458 175.813 60.6626 175.742 60.6626V60.6598ZM203.147 17.7325C202.957 19.3503 203.038 20.9886 203.387 22.5796C204.375 26.9558 207.229 29.9132 210.66 30.1147C211.595 30.1816 212.529 29.9644 213.338 29.4915C214.147 29.0186 214.795 28.3122 215.196 27.4647C215.718 26.3735 215.908 25.1529 215.741 23.9547C215.575 22.7565 215.06 21.6337 214.26 20.726C212.124 18.2191 208.225 17.2066 203.147 17.7325Z" fill="#292A2E"/>
<path d="M247.807 7.71412C247.191 7.71292 246.589 7.53771 246.069 7.20873C245.549 6.87975 245.132 6.41041 244.867 5.85487C244.603 5.29934 244.5 4.68025 244.572 4.06908C244.645 3.45791 244.888 2.87956 245.275 2.40079C245.661 1.92203 246.175 1.56235 246.758 1.36329C247.34 1.16423 247.967 1.1339 248.566 1.27579C249.164 1.41768 249.711 1.72601 250.142 2.1652C250.573 2.60439 250.871 3.15652 251.002 3.75788C251.104 4.23453 251.099 4.72805 250.986 5.2023C250.873 5.67655 250.655 6.11953 250.349 6.49881C250.043 6.8781 249.655 7.18408 249.215 7.39436C248.776 7.60463 248.294 7.71389 247.807 7.71412ZM247.814 2.10165C247.328 2.10154 246.854 2.25218 246.457 2.53279C246.06 2.8134 245.76 3.21018 245.598 3.66842C245.436 4.12667 245.421 4.62383 245.553 5.09137C245.686 5.55891 245.96 5.97382 246.339 6.2789C246.717 6.58399 247.18 6.76422 247.665 6.79477C248.151 6.82532 248.633 6.70468 249.047 6.44948C249.46 6.19427 249.784 5.81707 249.975 5.36986C250.165 4.92265 250.212 4.42745 250.109 3.95252C249.998 3.42672 249.709 2.95526 249.291 2.61797C248.873 2.28067 248.351 2.09827 247.814 2.10165Z" fill="#292A2E"/>
<path d="M246.431 15.171C245.593 15.1708 244.788 14.8496 244.18 14.2735C243.572 13.6974 243.209 12.9103 243.164 12.0741C243.119 11.2379 243.396 10.4163 243.939 9.7785C244.481 9.14067 245.248 8.73512 246.08 8.64534C246.913 8.55555 247.748 8.78836 248.414 9.29584C249.081 9.80332 249.527 10.5469 249.661 11.3734C249.796 12.1999 249.608 13.0465 249.137 13.7389C248.666 14.4314 247.948 14.9169 247.13 15.0956C246.9 15.1457 246.666 15.171 246.431 15.171ZM246.443 9.55808C246.274 9.55818 246.105 9.57641 245.94 9.61245C245.356 9.74063 244.844 10.0876 244.508 10.582C244.173 11.0764 244.04 11.6807 244.136 12.2704C244.232 12.8601 244.551 13.3905 245.026 13.7523C245.502 14.1142 246.098 14.2801 246.692 14.2158C247.286 14.1515 247.833 13.862 248.22 13.4068C248.607 12.9516 248.805 12.3654 248.773 11.7687C248.741 11.172 248.482 10.6103 248.048 10.1991C247.615 9.78788 247.04 9.55848 246.443 9.55808Z" fill="#292A2E"/>
<path d="M251.338 9.04913C251.626 7.48854 249.965 5.87391 247.628 5.44276C245.292 5.01161 243.164 5.92719 242.876 7.48778C242.588 9.04837 244.249 10.663 246.586 11.0942C248.922 11.5253 251.05 10.6097 251.338 9.04913Z" fill="white"/>
<path d="M247.738 11.658C247.325 11.6573 246.912 11.6191 246.505 11.5437C245.356 11.3531 244.287 10.8313 243.43 10.0424C243.055 9.72239 242.767 9.313 242.592 8.85205C242.417 8.39111 242.361 7.89349 242.429 7.4052C242.54 6.92474 242.77 6.4799 243.098 6.11177C243.426 5.74364 243.841 5.46408 244.306 5.29893C245.393 4.88827 246.571 4.78264 247.714 4.99346C248.856 5.20429 249.92 5.72355 250.789 6.49507C251.164 6.81507 251.452 7.22447 251.627 7.68541C251.802 8.14636 251.858 8.64397 251.79 9.13226C251.679 9.61272 251.449 10.0576 251.121 10.4257C250.793 10.7938 250.378 11.0734 249.913 11.2385C249.224 11.5238 248.484 11.6664 247.738 11.658ZM246.476 5.79237C245.856 5.78448 245.24 5.90213 244.667 6.13824C244.342 6.24696 244.049 6.4349 243.816 6.68507C243.582 6.93524 243.414 7.23975 243.328 7.57106C243.29 7.91143 243.338 8.25584 243.467 8.573C243.596 8.89017 243.802 9.17004 244.067 9.3872C244.806 10.0322 245.705 10.4666 246.67 10.6446C247.635 10.8227 248.629 10.7379 249.55 10.3992C249.875 10.2905 250.167 10.1026 250.401 9.85243C250.635 9.60225 250.802 9.29772 250.889 8.96641C250.926 8.62605 250.878 8.28172 250.749 7.9646C250.62 7.64748 250.414 7.36759 250.149 7.15026C249.422 6.48674 248.517 6.04964 247.545 5.89243C247.192 5.82681 246.835 5.79332 246.476 5.79237Z" fill="#292A2E"/>
<path d="M246.58 5.3374L245.661 10.8503L247.016 11.1591L248.153 5.56265L246.58 5.3374Z" fill="#292A2E"/>
<path d="M252.087 11.2683C252.333 11.2683 252.532 11.0695 252.532 10.8242C252.532 10.579 252.333 10.3801 252.087 10.3801C251.842 10.3801 251.643 10.579 251.643 10.8242C251.643 11.0695 251.842 11.2683 252.087 11.2683Z" fill="#292A2E"/>
<path d="M252.861 8.99477C253.107 8.99477 253.306 8.79594 253.306 8.55067C253.306 8.3054 253.107 8.10657 252.861 8.10657C252.616 8.10657 252.417 8.3054 252.417 8.55067C252.417 8.79594 252.616 8.99477 252.861 8.99477Z" fill="#292A2E"/>
<path d="M144.557 130.196C144.227 130.196 143.91 130.064 143.677 129.831C143.443 129.597 143.312 129.281 143.312 128.951V119.226C143.312 113.856 141.179 108.706 137.382 104.908C133.584 101.111 128.434 98.9774 123.064 98.9774C117.693 98.9774 112.543 101.111 108.746 104.908C104.948 108.706 102.815 113.856 102.815 119.226V128.951C102.815 129.281 102.684 129.598 102.45 129.831C102.217 130.065 101.9 130.196 101.57 130.196C101.239 130.196 100.923 130.065 100.689 129.831C100.456 129.598 100.324 129.281 100.324 128.951V119.226C100.307 116.229 100.883 113.258 102.018 110.484C103.153 107.711 104.825 105.188 106.938 103.063C109.052 100.938 111.564 99.2513 114.331 98.1004C117.099 96.9495 120.066 96.3571 123.063 96.3571C126.06 96.3571 129.028 96.9495 131.795 98.1004C134.563 99.2513 137.075 100.938 139.188 103.063C141.301 105.188 142.974 107.711 144.109 110.484C145.244 113.258 145.819 116.229 145.802 119.226V128.951C145.802 129.281 145.671 129.598 145.438 129.831C145.204 130.065 144.887 130.196 144.557 130.196Z" fill="#494945"/>
<path d="M174.05 120.547H147.849V261.962H174.05V120.547Z" fill="#AC3A99"/>
<path opacity="0.21" d="M174.05 120.547H147.849V261.962H174.05V120.547Z" fill="#0A0A0A"/>
<path d="M147.849 120.547H45.8678V261.962H147.849V120.547Z" fill="#AC3A99"/>
<path d="M118.353 130.196C118.023 130.196 117.707 130.064 117.473 129.831C117.24 129.597 117.109 129.281 117.109 128.951V119.226C117.125 116.557 116.613 113.91 115.603 111.439C114.592 108.969 113.103 106.722 111.221 104.829C109.339 102.935 107.102 101.433 104.637 100.407C102.172 99.3821 99.5291 98.8543 96.8596 98.8543C94.1901 98.8543 91.5469 99.3821 89.0822 100.407C86.6175 101.433 84.3798 102.935 82.4979 104.829C80.616 106.722 79.127 108.969 78.1166 111.439C77.1062 113.91 76.5944 116.557 76.6105 119.226V128.951C76.6146 129.117 76.5854 129.282 76.5246 129.436C76.4639 129.591 76.3728 129.732 76.2568 129.851C76.1408 129.97 76.0022 130.064 75.8491 130.128C75.6961 130.193 75.5317 130.226 75.3656 130.226C75.1995 130.226 75.0351 130.193 74.882 130.128C74.7289 130.064 74.5903 129.97 74.4743 129.851C74.3583 129.732 74.2673 129.591 74.2065 129.436C74.1458 129.282 74.1166 129.117 74.1206 128.951V119.226C74.1035 116.229 74.6791 113.258 75.8141 110.484C76.9492 107.711 78.6214 105.188 80.7346 103.063C82.8479 100.938 85.3604 99.2513 88.1277 98.1004C90.895 96.9495 93.8625 96.3571 96.8596 96.3571C99.8567 96.3571 102.824 96.9495 105.592 98.1004C108.359 99.2513 110.871 100.938 112.985 103.063C115.098 105.188 116.77 107.711 117.905 110.484C119.04 113.258 119.616 116.229 119.599 119.226V128.951C119.599 129.281 119.467 129.598 119.234 129.831C119 130.065 118.684 130.196 118.353 130.196Z" fill="#494945"/>
<path opacity="0.11" d="M147.849 120.547L160.949 134.656L174.049 120.547H147.849Z" fill="#0A0A0A"/>
<path opacity="0.11" d="M147.849 261.961L160.949 247.852L174.049 261.961H147.849Z" fill="#0A0A0A"/>
<path d="M261.978 261.961H235.777L225.172 154.585H251.373L261.978 261.961Z" fill="#0977F5"/>
<path opacity="0.21" d="M261.978 261.961H235.777L225.172 154.585H251.373L261.978 261.961Z" fill="#0A0A0A"/>
<path d="M235.776 261.961H133.796L144.401 154.585H225.172L235.776 261.961Z" fill="#0977F5"/>
<path d="M184.787 198.521C181.801 198.521 178.844 197.932 176.086 196.79C173.327 195.647 170.82 193.972 168.709 191.86C166.597 189.749 164.922 187.242 163.779 184.483C162.637 181.724 162.049 178.767 162.049 175.781V166.055C162.045 165.889 162.074 165.724 162.135 165.57C162.195 165.415 162.287 165.274 162.403 165.155C162.519 165.036 162.657 164.942 162.81 164.877C162.963 164.813 163.128 164.78 163.294 164.78C163.46 164.78 163.624 164.813 163.777 164.877C163.93 164.942 164.069 165.036 164.185 165.155C164.301 165.274 164.392 165.415 164.453 165.57C164.514 165.724 164.543 165.889 164.539 166.055V175.78C164.539 181.15 166.672 186.3 170.469 190.098C174.267 193.895 179.417 196.028 184.787 196.028C190.158 196.028 195.308 193.895 199.105 190.098C202.903 186.3 205.036 181.15 205.036 175.78V166.055C205.036 165.725 205.167 165.408 205.401 165.175C205.634 164.941 205.951 164.81 206.281 164.81C206.612 164.81 206.928 164.941 207.162 165.175C207.396 165.408 207.527 165.725 207.527 166.055V175.78C207.52 181.809 205.123 187.589 200.86 191.852C196.597 196.116 190.816 198.514 184.787 198.521Z" fill="white"/>
<path opacity="0.08" d="M225.172 154.585L239.637 168.694L251.373 154.585H225.172Z" fill="#0A0A0A"/>
<path opacity="0.08" d="M235.776 261.962L247.479 247.852L261.978 261.962H235.776Z" fill="#0A0A0A"/>
</g>
<defs>
<clipPath id="clip0_327_3342">
<rect width="300" height="329.126" fill="white"/>
</clipPath>
</defs>
</svg>
