<svg width="300" height="256" viewBox="0 0 300 256" fill="none" xmlns="http://www.w3.org/2000/svg">
<g clip-path="url(#clip0_293_2765)">
<path opacity="0.1" d="M298.624 176.34C290.431 135.022 242.426 101.998 233.063 58.941C216.046 4.16053 159.957 -4.50036 123.509 19.2907C65.7566 56.9881 127.366 66.343 14.1331 155.533C-13.8267 177.555 -4.91744 274.769 83.0423 252.459C130.378 240.452 144.768 238.767 166.06 236.79C219.728 231.808 312.379 245.7 298.624 176.34Z" fill="#AC3A99" fill-opacity="0.698039"/>
<path d="M234.512 186.696L151.564 230.505L68.741 186.696V120.541H234.512V186.696Z" fill="white"/>
<path d="M151.564 231.177C151.454 231.177 151.346 231.15 151.25 231.099L68.4292 187.289C68.3215 187.233 68.2313 187.148 68.1683 187.043C68.1052 186.939 68.0717 186.82 68.0712 186.698V120.541C68.0712 120.362 68.142 120.191 68.268 120.065C68.394 119.939 68.5649 119.869 68.7431 119.869H234.512C234.69 119.869 234.861 119.939 234.987 120.065C235.113 120.191 235.184 120.362 235.184 120.541V186.696C235.184 186.818 235.15 186.937 235.087 187.041C235.024 187.145 234.934 187.23 234.826 187.287L151.878 231.097C151.781 231.149 151.674 231.177 151.564 231.177ZM69.4129 186.292L151.564 229.746L233.84 186.291V121.213H69.4129V186.292Z" fill="#AC3A99" fill-opacity="0.698039"/>
<path d="M234.512 106.345L151.564 62.5356L188.838 44.5693L271.786 88.3791L234.512 106.345Z" fill="white"/>
<path d="M234.512 107.017C234.403 107.017 234.295 106.99 234.198 106.939L151.25 63.1296C151.14 63.0714 151.049 62.9839 150.985 62.8768C150.922 62.7697 150.89 62.6472 150.892 62.5229C150.895 62.3986 150.931 62.2774 150.998 62.1727C151.065 62.068 151.16 61.9839 151.272 61.9298L188.546 43.9635C188.641 43.9176 188.745 43.8946 188.85 43.8966C188.955 43.8986 189.059 43.9254 189.152 43.9748L272.1 87.7845C272.21 87.8426 272.301 87.9301 272.365 88.0371C272.428 88.1442 272.46 88.2667 272.458 88.3909C272.455 88.5152 272.419 88.6365 272.352 88.7411C272.285 88.8458 272.19 88.9298 272.078 88.9838L234.804 106.95C234.713 106.994 234.613 107.017 234.512 107.017ZM153.055 62.562L234.526 105.591L270.295 88.3506L188.824 45.3224L153.055 62.562Z" fill="#AC3A99" fill-opacity="0.698039"/>
<path d="M68.741 106.345L151.689 62.5356L114.415 44.5693L31.4672 88.3791L68.741 106.345Z" fill="white"/>
<path d="M68.741 107.017C68.6399 107.017 68.5401 106.994 68.4491 106.95L31.1775 88.9838C31.0655 88.9298 30.9707 88.8458 30.9037 88.7411C30.8366 88.6365 30.7999 88.5152 30.7976 88.3909C30.7953 88.2667 30.8276 88.1442 30.8907 88.0371C30.9539 87.9301 31.0456 87.8426 31.1555 87.7845L114.104 43.9748C114.197 43.9254 114.3 43.8986 114.405 43.8966C114.511 43.8946 114.615 43.9176 114.71 43.9635L151.983 61.9298C152.095 61.9839 152.19 62.068 152.257 62.1727C152.324 62.2774 152.361 62.3986 152.363 62.5229C152.365 62.6472 152.333 62.7697 152.27 62.8768C152.207 62.9839 152.115 63.0714 152.005 63.1296L69.0571 106.939C68.9596 106.991 68.8511 107.017 68.741 107.017ZM32.9578 88.3517L68.727 105.592L150.199 62.563L114.429 45.3224L32.9578 88.3517Z" fill="#AC3A99" fill-opacity="0.698039"/>
<path d="M68.741 106.345L151.689 150.154L109.04 173.496L26.0918 129.686L68.741 106.345Z" fill="white"/>
<path d="M109.04 174.167C108.931 174.168 108.823 174.141 108.726 174.09L25.7779 130.28C25.6708 130.223 25.5811 130.138 25.5182 130.035C25.4553 129.931 25.4217 129.812 25.4208 129.691C25.4199 129.57 25.4518 129.451 25.5132 129.346C25.5745 129.242 25.663 129.156 25.7693 129.097L68.4185 105.755C68.5159 105.702 68.625 105.674 68.7362 105.673C68.8473 105.672 68.9568 105.699 69.0549 105.751L152.003 149.561C152.11 149.618 152.2 149.702 152.263 149.806C152.326 149.91 152.359 150.028 152.36 150.15C152.361 150.271 152.329 150.39 152.268 150.495C152.207 150.599 152.118 150.685 152.012 150.743L109.363 174.085C109.264 174.139 109.153 174.167 109.04 174.167ZM27.5109 129.676L109.034 172.733L150.271 150.165L68.7469 107.107L27.5109 129.676Z" fill="#AC3A99" fill-opacity="0.698039"/>
<path d="M234.512 106.345L151.564 150.154L194.213 173.496L277.161 129.686L234.512 106.345Z" fill="white"/>
<path d="M194.214 174.167C194.102 174.167 193.991 174.139 193.892 174.085L151.243 150.743C151.136 150.685 151.048 150.599 150.986 150.495C150.925 150.39 150.893 150.271 150.894 150.15C150.895 150.028 150.929 149.91 150.991 149.806C151.054 149.702 151.144 149.618 151.251 149.561L234.199 105.751C234.298 105.699 234.407 105.672 234.518 105.673C234.629 105.674 234.738 105.702 234.836 105.755L277.485 129.097C277.591 129.156 277.68 129.242 277.741 129.346C277.802 129.451 277.834 129.57 277.834 129.691C277.833 129.812 277.799 129.931 277.736 130.035C277.673 130.138 277.584 130.223 277.476 130.28L194.528 174.09C194.432 174.141 194.324 174.168 194.214 174.167ZM152.985 150.165L194.221 172.733L275.744 129.676L234.508 107.107L152.985 150.165Z" fill="#AC3A99" fill-opacity="0.698039"/>
<path d="M151.689 62.5356L68.741 106.345L151.564 150.155L234.512 106.345L151.689 62.5356Z" fill="#AC3A99" fill-opacity="0.698039"/>
<path d="M152.236 150.154H150.892V230.505H152.236V150.154Z" fill="#AC3A99" fill-opacity="0.698039"/>
<path d="M105.09 102.368C104.978 102.368 104.87 102.333 104.779 102.268C104.663 102.186 104.584 102.06 104.56 101.92C104.536 101.779 104.569 101.635 104.652 101.519C104.751 101.378 114.466 87.3335 103.621 74.5292C101.701 72.2512 99.3065 70.4205 96.6048 69.1655C93.9031 67.9104 90.9597 67.2614 87.9807 67.2638H87.8345C88.8644 70.8417 88.6806 74.0229 87.2223 76.4633C86.6009 77.5661 85.6839 78.4735 84.5746 79.0832C83.4653 79.6929 82.2078 79.9808 80.9438 79.9144C79.8974 79.8287 78.8987 79.4397 78.0701 78.795C77.2415 78.1503 76.6188 77.278 76.2784 76.2849C75.0856 73.1736 76.3322 70.1569 79.6176 68.2126C81.699 67.0648 84.0117 66.3996 86.3848 66.2661C85.6128 64.2194 84.6089 62.2677 83.3928 60.4494C79.4768 54.4687 72.3398 50.3285 63.8112 49.0906C56.5834 48.0418 49.6566 49.2771 46.162 52.2368C46.0532 52.3289 45.9122 52.374 45.7701 52.3621C45.628 52.3503 45.4965 52.2825 45.4044 52.1736C45.3123 52.0648 45.2672 51.9238 45.279 51.7817C45.2909 51.6396 45.3587 51.5081 45.4675 51.416C49.1863 48.2665 56.4469 46.935 63.9655 48.0295C72.7989 49.312 80.2073 53.6247 84.2927 59.8629C85.6171 61.8413 86.6945 63.9744 87.5007 66.2145C90.7143 66.1373 93.9042 66.7821 96.8355 68.1013C99.7668 69.4204 102.365 71.3804 104.438 73.8369C115.83 87.2857 105.63 101.996 105.526 102.143C105.476 102.213 105.41 102.269 105.335 102.308C105.259 102.347 105.175 102.367 105.09 102.368ZM86.7336 67.3031C84.4328 67.4012 82.1858 68.0292 80.1675 69.1382C77.3315 70.8164 76.2811 73.2816 77.2847 75.9005C77.5566 76.703 78.0565 77.4088 78.7233 77.9316C79.3901 78.4544 80.1947 78.7715 81.0389 78.8441C82.1018 78.8917 83.1569 78.6427 84.0864 78.125C85.0159 77.6072 85.783 76.8411 86.302 75.9123C87.6405 73.6708 87.763 70.6912 86.732 67.3031H86.7336Z" fill="#292A2E"/>
<path d="M36.8846 60.9033C35.9711 61.1777 34.9866 61.0847 34.1407 60.6441C33.2947 60.2035 32.6542 59.45 32.3555 58.5442C32.0568 57.6384 32.1235 56.6517 32.5413 55.7944C32.9592 54.937 33.6953 54.2766 34.5928 53.9538C35.4903 53.631 36.4784 53.6713 37.3467 54.0661C38.2149 54.461 38.8947 55.1791 39.2414 56.0677C39.588 56.9563 39.5741 57.9451 39.2026 58.8236C38.831 59.7021 38.1313 60.4008 37.2523 60.7711C37.1322 60.8218 37.0095 60.8659 36.8846 60.9033ZM35.0973 54.9301C35.0102 54.9563 34.9246 54.9871 34.8408 55.0226C34.2224 55.2833 33.7301 55.7753 33.469 56.3936C33.2078 57.012 33.1984 57.7078 33.4427 58.333C33.687 58.9582 34.1658 59.4633 34.777 59.7407C35.3882 60.0181 36.0836 60.046 36.715 59.8183C37.3464 59.5906 37.864 59.1254 38.1575 58.5217C38.451 57.9181 38.4973 57.2237 38.2864 56.5865C38.0755 55.9492 37.6241 55.4195 37.0284 55.1101C36.4328 54.8007 35.7398 54.7362 35.0973 54.9301Z" fill="#292A2E"/>
<path d="M36.8781 52.4802C36.014 52.7382 35.0851 52.6677 34.2698 52.2822C33.4545 51.8967 32.8106 51.2234 32.4617 50.3918C32.182 49.7252 32.1062 48.9905 32.244 48.2808C32.3818 47.571 32.727 46.9181 33.236 46.4046C33.7449 45.8911 34.3946 45.54 35.1031 45.3957C35.8115 45.2515 36.5468 45.3206 37.216 45.5943C37.8852 45.868 38.4582 46.334 38.8625 46.9333C39.2668 47.5327 39.4844 48.2385 39.4876 48.9614C39.4907 49.6844 39.2795 50.3921 38.8804 50.995C38.4814 51.5979 37.9126 52.0689 37.2458 52.3485C37.1256 52.3987 37.0029 52.4427 36.8781 52.4802ZM35.093 46.5065C35.0048 46.5329 34.9182 46.5639 34.8333 46.5995C34.2027 46.8643 33.7031 47.3688 33.4442 48.0019C33.1854 48.635 33.1885 49.345 33.4529 49.9758C33.6458 50.4356 33.9677 50.8297 34.3798 51.1104C34.7919 51.3911 35.2765 51.5464 35.775 51.5575C36.2735 51.5686 36.7646 51.435 37.1887 51.1728C37.6129 50.9107 37.952 50.5313 38.1651 50.0805C38.3782 49.6297 38.4561 49.1268 38.3894 48.6327C38.3226 48.1385 38.1142 47.6743 37.7892 47.2961C37.4642 46.918 37.0366 46.6421 36.5581 46.5019C36.0796 46.3616 35.5707 46.3636 35.093 46.5065Z" fill="#292A2E"/>
<path d="M35.8348 56.2819C38.4746 56.2819 40.6146 54.8526 40.6146 53.0894C40.6146 51.3263 38.4746 49.897 35.8348 49.897C33.1949 49.897 31.0549 51.3263 31.0549 53.0894C31.0549 54.8526 33.1949 56.2819 35.8348 56.2819Z" fill="white"/>
<path d="M37.9505 56.5165C37.2652 56.7191 36.5542 56.8212 35.8396 56.8197C32.8573 56.8197 30.5179 55.1856 30.5179 53.094C30.5179 51.0024 32.8503 49.3624 35.8315 49.3591C37.1313 49.3342 38.4101 49.6892 39.511 50.3805C40.0055 50.6381 40.4199 51.0262 40.7093 51.5028C40.9987 51.9794 41.1519 52.5261 41.1524 53.0837C41.1529 53.6412 41.0006 54.1882 40.7121 54.6653C40.4236 55.1424 40.0099 55.5313 39.5159 55.7898C39.0329 56.1082 38.5054 56.3531 37.9505 56.5165ZM34.0469 50.6901C32.6106 51.1201 31.5925 52.0485 31.593 53.0913C31.593 54.5303 33.5373 55.7446 35.8396 55.7425C36.9272 55.7653 37.9978 55.471 38.9208 54.8953C39.267 54.7359 39.5601 54.4805 39.7655 54.1594C39.9709 53.8384 40.0799 53.4652 40.0795 53.0841C40.0792 52.703 39.9696 52.33 39.7636 52.0093C39.5576 51.6886 39.264 51.4338 38.9176 51.2749C37.9939 50.7005 36.9227 50.4079 35.8353 50.4331C35.2299 50.4316 34.6274 50.5181 34.0469 50.6901Z" fill="#292A2E"/>
<path d="M37.0071 56.1846L36.8943 49.9759L35.3504 49.9136L35.2424 56.2571L37.0071 56.1846Z" fill="#292A2E"/>
<path d="M29.4934 54.4401C29.7659 54.4401 29.9868 54.2191 29.9868 53.9466C29.9868 53.6741 29.7659 53.4531 29.4934 53.4531C29.2208 53.4531 28.9999 53.6741 28.9999 53.9466C28.9999 54.2191 29.2208 54.4401 29.4934 54.4401Z" fill="#292A2E"/>
<path d="M29.8788 51.7994C30.1513 51.7994 30.3723 51.5785 30.3723 51.306C30.3723 51.0334 30.1513 50.8125 29.8788 50.8125C29.6063 50.8125 29.3853 51.0334 29.3853 51.306C29.3853 51.5785 29.6063 51.7994 29.8788 51.7994Z" fill="#292A2E"/>
<path d="M189.551 71.3674C189.436 71.3674 189.324 71.3304 189.232 71.262C189.139 71.1936 189.071 71.0973 189.037 70.9873C187.254 64.3292 186.778 57.3886 187.636 50.5494C189.026 40.5511 194.54 27.4291 212.917 21.6833C215.503 20.852 218.155 20.244 220.845 19.8659C221.711 14.4577 225.005 8.59095 232.372 4.54325C249.875 -5.07447 261.698 3.55471 261.816 3.64287C261.93 3.72841 262.005 3.85575 262.025 3.99688C262.045 4.13801 262.009 4.28138 261.923 4.39543C261.838 4.50948 261.71 4.58488 261.569 4.60504C261.428 4.6252 261.285 4.58847 261.171 4.50294C261.059 4.41908 249.76 -3.78436 232.89 5.4861C226.006 9.26879 222.855 14.698 221.959 19.738C230.065 18.9397 233.946 21.6436 235.688 23.6857C236.766 24.9137 237.459 26.4318 237.68 28.0507C237.901 29.6697 237.641 31.3179 236.932 32.7901C236.372 33.98 235.464 34.972 234.328 35.635C233.192 36.2981 231.882 36.6011 230.57 36.5039C226.044 36.2384 222.298 32.4304 221.028 26.8024C220.609 24.8972 220.498 22.9373 220.698 20.9969C218.168 21.3603 215.673 21.9341 213.238 22.7122C198.916 27.1905 190.662 36.6077 188.701 50.7005C187.861 57.3844 188.324 64.1679 190.065 70.6755C190.09 70.7559 190.095 70.841 190.081 70.9238C190.067 71.0067 190.033 71.085 189.983 71.1526C189.933 71.2202 189.868 71.2751 189.793 71.313C189.718 71.3509 189.635 71.3706 189.551 71.3706V71.3674ZM221.794 20.8625C221.57 22.7659 221.666 24.6934 222.077 26.5653C223.238 31.7139 226.597 35.1934 230.633 35.4305C231.733 35.5093 232.832 35.2538 233.784 34.6974C234.736 34.141 235.498 33.3098 235.97 32.3127C236.585 31.029 236.808 29.5928 236.612 28.183C236.416 26.7733 235.81 25.4522 234.869 24.3845C232.356 21.435 227.769 20.2438 221.794 20.8625Z" fill="#292A2E"/>
<path d="M274.337 9.07572C273.613 9.0742 272.904 8.86798 272.293 8.48087C271.681 8.09376 271.191 7.54153 270.879 6.88792C270.568 6.23431 270.448 5.50596 270.532 4.78693C270.617 4.06791 270.904 3.38751 271.359 2.82428C271.814 2.26105 272.418 1.83794 273.104 1.60379C273.789 1.36963 274.526 1.33397 275.231 1.50093C275.935 1.66789 276.578 2.03065 277.085 2.54736C277.592 3.06406 277.943 3.71364 278.097 4.42113C278.217 4.98196 278.211 5.56264 278.078 6.12064C277.945 6.67865 277.689 7.19985 277.328 7.6461C276.968 8.09234 276.512 8.45232 275.995 8.69968C275.477 8.94705 274.911 9.07553 274.337 9.07572ZM274.345 2.47254C273.773 2.47253 273.216 2.64984 272.749 2.98006C272.282 3.31027 271.93 3.77712 271.739 4.31626C271.549 4.8554 271.531 5.4403 271.687 5.99033C271.843 6.54036 272.165 7.02845 272.611 7.38733C273.056 7.7462 273.601 7.9582 274.172 7.9941C274.742 8.03 275.31 7.88804 275.797 7.58777C276.283 7.2875 276.664 6.84372 276.888 6.31759C277.112 5.79145 277.167 5.20887 277.046 4.65013C276.915 4.03194 276.575 3.47782 276.083 3.08116C275.591 2.68451 274.977 2.46956 274.345 2.47254Z" fill="#292A2E"/>
<path d="M272.719 17.8492C271.733 17.8491 270.786 17.4713 270.071 16.7936C269.356 16.1159 268.927 15.1898 268.875 14.206C268.822 13.2222 269.148 12.2555 269.786 11.5051C270.425 10.7546 271.326 10.2774 272.306 10.1716C273.285 10.0659 274.268 10.3398 275.052 10.9368C275.836 11.5339 276.361 12.4086 276.519 13.3811C276.677 14.3535 276.456 15.3496 275.902 16.1643C275.348 16.979 274.503 17.5502 273.541 17.7605C273.271 17.8194 272.995 17.8492 272.719 17.8492ZM272.732 11.2455C272.533 11.2456 272.335 11.267 272.141 11.3094C271.454 11.4602 270.851 11.8685 270.457 12.4502C270.062 13.0319 269.905 13.7427 270.018 14.4366C270.132 15.1304 270.507 15.7543 271.066 16.1801C271.626 16.6058 272.327 16.801 273.026 16.7254C273.725 16.6498 274.368 16.3091 274.824 15.7736C275.279 15.2381 275.512 14.5483 275.474 13.8463C275.437 13.1443 275.131 12.4834 274.621 11.9996C274.111 11.5158 273.435 11.2459 272.732 11.2455Z" fill="#292A2E"/>
<path d="M278.492 10.6463C278.83 8.8102 276.877 6.91055 274.128 6.40328C271.379 5.89602 268.875 6.97325 268.537 8.80931C268.198 10.6454 270.152 12.545 272.901 13.0523C275.65 13.5595 278.153 12.4823 278.492 10.6463Z" fill="white"/>
<path d="M274.254 13.7155C273.768 13.7148 273.282 13.6698 272.803 13.5812C271.451 13.3569 270.194 12.743 269.186 11.8148C268.745 11.4383 268.405 10.9567 268.2 10.4143C267.994 9.87203 267.928 9.28658 268.008 8.7121C268.138 8.14683 268.409 7.62346 268.795 7.19035C269.18 6.75724 269.669 6.42834 270.216 6.23403C271.494 5.75109 272.881 5.62692 274.225 5.87496C275.569 6.123 276.82 6.7338 277.842 7.64131C278.283 8.0178 278.622 8.49946 278.828 9.04177C279.034 9.58408 279.1 10.1695 279.02 10.744C278.89 11.3093 278.619 11.8326 278.233 12.2658C277.847 12.6989 277.359 13.0278 276.812 13.2221C276.002 13.5575 275.132 13.7254 274.254 13.7155ZM272.77 6.81457C272.04 6.80529 271.316 6.9437 270.64 7.22149C270.258 7.34935 269.914 7.57046 269.639 7.8648C269.364 8.15915 269.167 8.51743 269.065 8.90723C269.021 9.30762 269.078 9.7127 269.23 10.0858C269.381 10.4589 269.624 10.7882 269.935 11.044C270.805 11.8029 271.862 12.3138 272.997 12.5233C274.132 12.7328 275.303 12.6331 276.386 12.2346C276.768 12.1068 277.112 11.8857 277.387 11.5913C277.662 11.297 277.859 10.9387 277.961 10.5489C278.005 10.1485 277.949 9.7433 277.797 9.37015C277.645 8.99701 277.402 8.66771 277.091 8.41215C276.235 7.63151 275.17 7.11725 274.027 6.93229C273.613 6.85519 273.193 6.81579 272.772 6.81457H272.77Z" fill="#292A2E"/>
<path d="M272.893 6.2793L271.812 12.7653L273.407 13.1287L274.745 6.54431L272.893 6.2793Z" fill="#292A2E"/>
<path d="M279.373 13.2574C279.662 13.2574 279.896 13.0235 279.896 12.7349C279.896 12.4463 279.662 12.2124 279.373 12.2124C279.085 12.2124 278.851 12.4463 278.851 12.7349C278.851 13.0235 279.085 13.2574 279.373 13.2574Z" fill="#292A2E"/>
<path d="M280.284 10.5826C280.573 10.5826 280.806 10.3487 280.806 10.0601C280.806 9.77153 280.573 9.5376 280.284 9.5376C279.995 9.5376 279.762 9.77153 279.762 10.0601C279.762 10.3487 279.995 10.5826 280.284 10.5826Z" fill="#292A2E"/>
</g>
<defs>
<clipPath id="clip0_293_2765">
<rect width="300" height="255.762" fill="white"/>
</clipPath>
</defs>
</svg>
