<svg width="300" height="272" viewBox="0 0 300 272" fill="none" xmlns="http://www.w3.org/2000/svg">
<g clip-path="url(#clip0_327_2888)">
<path d="M160.155 271.071C237.389 271.071 300 257.174 300 240.032C300 222.889 237.389 208.992 160.155 208.992C82.9211 208.992 20.3105 222.889 20.3105 240.032C20.3105 257.174 82.9211 271.071 160.155 271.071Z" fill="white"/>
<path opacity="0.16" d="M160.155 271.071C237.389 271.071 300 257.174 300 240.032C300 222.889 237.389 208.992 160.155 208.992C82.9211 208.992 20.3105 222.889 20.3105 240.032C20.3105 257.174 82.9211 271.071 160.155 271.071Z" fill="#AC3A99"/>
<path d="M30.333 93.8644C30.5347 93.4648 30.8556 93.1378 31.2512 92.9284C31.6468 92.7191 32.0977 92.6377 32.5415 92.6957C32.5376 92.6689 32.5402 92.6416 32.5493 92.6161C32.5583 92.5906 32.5734 92.5677 32.5933 92.5494C32.6132 92.5311 32.6373 92.5179 32.6635 92.5111C32.6896 92.5042 32.7171 92.5038 32.7434 92.51L31.2462 91.4368C30.7982 91.1304 30.4764 90.6721 30.3401 90.1467C30.2038 89.6214 30.2623 89.0644 30.5047 88.5789C30.7597 88.107 31.1808 87.7467 31.6864 87.5678C32.192 87.3889 32.7461 87.4042 33.241 87.6107C33.2374 87.5895 33.2514 87.5693 33.2545 87.5476L32.6393 87.1064C32.2185 86.8157 31.911 86.3886 31.7689 85.8973C31.6268 85.406 31.6588 84.8806 31.8596 84.4102C31.9915 84.1178 32.1866 83.8584 32.431 83.6505C32.6753 83.4427 32.9627 83.2917 33.2724 83.2084C33.5822 83.1251 33.9066 83.1116 34.2222 83.1688C34.5378 83.2261 34.8367 83.3526 35.0975 83.5394L36.5173 84.5571C36.5213 84.5486 36.5173 84.5387 36.5231 84.531C36.529 84.5233 36.5438 84.5202 36.552 84.5116C36.226 84.1449 36.0344 83.6784 36.0085 83.1885C35.9827 82.6986 36.1241 82.2144 36.4095 81.8155C37.0793 80.7369 38.6266 80.9591 39.5443 81.6153L47.9 87.3845L46.4064 84.8704C46.1055 84.3865 45.9995 83.8064 46.11 83.2474C46.2204 82.6885 46.539 82.1923 47.0013 81.8592C47.2456 81.6955 47.5208 81.5833 47.8099 81.5296C48.0991 81.4758 48.3962 81.4815 48.683 81.5465C48.9699 81.6114 49.2404 81.7341 49.4783 81.9071C49.7161 82.0802 49.9161 82.2999 50.0662 82.5528L58.2209 96.2816C59.1775 97.8921 59.4685 99.8121 59.032 101.634C58.5956 103.455 57.4661 105.035 55.8835 106.037C54.048 107.199 51.9073 107.787 49.7358 107.725C47.5642 107.662 45.4607 106.953 43.6949 105.688L31.0749 96.643C30.6567 96.3309 30.3559 95.8868 30.2213 95.3826C30.0867 94.8783 30.126 94.3435 30.333 93.8644Z" fill="#F0B39B"/>
<g opacity="0.25">
<path d="M44.786 90.2613C44.7551 90.3033 44.709 90.3316 44.6575 90.34C44.6061 90.3484 44.5534 90.3364 44.5107 90.3064L36.5713 84.8077C36.5299 84.7766 36.5021 84.7307 36.4939 84.6796C36.4856 84.6284 36.4975 84.5761 36.527 84.5335C36.5566 84.491 36.6014 84.4615 36.6522 84.4514C36.703 84.4412 36.7558 84.4512 36.7994 84.4791L44.7383 89.9779C44.7818 90.0081 44.8115 90.0543 44.821 90.1065C44.8305 90.1586 44.8189 90.2124 44.7888 90.2559L44.786 90.2613Z" fill="#0C0C0C"/>
</g>
<g opacity="0.25">
<path d="M42.4572 93.8297C42.4264 93.8716 42.3803 93.8998 42.3289 93.9083C42.2775 93.9167 42.2249 93.9047 42.1823 93.8747L33.3221 87.7396C33.3005 87.7247 33.2821 87.7056 33.2679 87.6835C33.2536 87.6614 33.2439 87.6367 33.2392 87.6108C33.2345 87.5849 33.235 87.5584 33.2405 87.5327C33.2461 87.507 33.2567 87.4827 33.2717 87.4611C33.303 87.419 33.3492 87.3905 33.4008 87.3812C33.4525 87.3719 33.5057 87.3826 33.5498 87.4111L42.4121 93.5475C42.4557 93.5778 42.4854 93.624 42.4949 93.6761C42.5043 93.7283 42.4927 93.782 42.4626 93.8256L42.4572 93.8297Z" fill="#0C0C0C"/>
</g>
<g opacity="0.25">
<path d="M39.9575 97.709C39.9266 97.751 39.8805 97.7792 39.829 97.7876C39.7776 97.796 39.7248 97.784 39.6822 97.754L32.6145 92.8602C32.593 92.8452 32.5746 92.8262 32.5604 92.8041C32.5462 92.782 32.5365 92.7573 32.5319 92.7315C32.5273 92.7057 32.5277 92.6792 32.5333 92.6536C32.5389 92.6279 32.5495 92.6036 32.5645 92.5821C32.5795 92.5606 32.5985 92.5422 32.6206 92.528C32.6427 92.5138 32.6673 92.5041 32.6932 92.4995C32.719 92.4948 32.7455 92.4953 32.7711 92.5009C32.7967 92.5065 32.821 92.5171 32.8426 92.5321L39.9098 97.4268C39.9314 97.4418 39.9498 97.4608 39.964 97.4829C39.9782 97.5049 39.988 97.5296 39.9927 97.5554C39.9974 97.5812 39.9969 97.6077 39.9913 97.6334C39.9858 97.659 39.9752 97.6834 39.9602 97.7049L39.9575 97.709Z" fill="#0C0C0C"/>
</g>
<path d="M59.8219 88.6018L88.2786 127.56L118.608 88.6018L140.551 111.11L99.1079 164.781L98.8374 165.163C97.1785 167.435 94.9685 169.247 92.4156 170.429C89.8627 171.611 87.051 172.123 84.2454 171.918C81.4398 171.712 78.7326 170.796 76.379 169.255C74.0253 167.715 72.1027 165.6 70.7922 163.111L35.4391 106.001L59.8219 88.6018Z" fill="#AC3A99"/>
<path d="M90.6263 132.465C90.6784 132.465 90.7295 132.451 90.7749 132.426C90.8202 132.4 90.8583 132.364 90.8854 132.319C90.9125 132.275 90.9278 132.224 90.9298 132.172C90.9318 132.12 90.9204 132.069 90.8968 132.022L88.5494 127.422C88.5094 127.356 88.446 127.308 88.372 127.287C88.2979 127.266 88.2187 127.274 88.1502 127.309C88.0817 127.344 88.029 127.404 88.0027 127.476C87.9765 127.548 87.9785 127.628 88.0086 127.699L90.3563 132.299C90.3817 132.349 90.4203 132.391 90.468 132.42C90.5156 132.449 90.5704 132.465 90.6263 132.465Z" fill="#0C0C0C"/>
<path d="M187.712 33.7661C187.712 33.7661 191.508 47.6391 195.709 52.098C207.805 64.9348 213.804 80.9229 206.436 91.4106C199.069 101.898 140.914 113.848 132.469 94.8865C125.36 78.924 132.957 75.5058 132.091 61.3228C131.699 54.9046 131.451 41.33 131.451 41.33" fill="#0A0A0A"/>
<path d="M142.261 84.3285C142.363 84.315 143.5 103.186 165.422 101.54C180.598 100.403 186.01 84.302 186.357 84.302C184.721 83.954 181.966 83.4483 181.239 83.0607C178.85 81.7766 175.892 80.4402 175.122 75.7997C174.678 73.1247 175.431 59.4388 175.2 56.7345L151.904 61.9335C152.229 67.6494 154.507 80.8995 146.523 83.2446C145.194 83.6326 143.763 83.9892 142.261 84.3285Z" fill="#F0B39B"/>
<path opacity="0.52" d="M151.577 77.8297C151.942 76.6537 152.177 75.4413 152.278 74.2141C152.534 71.4137 152.483 68.5936 152.126 65.8043C156.86 65.1651 161.321 63.2109 165.001 60.1636C165.434 61.7609 167.812 68.7411 167.154 70.2596C165.908 73.1302 160.058 77.8297 151.577 77.8297Z" fill="#0C0C0C"/>
<path d="M156.554 74.3272C165.731 73.3681 176.645 67.4002 176.62 54.924L176.598 43.6665C176.573 31.1903 170 21.0889 158.254 21.1123C146.506 21.1353 137.746 31.2669 137.77 43.7431L137.78 48.7271C137.789 53.5142 140.18 76.0386 156.554 74.3272Z" fill="#F0B39B"/>
<path opacity="0.52" d="M149.772 58.3188C149.765 58.3193 149.757 58.3193 149.75 58.3188C149.273 58.3166 148.797 58.2878 148.324 58.2328C147.616 58.1458 146.675 57.9583 146.673 57.3345C146.673 56.6233 148.604 48.9512 148.825 48.0768C148.833 48.0378 148.849 48.0008 148.872 47.9682C148.895 47.9355 148.924 47.9078 148.958 47.8867C148.992 47.8656 149.03 47.8515 149.069 47.8453C149.109 47.8392 149.149 47.8411 149.187 47.8508C149.226 47.8606 149.262 47.8781 149.294 47.9022C149.326 47.9264 149.353 47.9567 149.372 47.9913C149.392 48.026 149.405 48.0642 149.409 48.1039C149.414 48.1435 149.411 48.1837 149.399 48.222C148.575 51.4901 147.266 56.8545 147.267 57.3331C147.382 57.5328 148.567 57.728 149.748 57.7262C149.824 57.7272 149.897 57.7573 149.951 57.8102C150.005 57.8632 150.037 57.9349 150.04 58.0107C150.044 58.0866 150.017 58.1607 149.967 58.2178C149.918 58.2749 149.848 58.3108 149.772 58.3179V58.3188Z" fill="#0C0C0C"/>
<path opacity="0.52" d="M151.943 61.3508C153.838 61.2316 155.734 61.5595 157.479 62.3081C157.515 62.3229 157.548 62.3447 157.575 62.3721C157.603 62.3996 157.625 62.4322 157.64 62.4682C157.655 62.5041 157.663 62.5427 157.663 62.5817C157.663 62.6206 157.655 62.6592 157.641 62.6953C157.626 62.7313 157.604 62.7641 157.577 62.7917C157.549 62.8194 157.517 62.8413 157.481 62.8564C157.445 62.8714 157.406 62.8792 157.367 62.8793C157.328 62.8794 157.29 62.8719 157.253 62.8571C153.496 61.3319 150.113 61.6244 147.473 63.7022C147.42 63.746 147.364 63.787 147.307 63.8248C147.239 63.8632 147.159 63.8737 147.084 63.8539C147.009 63.8341 146.945 63.7857 146.905 63.719C146.865 63.6523 146.853 63.5727 146.872 63.4973C146.89 63.4218 146.937 63.3565 147.003 63.3155C147.024 63.3019 147.058 63.274 147.106 63.2361C148.495 62.1404 150.179 61.4839 151.943 61.3508Z" fill="#0C0C0C"/>
<path d="M186.391 45.7177L175.872 45.7989C167.58 44.1565 162.704 31.2796 162.704 31.2796C162.704 31.2796 155.098 42.1796 131.452 41.3305C131.452 41.3305 129.95 8.86649 165.177 11.6506C176.535 12.5484 186.361 21.9422 188.178 36.662C189.45 46.977 186.391 45.7177 186.391 45.7177Z" fill="#0A0A0A"/>
<path d="M175.898 58.7281C179.468 58.7213 182.354 54.897 182.347 51.3264C182.34 47.7559 179.442 45.7935 175.872 45.8007L174.038 48.1962L172.828 58.7344L175.898 58.7281Z" fill="#F0B39B"/>
<path d="M145.649 42.7164C144.52 42.2599 143.289 42.1155 142.085 42.2981C141.491 42.3845 140.914 42.5596 140.372 42.8174C139.835 43.0703 139.333 43.3898 138.876 43.7684C138.815 43.8192 138.777 43.8912 138.768 43.9695C138.759 44.0478 138.78 44.1266 138.827 44.1898C138.874 44.2531 138.944 44.296 139.021 44.3098C139.099 44.3236 139.179 44.3073 139.245 44.2642L139.265 44.2502C139.692 43.928 140.159 43.6607 140.653 43.4547C141.141 43.2483 141.658 43.1171 142.185 43.0653C143.23 42.9551 144.285 43.1229 145.243 43.5516L145.274 43.5665C145.33 43.5981 145.392 43.6179 145.455 43.6246C145.519 43.6313 145.583 43.6248 145.644 43.6055C145.706 43.5862 145.762 43.5544 145.81 43.5123C145.858 43.4702 145.897 43.4186 145.925 43.3607C145.952 43.3028 145.967 43.2398 145.969 43.1758C145.971 43.1118 145.96 43.0481 145.936 42.9887C145.912 42.9293 145.876 42.8754 145.83 42.8305C145.785 42.7856 145.73 42.7506 145.671 42.7277L145.649 42.7164Z" fill="#0C0C0C"/>
<path d="M155.12 43.1167C156.075 42.6797 157.129 42.5031 158.174 42.6047C158.701 42.6525 159.218 42.7793 159.707 42.981C160.203 43.1829 160.671 43.4464 161.101 43.7652L161.121 43.7783C161.187 43.8256 161.269 43.8449 161.35 43.8319C161.43 43.8189 161.502 43.7747 161.55 43.709C161.598 43.6432 161.619 43.5611 161.607 43.4805C161.595 43.4 161.551 43.3274 161.486 43.2785C161.026 42.9037 160.521 42.5884 159.982 42.3401C159.438 42.0868 158.86 41.9167 158.266 41.8353C157.06 41.6632 155.83 41.8189 154.705 42.286C154.646 42.3076 154.592 42.341 154.546 42.3841C154.5 42.4273 154.463 42.4793 154.438 42.537C154.413 42.5948 154.4 42.657 154.399 42.72C154.399 42.783 154.411 42.8454 154.436 42.9035C154.46 42.9615 154.496 43.014 154.542 43.0577C154.587 43.1015 154.641 43.1355 154.7 43.1579C154.759 43.1802 154.821 43.1903 154.884 43.1877C154.947 43.185 155.009 43.1696 155.066 43.1424L155.084 43.1347L155.12 43.1167Z" fill="#0C0C0C"/>
<path d="M175.826 45.6744L175.871 45.3734C162.113 43.2144 162.843 29.9765 162.853 29.8431L162.549 29.8224C162.54 29.9585 161.786 43.4713 175.826 45.6744Z" fill="#0C0C0C"/>
<path opacity="0.1" d="M159.08 57.4587C160.597 57.3343 161.753 56.3312 161.662 55.2183C161.571 54.1054 160.267 53.304 158.75 53.4284C157.233 53.5528 156.077 54.5559 156.168 55.6688C156.259 56.7818 157.563 57.5831 159.08 57.4587Z" fill="#0C0C0C"/>
<path opacity="0.1" d="M142.547 56.2965C142.635 57.4084 141.479 58.4103 139.963 58.5365C139.701 58.5582 139.437 58.5523 139.176 58.519C138.844 57.2394 138.587 55.995 138.39 54.8362C138.781 54.6498 139.203 54.538 139.634 54.5067C141.151 54.3801 142.454 55.181 142.547 56.2965Z" fill="#0C0C0C"/>
<path d="M115.022 125.872C115.713 133.985 119.072 180.087 119.736 190.079H211.231C211.747 181.068 214.07 146.168 216.028 128.545C217.899 111.728 221.572 100.49 218.88 95.5185C214.485 87.3934 211.024 83.9969 198.945 82.6979C193.216 82.1004 187.432 82.2843 181.752 83.2446C181.752 83.2446 181.115 96.1323 165.924 96.8494C145.246 97.8252 146.62 83.2798 146.524 83.2446C142.261 81.6861 129.107 80.8811 122.572 85.1958C110.106 93.4271 113.558 108.681 115.022 125.872Z" fill="#AC3A99"/>
<path d="M142.75 49.9545C143.549 49.9545 144.197 49.3067 144.197 48.5077C144.197 47.7087 143.549 47.0609 142.75 47.0609C141.951 47.0609 141.304 47.7087 141.304 48.5077C141.304 49.3067 141.951 49.9545 142.75 49.9545Z" fill="#0C0C0C"/>
<path d="M156.941 49.1742C157.74 49.1742 158.388 48.5265 158.388 47.7274C158.388 46.9284 157.74 46.2806 156.941 46.2806C156.142 46.2806 155.494 46.9284 155.494 47.7274C155.494 48.5265 156.142 49.1742 156.941 49.1742Z" fill="#0C0C0C"/>
<path d="M115.722 131.138L115.115 131.172L115.846 144.054L116.453 144.019L115.722 131.138Z" fill="#0C0C0C"/>
<path d="M214.162 150.103C214.251 150.102 214.336 150.069 214.402 150.009C214.467 149.948 214.508 149.865 214.515 149.777L215.479 137.87C215.482 137.824 215.477 137.777 215.463 137.733C215.448 137.688 215.425 137.647 215.395 137.612C215.365 137.576 215.328 137.547 215.287 137.526C215.245 137.505 215.2 137.492 215.154 137.488C215.107 137.484 215.06 137.49 215.016 137.504C214.972 137.518 214.931 137.541 214.895 137.571C214.86 137.601 214.83 137.638 214.809 137.68C214.788 137.721 214.775 137.766 214.771 137.813L213.808 149.719C213.804 149.766 213.809 149.813 213.824 149.857C213.838 149.901 213.861 149.942 213.891 149.978C213.921 150.013 213.958 150.043 214 150.064C214.041 150.085 214.086 150.098 214.133 150.102C214.143 150.103 214.152 150.103 214.162 150.103Z" fill="#292A2E"/>
<path d="M112.926 245.819C112.926 245.819 100.697 244.11 96.3847 254.633C92.0727 265.155 84.3123 259.901 84.3123 259.901L98.3457 218.852L118.853 225.864L112.926 245.819Z" fill="#AC3A99"/>
<path d="M255.272 192.712C245.447 184.854 234.821 185.385 202.725 185.688C191.163 185.782 139.863 185.723 113.669 185.847C105.673 185.885 92.9949 186.143 86.2175 186.67C69.1427 187.996 64.3376 191.021 63.0346 196.495C62.6172 198.248 51.0979 211.782 130.856 221.45H185.64C259.758 218.226 262.848 198.772 255.272 192.712Z" fill="#262626"/>
<path d="M96.6028 192.116C112.198 189.173 170.534 202.341 170.534 202.341C170.534 202.341 231.776 187.21 241.972 190.63C262.89 197.644 161.491 226.815 161.491 226.815C161.491 226.815 78.526 195.527 96.6028 192.116Z" fill="#0A0A0A"/>
<path d="M107.516 224.291L109.354 247.257C109.354 247.257 214.427 234.038 244.952 229.504C251.996 228.457 266.196 222.179 261.87 205.334C258.081 190.578 255.198 187.989 229.78 191.62C207.221 194.844 107.516 224.291 107.516 224.291Z" fill="#262626"/>
<path d="M108.616 236.136L109.354 247.257L161.586 240.97L108.616 236.136Z" fill="#0A0A0A"/>
<path d="M207.766 243.638C207.766 243.638 219.871 240.844 225.124 251.008C230.378 261.171 237.69 255.218 237.69 255.218L219.99 215.321L200.057 224.164L207.766 243.638Z" fill="#AC3A99"/>
<path d="M213.766 216.469L210.386 247.229C210.386 247.229 99.7758 238.582 70.2807 229.504C63.4749 227.409 52.5568 221.447 56.5849 204.529C60.0256 190.078 68.6694 186.978 91.2272 190.201C113.785 193.423 213.766 216.469 213.766 216.469Z" fill="#262626"/>
<path d="M109.499 159.483L123.081 154.722L121.132 154.587C120.503 154.531 119.919 154.239 119.498 153.769C119.077 153.299 118.85 152.686 118.863 152.055C118.881 151.73 118.965 151.412 119.11 151.12C119.255 150.828 119.458 150.568 119.706 150.357C119.955 150.147 120.244 149.989 120.556 149.893C120.867 149.798 121.195 149.767 121.519 149.802L145.549 152.356L144.924 160.078C144.73 162.476 143.824 164.762 142.323 166.642C140.821 168.522 138.792 169.911 136.496 170.631L126.09 173.872C125.552 174.051 124.97 174.039 124.44 173.838C123.911 173.636 123.467 173.258 123.185 172.767C122.939 172.319 122.843 171.803 122.911 171.296C122.978 170.789 123.207 170.317 123.562 169.949C123.539 169.933 123.519 169.912 123.505 169.888C123.49 169.864 123.48 169.837 123.476 169.809C123.472 169.781 123.474 169.753 123.482 169.726C123.489 169.698 123.502 169.673 123.52 169.651L121.601 170.252C121.003 170.453 120.351 170.419 119.777 170.158C119.202 169.897 118.749 169.427 118.507 168.844C118.31 168.315 118.306 167.734 118.495 167.202C118.684 166.67 119.054 166.222 119.541 165.937C119.519 165.925 119.499 165.91 119.482 165.891L118.694 166.138C118.156 166.318 117.573 166.305 117.044 166.104C116.514 165.902 116.071 165.524 115.788 165.033C115.49 164.489 115.414 163.85 115.576 163.251C115.738 162.652 116.126 162.139 116.659 161.82C116.654 161.804 116.652 161.788 116.651 161.771L110.995 163.754C110.431 163.944 109.815 163.904 109.28 163.643C108.745 163.381 108.335 162.92 108.138 162.358C107.941 161.797 107.974 161.18 108.228 160.642C108.483 160.104 108.939 159.688 109.498 159.484L109.499 159.483Z" fill="#F0B39B"/>
<path opacity="0.2" d="M116.875 161.992C116.901 161.992 116.927 161.987 116.952 161.978L122.423 159.989C122.452 159.98 122.479 159.965 122.502 159.945C122.524 159.925 122.543 159.901 122.556 159.873C122.57 159.846 122.577 159.817 122.579 159.786C122.581 159.756 122.576 159.726 122.566 159.697C122.555 159.669 122.539 159.643 122.519 159.621C122.498 159.599 122.473 159.581 122.445 159.569C122.418 159.556 122.388 159.55 122.358 159.549C122.327 159.549 122.297 159.554 122.269 159.566L116.798 161.555C116.748 161.573 116.707 161.609 116.681 161.654C116.654 161.7 116.645 161.754 116.654 161.806C116.663 161.858 116.69 161.905 116.731 161.939C116.771 161.973 116.822 161.992 116.875 161.992Z" fill="#0A0A0A"/>
<path opacity="0.2" d="M119.641 165.97C119.666 165.97 119.692 165.966 119.716 165.957L124.028 164.427C124.057 164.418 124.084 164.403 124.107 164.383C124.13 164.363 124.148 164.339 124.162 164.312C124.175 164.285 124.183 164.256 124.185 164.225C124.187 164.195 124.182 164.165 124.172 164.137C124.162 164.108 124.147 164.082 124.126 164.06C124.106 164.037 124.081 164.019 124.054 164.007C124.026 163.994 123.996 163.987 123.966 163.987C123.936 163.986 123.906 163.991 123.878 164.002L119.565 165.532C119.515 165.55 119.473 165.585 119.446 165.631C119.42 165.677 119.41 165.73 119.419 165.783C119.428 165.835 119.455 165.883 119.496 165.917C119.536 165.951 119.587 165.97 119.641 165.97Z" fill="#0A0A0A"/>
<path opacity="0.2" d="M123.702 170.006C123.729 170.006 123.756 170.001 123.782 169.991L125.801 169.221C125.855 169.198 125.899 169.156 125.922 169.102C125.945 169.048 125.946 168.987 125.925 168.933C125.905 168.878 125.863 168.833 125.81 168.809C125.757 168.784 125.696 168.781 125.641 168.8L123.621 169.57C123.572 169.589 123.531 169.624 123.505 169.67C123.48 169.716 123.471 169.77 123.48 169.821C123.49 169.873 123.517 169.92 123.557 169.954C123.598 169.987 123.649 170.006 123.702 170.006Z" fill="#0A0A0A"/>
<path d="M135.482 176.294L219.692 190.254C222.288 190.537 224.915 190.214 227.365 189.311C229.815 188.408 232.023 186.95 233.815 185.05C235.607 183.151 236.935 180.862 237.694 178.363C238.452 175.864 238.622 173.224 238.189 170.648L220.524 100.46C220.156 98.2717 219.36 96.1768 218.182 94.2955C217.005 92.4142 215.468 90.7833 213.66 89.496C210.008 86.8961 205.473 85.8533 201.053 86.597C196.632 87.3407 192.688 89.81 190.088 93.4616C187.488 97.1133 186.445 101.648 187.189 106.069L200.668 154.456L139.477 146.097L135.482 176.294Z" fill="#AC3A99"/>
<path d="M211.645 156.029C211.701 156.029 211.756 156.007 211.797 155.969C211.839 155.93 211.864 155.877 211.868 155.821C211.872 155.764 211.855 155.708 211.82 155.664C211.785 155.62 211.734 155.59 211.678 155.581L201.182 154.009C201.153 154.004 201.123 154.005 201.094 154.012C201.065 154.019 201.038 154.032 201.014 154.049C200.99 154.067 200.97 154.089 200.954 154.115C200.939 154.14 200.929 154.169 200.925 154.198C200.917 154.257 200.932 154.317 200.967 154.365C201.003 154.413 201.056 154.445 201.115 154.454L211.611 156.026C211.622 156.028 211.633 156.029 211.645 156.029Z" fill="#0C0C0C"/>
<path d="M217.348 190.579C217.377 190.581 217.407 190.577 217.435 190.567C217.463 190.558 217.489 190.543 217.511 190.523C217.534 190.504 217.552 190.48 217.565 190.453C217.578 190.427 217.586 190.398 217.588 190.368C217.59 190.339 217.586 190.309 217.576 190.281C217.567 190.253 217.552 190.227 217.532 190.204C217.512 190.182 217.489 190.164 217.462 190.151C217.435 190.138 217.407 190.13 217.377 190.128L135.954 176.123L139.901 146.376L200.668 154.456C200.703 154.461 200.739 154.457 200.772 154.446C200.805 154.434 200.835 154.415 200.86 154.39C200.884 154.364 200.903 154.333 200.913 154.3C200.924 154.266 200.926 154.23 200.92 154.195L194.344 125.827C194.34 125.798 194.329 125.769 194.314 125.744C194.298 125.719 194.278 125.697 194.253 125.68C194.229 125.662 194.202 125.65 194.173 125.644C194.144 125.637 194.114 125.636 194.084 125.642C194.055 125.647 194.027 125.657 194.002 125.673C193.977 125.689 193.955 125.709 193.938 125.734C193.921 125.758 193.909 125.785 193.902 125.814C193.896 125.843 193.895 125.873 193.9 125.902L200.425 153.969L139.731 145.896C139.701 145.892 139.671 145.894 139.642 145.901C139.613 145.909 139.586 145.923 139.562 145.941C139.539 145.96 139.519 145.983 139.504 146.009C139.49 146.036 139.481 146.064 139.477 146.094L135.482 176.292C135.475 176.351 135.492 176.409 135.529 176.456C135.565 176.502 135.618 176.532 135.677 176.54L217.318 190.576C217.328 190.577 217.338 190.578 217.348 190.579Z" fill="#0C0C0C"/>
<path d="M138.688 183.323L119.376 123.956C119.036 122.913 118.375 122.004 117.488 121.359C116.6 120.714 115.531 120.367 114.434 120.367H35.7529C34.9324 120.367 34.1236 120.561 33.3926 120.934C32.6616 121.306 32.0292 121.847 31.5472 122.51C31.0652 123.174 30.7472 123.943 30.6192 124.753C30.4913 125.564 30.5571 126.393 30.8112 127.173L50.1239 186.538C50.4633 187.581 51.1242 188.49 52.0119 189.135C52.8995 189.779 53.9684 190.127 55.0655 190.127H133.747C134.567 190.127 135.376 189.933 136.107 189.56C136.837 189.188 137.469 188.648 137.951 187.984C138.433 187.32 138.751 186.552 138.879 185.742C139.008 184.932 138.942 184.103 138.688 183.323Z" fill="#292A2E"/>
<path d="M175.603 185.313H122.934C121.622 185.313 120.558 186.377 120.558 187.689V187.75C120.558 189.063 121.622 190.126 122.934 190.126H175.603C176.916 190.126 177.98 189.063 177.98 187.75V187.689C177.98 186.377 176.916 185.313 175.603 185.313Z" fill="#292A2E"/>
<path d="M175.391 184.949H118.801C117.372 184.949 116.213 186.108 116.213 187.538V187.538C116.213 188.968 117.372 190.127 118.801 190.127H175.391C176.821 190.127 177.98 188.968 177.98 187.538V187.538C177.98 186.108 176.821 184.949 175.391 184.949Z" fill="white"/>
<path d="M175.391 190.578H118.801C118.002 190.568 117.238 190.243 116.676 189.674C116.114 189.105 115.798 188.338 115.798 187.538C115.798 186.738 116.114 185.97 116.676 185.401C117.238 184.832 118.002 184.508 118.801 184.498H175.391C176.191 184.508 176.954 184.832 177.516 185.401C178.079 185.97 178.394 186.738 178.394 187.538C178.394 188.338 178.079 189.105 177.516 189.674C176.954 190.243 176.191 190.568 175.391 190.578ZM118.801 185.399C118.24 185.408 117.704 185.636 117.309 186.037C116.915 186.437 116.694 186.976 116.694 187.538C116.694 188.1 116.915 188.639 117.309 189.039C117.704 189.439 118.24 189.668 118.801 189.676H175.391C175.953 189.668 176.489 189.439 176.883 189.039C177.277 188.639 177.498 188.1 177.498 187.538C177.498 186.976 177.277 186.437 176.883 186.037C176.489 185.636 175.953 185.408 175.391 185.399H118.801Z" fill="#292A2E"/>
<path d="M138.688 183.323L119.376 123.956C119.036 122.913 118.375 122.004 117.488 121.359C116.6 120.714 115.531 120.367 114.434 120.367H35.7529C34.9324 120.367 34.1236 120.561 33.3926 120.934C32.6616 121.306 32.0292 121.847 31.5472 122.51C31.0652 123.174 30.7472 123.943 30.6192 124.753C30.4913 125.564 30.5571 126.393 30.8112 127.173L50.1239 186.538C50.4633 187.581 51.1242 188.49 52.0119 189.135C52.8995 189.779 53.9684 190.127 55.0655 190.127H133.747C134.567 190.127 135.376 189.933 136.107 189.56C136.837 189.188 137.469 188.648 137.951 187.984C138.433 187.32 138.751 186.552 138.879 185.742C139.008 184.932 138.942 184.103 138.688 183.323Z" fill="white"/>
<path d="M133.747 190.578H55.0655C53.8729 190.58 52.7104 190.203 51.7454 189.502C50.7804 188.801 50.0627 187.812 49.6957 186.678L30.3826 127.311C30.1073 126.463 30.0365 125.563 30.1759 124.683C30.3153 123.803 30.661 122.968 31.1848 122.247C31.7085 121.526 32.3955 120.939 33.1894 120.535C33.9833 120.13 34.8618 119.919 35.7529 119.919H114.436C115.629 119.917 116.791 120.294 117.756 120.994C118.722 121.695 119.439 122.684 119.806 123.819L139.117 183.184C139.392 184.031 139.463 184.932 139.324 185.812C139.184 186.692 138.838 187.526 138.315 188.247C137.791 188.968 137.104 189.555 136.31 189.959C135.516 190.364 134.638 190.575 133.747 190.575V190.578ZM35.7529 120.818C35.0038 120.818 34.2653 120.995 33.5979 121.336C32.9304 121.676 32.353 122.169 31.9128 122.775C31.4726 123.381 31.1821 124.083 31.0651 124.823C30.9482 125.563 31.0081 126.32 31.2399 127.032L50.5529 186.399C50.8611 187.352 51.4641 188.184 52.2751 188.773C53.0861 189.362 54.0632 189.678 55.0655 189.676H133.747C134.496 189.676 135.234 189.499 135.902 189.159C136.569 188.819 137.146 188.325 137.587 187.719C138.027 187.113 138.317 186.412 138.434 185.672C138.551 184.932 138.491 184.175 138.26 183.463L118.947 124.096C118.639 123.142 118.036 122.311 117.225 121.722C116.415 121.133 115.438 120.817 114.436 120.818H35.7529Z" fill="#292A2E"/>
<path d="M82.6785 164.282C87.236 164.282 90.9306 160.587 90.9306 156.029C90.9306 151.472 87.236 147.777 82.6785 147.777C78.121 147.777 74.4264 151.472 74.4264 156.029C74.4264 160.587 78.121 164.282 82.6785 164.282Z" fill="white"/>
<path d="M82.6785 164.732C80.9572 164.732 79.2746 164.222 77.8434 163.266C76.4122 162.309 75.2968 160.95 74.6381 159.36C73.9794 157.77 73.8071 156.02 74.1429 154.331C74.4787 152.643 75.3077 151.093 76.5248 149.875C77.742 148.658 79.2927 147.83 80.9809 147.494C82.6691 147.158 84.419 147.33 86.0092 147.989C87.5995 148.648 88.9586 149.764 89.9148 151.195C90.8711 152.626 91.3814 154.309 91.3813 156.03C91.3786 158.337 90.4608 160.549 88.8293 162.181C87.1977 163.812 84.9857 164.73 82.6785 164.732ZM82.6785 148.228C81.1355 148.228 79.6272 148.686 78.3443 149.543C77.0614 150.4 76.0615 151.618 75.471 153.044C74.8805 154.469 74.726 156.038 75.0269 157.551C75.3279 159.065 76.0709 160.455 77.1619 161.546C78.2529 162.637 79.6429 163.38 81.1562 163.681C82.6695 163.982 84.2381 163.828 85.6636 163.237C87.0892 162.647 88.3076 161.647 89.1649 160.364C90.0222 159.081 90.4798 157.573 90.4799 156.03C90.4776 153.962 89.655 151.978 88.1924 150.516C86.7299 149.053 84.7469 148.23 82.6785 148.228Z" fill="#292A2E"/>
<path d="M4.69282 19.163C13.4637 10.4107 25.3484 5.49524 37.7391 5.49524C50.1299 5.49524 62.0146 10.4107 70.7855 19.163C71.0408 19.4183 71.3439 19.6208 71.6775 19.759C72.011 19.8972 72.3686 19.9683 72.7296 19.9683C73.0907 19.9683 73.4482 19.8972 73.7818 19.759C74.1154 19.6208 74.4185 19.4183 74.6738 19.163C74.9291 18.9077 75.1316 18.6046 75.2698 18.271C75.408 17.9374 75.4791 17.5799 75.4791 17.2188C75.4791 16.8578 75.408 16.5003 75.2698 16.1667C75.1316 15.8331 74.9291 15.53 74.6738 15.2747C64.8707 5.49323 51.5879 -0.00012207 37.7396 -0.00012207C23.8913 -0.00012207 10.6084 5.49323 0.805411 15.2747C0.544729 15.5287 0.337089 15.832 0.19454 16.167C0.0519903 16.5019 -0.0226317 16.8618 -0.0249969 17.2258C-0.0273621 17.5898 0.0425767 17.9506 0.180762 18.2874C0.318947 18.6241 0.522627 18.9301 0.779987 19.1875C1.03735 19.4449 1.34326 19.6487 1.67998 19.787C2.0167 19.9252 2.37753 19.9952 2.74153 19.993C3.10552 19.9907 3.46544 19.9161 3.8004 19.7737C4.13537 19.6312 4.4387 19.4236 4.69282 19.163Z" fill="#0977F5"/>
<path d="M16.3559 30.8261C22.0317 25.1637 29.7216 21.9837 37.7389 21.9837C45.7562 21.9837 53.4462 25.1637 59.1219 30.8261C59.376 31.0867 59.6793 31.2943 60.0142 31.4368C60.3492 31.5793 60.7091 31.6539 61.0731 31.6562C61.4371 31.6586 61.7979 31.5886 62.1347 31.4504C62.4714 31.3121 62.7773 31.1084 63.0347 30.851C63.2921 30.5937 63.4958 30.2877 63.6341 29.951C63.7723 29.6142 63.8423 29.2534 63.84 28.8894C63.8376 28.5254 63.763 28.1655 63.6205 27.8306C63.478 27.4956 63.2704 27.1923 63.0098 26.9382C56.3022 20.246 47.214 16.4877 37.7389 16.4877C28.2639 16.4877 19.1757 20.246 12.4681 26.9382C12.2074 27.1923 11.9998 27.4956 11.8573 27.8306C11.7148 28.1655 11.6402 28.5254 11.6379 28.8894C11.6356 29.2534 11.7056 29.6142 11.8438 29.951C11.982 30.2877 12.1857 30.5937 12.4431 30.851C12.7005 31.1084 13.0064 31.3121 13.3432 31.4504C13.6799 31.5886 14.0408 31.6586 14.4047 31.6562C14.7687 31.6539 15.1287 31.5793 15.4636 31.4368C15.7985 31.2943 16.1019 31.0867 16.3559 30.8261Z" fill="#0977F5"/>
<path d="M28.0195 42.4897C30.5995 39.9159 34.0949 38.4705 37.7392 38.4705C41.3834 38.4705 44.8788 39.9159 47.4588 42.4897C47.9766 42.9944 48.6724 43.2749 49.3954 43.2702C50.1185 43.2656 50.8107 42.9763 51.322 42.465C51.8333 41.9537 52.1226 41.2616 52.1272 40.5385C52.1318 39.8154 51.8514 39.1196 51.3466 38.6018C47.735 34.9983 42.8413 32.9745 37.7394 32.9745C32.6374 32.9745 27.7438 34.9983 24.1321 38.6018C23.6307 39.1202 23.353 39.8149 23.359 40.5361C23.365 41.2573 23.6541 41.9473 24.1641 42.4573C24.674 42.9673 25.364 43.2565 26.0852 43.2625C26.8064 43.2686 27.5011 42.991 28.0195 42.4897Z" fill="#0977F5"/>
<path d="M37.7396 60.035C40.9183 60.035 43.4952 57.4582 43.4952 54.2794C43.4952 51.1007 40.9183 48.5238 37.7396 48.5238C34.5609 48.5238 31.984 51.1007 31.984 54.2794C31.984 57.4582 34.5609 60.035 37.7396 60.035Z" fill="#0977F5"/>
<path d="M16.607 63.1197C24.3089 63.1197 30.5525 56.8761 30.5525 49.1742C30.5525 41.4723 24.3089 35.2286 16.607 35.2286C8.90507 35.2286 2.66144 41.4723 2.66144 49.1742C2.66144 56.8761 8.90507 63.1197 16.607 63.1197Z" fill="#F80000"/>
<path d="M23.447 56.4004C23.3962 56.4005 23.346 56.3906 23.2991 56.3712C23.2522 56.3518 23.2097 56.3233 23.1739 56.2873L16 50L9.4938 42.6077C9.42432 42.5346 9.38617 42.4372 9.38745 42.3364C9.38874 42.2355 9.42937 42.1392 9.50069 42.0679C9.572 41.9965 9.66835 41.9559 9.7692 41.9546C9.87004 41.9533 9.9674 41.9915 10.0405 42.061L17.5 48.5L23.7206 55.741C23.7746 55.7951 23.8114 55.8639 23.8263 55.9389C23.8412 56.0139 23.8335 56.0916 23.8042 56.1622C23.7749 56.2328 23.7254 56.2931 23.6618 56.3355C23.5982 56.3779 23.5234 56.4005 23.447 56.4004Z" fill="white"/>
<path d="M9.76695 56.4004C9.69055 56.4004 9.61587 56.3778 9.55235 56.3353C9.48882 56.2929 9.43932 56.2326 9.41008 56.162C9.38084 56.0914 9.37319 56.0137 9.3881 55.9388C9.403 55.8639 9.43979 55.795 9.49381 55.741L16 48.5L23.1739 42.061C23.247 41.9915 23.3443 41.9533 23.4452 41.9546C23.546 41.9559 23.6424 41.9965 23.7137 42.0679C23.785 42.1392 23.8256 42.2355 23.8269 42.3364C23.8282 42.4372 23.7901 42.5346 23.7206 42.6077L17.5 50L10.0405 56.2873C10.0047 56.3233 9.96201 56.3518 9.91505 56.3712C9.86809 56.3906 9.81776 56.4006 9.76695 56.4004Z" fill="white"/>
</g>
<defs>
<clipPath id="clip0_327_2888">
<rect width="300" height="271.071" fill="white"/>
</clipPath>
</defs>
</svg>
