<svg width="20" height="20" viewBox="0 0 20 20" fill="none" xmlns="http://www.w3.org/2000/svg">
<path d="M17 0H3C1.34315 0 0 1.34315 0 3V17C0 18.6569 1.34315 20 3 20H17C18.6569 20 20 18.6569 20 17V3C20 1.34315 18.6569 0 17 0Z" fill="#20DF40"/>
<path d="M15.4297 13.2031C15.0391 12.8516 14.5703 12.5391 14.1406 12.3047C13.2422 11.6797 12.461 11.6406 11.836 12.5391C11.4453 13.0859 10.9375 13.1641 10.3906 12.9297C8.8672 12.2266 7.73439 11.25 7.10939 9.72656C6.79689 9.10156 6.79689 8.51562 7.50002 8.08594C7.85158 7.85156 8.2422 7.53906 8.20314 6.99219C8.16408 6.28906 6.48439 3.94531 5.78127 3.71094C5.46877 3.63281 5.23439 3.63281 4.92189 3.71094C3.32033 4.25781 2.69533 5.50781 3.28127 7.03125C4.18051 9.22211 5.51225 11.2092 7.19688 12.8737C8.88151 14.5382 10.8844 15.8459 13.086 16.7187L13.75 16.9141C14.7656 16.9141 15.9766 15.9375 16.3672 14.9609C16.7188 14.0234 15.9766 13.6328 15.4297 13.2031Z" fill="white"/>
<path d="M10.4688 5.3906C10.4688 5.3906 12.0703 5.35154 13.2812 6.56248C14.4922 7.73435 14.3359 9.4531 14.3359 9.4531M10.9375 6.99216C10.9375 6.99216 11.6406 6.91404 12.2266 7.53904C12.8125 8.12498 12.7344 8.86716 12.7344 8.86716M9.96094 3.8281C9.96094 3.8281 12.4609 3.71091 14.2969 5.54685C16.1328 7.42185 15.9766 9.99998 15.9766 9.99998" stroke="white" stroke-width="0.866238" stroke-linecap="round"/>
</svg>
