<svg width="40" height="40" viewBox="0 0 40 40" fill="none" xmlns="http://www.w3.org/2000/svg">
<path d="M20.8334 3.3335H15.8334C14.9129 3.3335 14.1667 4.07969 14.1667 5.00016V6.66683C14.1667 7.5873 14.9129 8.3335 15.8334 8.3335H20.8334C21.7538 8.3335 22.5 7.5873 22.5 6.66683V5.00016C22.5 4.07969 21.7538 3.3335 20.8334 3.3335Z" fill="white"/>
<path d="M28.3333 5H24.1666V6.66667C24.1666 7.55072 23.8155 8.39857 23.1903 9.02369C22.5652 9.64881 21.7174 10 20.8333 10H15.8333C14.9493 10 14.1014 9.64881 13.4763 9.02369C12.8512 8.39857 12.5 7.55072 12.5 6.66667V5H8.33331C7.67027 5 7.03439 5.26339 6.56555 5.73223C6.09671 6.20107 5.83331 6.83696 5.83331 7.5V32.5C5.83331 33.163 6.09671 33.7989 6.56555 34.2678C7.03439 34.7366 7.67027 35 8.33331 35H20.8333C19.7314 33.5278 19.1473 31.7325 19.1722 29.8938C19.197 28.055 19.8294 26.2762 20.9707 24.8343C22.112 23.3924 23.6982 22.3686 25.4821 21.9222C27.266 21.4759 29.1475 21.6322 30.8333 22.3667V7.5C30.8333 6.83696 30.5699 6.20107 30.1011 5.73223C29.6322 5.26339 28.9964 5 28.3333 5ZM17.5 28.3333H10.8333C10.6123 28.3333 10.4003 28.2455 10.2441 28.0893C10.0878 27.933 9.99998 27.721 9.99998 27.5C9.99998 27.279 10.0878 27.067 10.2441 26.9107C10.4003 26.7545 10.6123 26.6667 10.8333 26.6667H17.5C17.721 26.6667 17.933 26.7545 18.0892 26.9107C18.2455 27.067 18.3333 27.279 18.3333 27.5C18.3333 27.721 18.2455 27.933 18.0892 28.0893C17.933 28.2455 17.721 28.3333 17.5 28.3333ZM25.8333 21.6667H10.8333C10.6123 21.6667 10.4003 21.5789 10.2441 21.4226C10.0878 21.2663 9.99998 21.0543 9.99998 20.8333C9.99998 20.6123 10.0878 20.4004 10.2441 20.2441C10.4003 20.0878 10.6123 20 10.8333 20H25.8333C26.0543 20 26.2663 20.0878 26.4226 20.2441C26.5788 20.4004 26.6666 20.6123 26.6666 20.8333C26.6666 21.0543 26.5788 21.2663 26.4226 21.4226C26.2663 21.5789 26.0543 21.6667 25.8333 21.6667ZM25.8333 15H10.8333C10.6123 15 10.4003 14.9122 10.2441 14.7559C10.0878 14.5996 9.99998 14.3877 9.99998 14.1667C9.99998 13.9457 10.0878 13.7337 10.2441 13.5774C10.4003 13.4211 10.6123 13.3333 10.8333 13.3333H25.8333C26.0543 13.3333 26.2663 13.4211 26.4226 13.5774C26.5788 13.7337 26.6666 13.9457 26.6666 14.1667C26.6666 14.3877 26.5788 14.5996 26.4226 14.7559C26.2663 14.9122 26.0543 15 25.8333 15Z" fill="white"/>
<path d="M25.3226 32.3943V35.3868C25.3227 35.4741 25.3055 35.5606 25.2721 35.6413C25.2387 35.722 25.1897 35.7953 25.128 35.8571C25.0662 35.9189 24.9929 35.9678 24.9122 36.0012C24.8315 36.0346 24.745 36.0518 24.6576 36.0518H21.6651C21.4888 36.0518 21.3196 35.9817 21.1949 35.857C21.0702 35.7323 21.0001 35.5631 21.0001 35.3868C21.0001 35.2104 21.0702 35.0412 21.1949 34.9165C21.3196 34.7918 21.4888 34.7218 21.6651 34.7218H23.9926L23.9926 32.3943C23.9926 32.2179 24.0627 32.0487 24.1874 31.924C24.3121 31.7993 24.4812 31.7293 24.6576 31.7293C24.834 31.7293 25.0031 31.7993 25.1278 31.924C25.2526 32.0487 25.3226 32.2179 25.3226 32.3943Z" fill="#EA49D0"/>
<path d="M28.3151 24.165C28.3152 24.2524 28.298 24.3389 28.2646 24.4196C28.2312 24.5003 28.1822 24.5736 28.1205 24.6354C28.0587 24.6971 27.9854 24.7461 27.9047 24.7795C27.824 24.8129 27.7375 24.8301 27.6501 24.83C26.4792 24.8293 25.3408 25.2151 24.4117 25.9276C23.4825 26.6401 22.8145 27.6394 22.5114 28.7703C22.2082 29.9013 22.287 31.1007 22.7353 32.1824C23.1836 33.2641 23.9765 34.1675 24.9908 34.7524C25.1434 34.8408 25.2546 34.9861 25.3001 35.1565C25.3455 35.3269 25.3214 35.5084 25.233 35.661C25.1446 35.8136 24.9993 35.9248 24.8289 35.9702C24.6585 36.0157 24.4771 35.9915 24.3245 35.9032C23.0569 35.1717 22.0662 34.0422 21.5061 32.6901C20.946 31.338 20.8479 29.8388 21.2269 28.4252C21.6059 27.0116 22.4409 25.7626 23.6023 24.8721C24.7637 23.9816 26.1866 23.4993 27.6501 23.5C27.7375 23.5 27.824 23.5171 27.9047 23.5505C27.9854 23.5839 28.0587 23.6329 28.1205 23.6947C28.1822 23.7565 28.2312 23.8298 28.2646 23.9105C28.298 23.9912 28.3152 24.0777 28.3151 24.165ZM34.3001 24.9132C34.3002 25.0005 34.283 25.087 34.2496 25.1677C34.2162 25.2484 34.1672 25.3217 34.1055 25.3835C34.0437 25.4452 33.9704 25.4942 33.8897 25.5276C33.809 25.561 33.7225 25.5782 33.6351 25.5782H31.3076V27.9056C31.3076 28.082 31.2376 28.2512 31.1129 28.3759C30.9881 28.5006 30.819 28.5706 30.6426 28.5706C30.4663 28.5706 30.2971 28.5006 30.1724 28.3759C30.0477 28.2512 29.9776 28.082 29.9776 27.9056V24.9132C29.9776 24.8258 29.9947 24.7393 30.0281 24.6586C30.0615 24.5779 30.1105 24.5046 30.1723 24.4428C30.234 24.3811 30.3074 24.3321 30.3881 24.2987C30.4688 24.2653 30.5553 24.2481 30.6426 24.2482H33.6351C33.7225 24.2481 33.809 24.2653 33.8897 24.2987C33.9704 24.3321 34.0437 24.3811 34.1055 24.4428C34.1672 24.5046 34.2162 24.5779 34.2496 24.6586C34.283 24.7393 34.3002 24.8258 34.3001 24.9132Z" fill="#EA49D0"/>
<path d="M34.3 30.1498C34.2979 31.9129 33.5966 33.6031 32.35 34.8498C31.1033 36.0964 29.413 36.7977 27.65 36.7998C27.4736 36.7998 27.3045 36.7297 27.1798 36.605C27.055 36.4803 26.985 36.3112 26.985 36.1348C26.985 35.9584 27.055 35.7893 27.1798 35.6646C27.3045 35.5399 27.4736 35.4698 27.65 35.4698C28.8209 35.4705 29.9593 35.0847 30.8885 34.3722C31.8176 33.6598 32.4856 32.6605 32.7887 31.5295C33.0919 30.3985 33.0132 29.1991 32.5648 28.1174C32.1165 27.0358 31.3236 26.1324 30.3093 25.5474C30.1567 25.4591 30.0455 25.3137 30 25.1433C29.9546 24.9729 29.9787 24.7915 30.0671 24.6389C30.1555 24.4863 30.3008 24.375 30.4712 24.3296C30.6416 24.2842 30.823 24.3083 30.9756 24.3967C31.9841 24.9816 32.8217 25.8205 33.405 26.8299C33.9883 27.8394 34.2968 28.984 34.3 30.1498Z" fill="#EA49D0"/>
</svg>
