<svg width="41" height="40" viewBox="0 0 41 40" fill="none" xmlns="http://www.w3.org/2000/svg">
<path d="M25.5 3.34638C24.9007 3.31544 24.2919 3.38992 23.6998 3.58075L20.5 4.61916L17.3001 3.58401C14.9334 2.81734 12.2793 3.92791 11.1543 6.12958L9.62431 9.12437L6.62952 10.6543C4.37285 11.8043 3.30395 14.3902 4.08395 16.8002L5.1191 20L4.08395 23.1999C3.30395 25.6082 4.37452 28.1924 6.62952 29.3457L9.62431 30.8757L11.1543 33.8705C12.2809 36.0721 14.9351 37.1827 17.3001 36.416L20.5 35.3809L23.6998 36.416C24.2132 36.581 24.7436 36.6667 25.2786 36.6667C27.2136 36.6667 28.964 35.5938 29.8457 33.8705L31.3756 30.8757L34.3704 29.3457C36.6254 28.1924 37.696 25.6082 36.916 23.1999L35.8808 20L36.916 16.7969C37.696 14.3869 36.6254 11.8027 34.3704 10.6511L31.3756 9.12437L29.8457 6.12632C29.0019 4.47632 27.2976 3.43919 25.5 3.34638ZM25.3665 6.66669C25.9977 6.69856 26.5864 7.06575 26.8802 7.64325L28.6575 11.1198C28.8175 11.4315 29.0685 11.6857 29.3802 11.8457L32.8567 13.6231C33.6451 14.0264 34.022 14.9282 33.7487 15.7715L32.5442 19.4857C32.4376 19.819 32.4376 20.1778 32.5442 20.5111L32.7102 21.0254L33.7487 24.2253C34.0203 25.0669 33.6451 25.9704 32.8567 26.3737L29.3802 28.1511C29.0685 28.3111 28.8143 28.5653 28.6543 28.877L26.8769 32.3535C26.4852 33.1235 25.5651 33.5171 24.7285 33.2455L21.0143 32.041C20.8476 31.9877 20.6733 31.9629 20.5 31.9629C20.3266 31.9629 20.1539 31.9876 19.9889 32.0443L16.2747 33.2487C15.4347 33.5171 14.5147 33.1268 14.123 32.3568L12.3457 28.8802C12.1857 28.5686 11.9347 28.3143 11.623 28.1543L8.14645 26.377C7.35811 25.9736 6.98119 25.0702 7.25452 24.2285L8.45569 20.5143C8.56236 20.181 8.56236 19.8223 8.45569 19.489L7.25452 15.7748C6.98285 14.9314 7.35645 14.0264 8.14645 13.6231L11.623 11.8457C11.9347 11.6857 12.1857 11.4347 12.3457 11.1231L14.123 7.64651C14.5163 6.87651 15.4314 6.47791 16.2747 6.75458L19.9889 7.9525C20.3239 8.06083 20.6825 8.06083 21.0175 7.9525L24.7285 6.75132C24.9389 6.68299 25.1561 6.65606 25.3665 6.66669ZM11.61 15.8301C11.2317 15.8301 10.8866 15.8878 10.5716 15.9961C10.2582 16.1061 9.98777 16.2584 9.75777 16.4551C9.52944 16.6518 9.35059 16.8896 9.22392 17.1712C9.09725 17.4512 9.03512 17.7606 9.03512 18.099C9.03512 18.4523 9.09566 18.7585 9.22066 19.0235C9.34566 19.2885 9.51197 19.5249 9.72197 19.7266C9.93197 19.9299 10.1777 20.1056 10.4544 20.2539C10.7311 20.4023 11.0185 20.5328 11.3235 20.6478C11.5802 20.7528 11.7854 20.8507 11.9388 20.944C12.0938 21.0374 12.2135 21.1322 12.2968 21.2305C12.3818 21.3288 12.4362 21.4346 12.4629 21.5462C12.4895 21.6579 12.4987 21.7838 12.4987 21.9239C12.4987 22.0539 12.4863 22.1735 12.4563 22.2852C12.4263 22.3968 12.3766 22.4916 12.3066 22.5716C12.2383 22.6516 12.1497 22.7121 12.0397 22.7604C11.9313 22.8071 11.7992 22.8321 11.6425 22.8321C11.4492 22.8321 11.2797 22.8071 11.1347 22.7604C10.9897 22.7138 10.8685 22.6392 10.7701 22.5326C10.6718 22.4276 10.5971 22.2876 10.5488 22.1159C10.5005 21.9442 10.4772 21.7392 10.4772 21.4942H8.83655C8.83655 21.9558 8.91744 22.3506 9.07744 22.6856C9.2391 23.0206 9.45212 23.2973 9.71546 23.5156C9.97879 23.734 10.2772 23.8989 10.6139 24.0039C10.9506 24.1106 11.2925 24.1634 11.6425 24.1634C12.0292 24.1634 12.3759 24.1121 12.6842 24.0104C12.9925 23.9071 13.2536 23.7594 13.472 23.5677C13.6886 23.3761 13.8582 23.1446 13.9765 22.8646C14.0932 22.5863 14.149 22.2675 14.149 21.9108C14.149 21.5758 14.1024 21.2741 14.0091 21.0091C13.9157 20.7425 13.7759 20.5047 13.5859 20.293C13.3959 20.0813 13.1612 19.8933 12.8795 19.7266C12.5979 19.5599 12.265 19.4043 11.8867 19.2676C11.705 19.1893 11.5386 19.1116 11.3886 19.03C11.237 18.9483 11.1112 18.8596 11.0045 18.7663C10.8995 18.673 10.8187 18.5719 10.7604 18.4636C10.7037 18.3552 10.6725 18.2356 10.6725 18.1022C10.6725 17.9722 10.6912 17.8511 10.7278 17.7344C10.7662 17.6277 10.8238 17.528 10.8971 17.4447C10.9704 17.3614 11.0637 17.2977 11.177 17.2494C11.2904 17.201 11.424 17.1778 11.5807 17.1778C11.7474 17.1778 11.892 17.2041 12.0104 17.2624C12.1287 17.3191 12.2267 17.4016 12.3033 17.5033C12.3783 17.6066 12.4344 17.7278 12.4694 17.8711C12.5044 18.0144 12.5247 18.1715 12.5247 18.3431H14.1556C14.1556 17.9748 14.0949 17.6374 13.9765 17.3308C13.8582 17.0241 13.6871 16.7597 13.4655 16.5397C13.2455 16.3164 12.978 16.1439 12.6647 16.0189C12.3513 15.8939 12 15.8301 11.61 15.8301ZM17.2415 15.944L14.7057 24.056H16.4375L16.8737 22.3959H19.1067L19.5429 24.056H21.291L18.7389 15.944H17.2415ZM22.0494 15.944V24.056H26.5612V22.6953H23.6868V15.944H22.0494ZM27.5084 15.944V24.056H32.1634V22.6953H29.1458V20.5469H31.6979V19.2253H29.1458V17.308H32.1536V15.944H27.5084ZM17.9869 18.1413L18.7454 21.0319H17.2285L17.9869 18.1413Z" fill="#727171"/>
</svg>
