<svg width="90" height="90" viewBox="0 0 90 90" fill="none" xmlns="http://www.w3.org/2000/svg">
<g clip-path="url(#clip0_88_3016)">
<path d="M19.0222 4.3763e-05C16.5227 -0.00532339 14.0467 0.483036 11.7364 1.43709C9.42609 2.39114 7.32697 3.79209 5.55953 5.55953C3.79209 7.32697 2.39114 9.42609 1.43709 11.7364C0.483036 14.0467 -0.00532339 16.5227 4.3763e-05 19.0222V70.9779C-0.00532339 73.4774 0.483036 75.9534 1.43709 78.2637C2.39114 80.574 3.79209 82.6731 5.55953 84.4405C7.32697 86.208 9.42609 87.6089 11.7364 88.563C14.0467 89.517 16.5227 90.0054 19.0222 90H70.9779C73.4774 90.0054 75.9534 89.517 78.2637 88.563C80.574 87.6089 82.6731 86.208 84.4405 84.4405C86.208 82.6731 87.6089 80.574 88.563 78.2637C89.517 75.9534 90.0054 73.4774 90 70.9779V19.0222C90.0054 16.5227 89.517 14.0467 88.563 11.7364C87.6089 9.42609 86.208 7.32697 84.4405 5.55953C82.6731 3.79209 80.574 2.39114 78.2637 1.43709C75.9534 0.483036 73.4774 -0.00532339 70.9779 4.3763e-05H19.0222ZM25.6222 10.71V10.7229C28.2772 10.7443 30.7179 11.4386 32.6165 12.6772C34.515 13.9158 35.8843 15.7522 36.1865 17.9465L37.2579 26.0486C37.5108 27.8979 36.9322 29.595 35.8222 30.9343C35.4579 31.3736 35.0208 31.7679 34.5579 32.1472H50.9272C53.7 32.1472 55.9136 33.21 57.36 34.8343C58.8043 36.4586 59.4986 38.5886 59.4986 40.7186V47.2115C63.0129 47.6079 65.0615 49.8922 66.0022 52.065C67.035 54.4522 66.9986 56.79 66.9986 56.79C66.9941 57.0712 66.8792 57.3394 66.6788 57.5366C66.4784 57.7338 66.2084 57.8444 65.9272 57.8443H60.9172L64.5922 70.7186H73.4508C74.0936 70.7186 74.8072 70.905 75.4479 71.4258C76.0886 71.9465 76.5729 72.8529 76.5729 73.9329C76.5811 74.4065 76.4845 74.8761 76.29 75.3081C76.0955 75.74 75.8079 76.1236 75.4479 76.4315C74.8856 76.8949 74.1794 77.148 73.4508 77.1472H60.57C60.3352 77.1477 60.1067 77.0709 59.9197 76.9289C59.7327 76.7868 59.5975 76.5872 59.535 76.3607L54.3922 57.8465H53.07V65.3615C53.07 65.6456 52.9572 65.9182 52.7562 66.1191C52.5553 66.32 52.2828 66.4329 51.9986 66.4329H45.57V72.8615H50.9272C50.935 72.8614 50.9429 72.8614 50.9508 72.8615C54.0922 72.9408 55.875 73.8472 56.7193 75.1372C57.5615 76.4293 57.3558 77.8672 57.3558 78.2186C57.3558 78.5028 57.2429 78.7753 57.0419 78.9762C56.841 79.1772 56.5685 79.29 56.2843 79.29H28.4272C28.143 79.29 27.8705 79.1772 27.6696 78.9762C27.4686 78.7753 27.3558 78.5028 27.3558 78.2186C27.3558 77.9379 27.0772 76.4465 27.8958 75.1093C28.7143 73.77 30.5358 72.8615 33.7843 72.8615H39.1415V66.4329H32.7129C32.4287 66.4329 32.1562 66.32 31.9553 66.1191C31.7544 65.9182 31.6415 65.6456 31.6415 65.3615V57.8443H28.4272C28.143 57.8443 27.8705 57.7314 27.6696 57.5305C27.4686 57.3296 27.3558 57.0571 27.3558 56.7729V48.2808C27.3365 48.1629 26.3208 41.4858 25.9029 38.805L25.8643 38.5758H16.6415C16.2186 38.5786 15.7993 38.4974 15.4081 38.3369C15.0168 38.1764 14.6613 37.9397 14.3623 37.6407C14.0632 37.3416 13.8266 36.9862 13.6661 36.5949C13.5055 36.2036 13.4243 35.7844 13.4272 35.3615C13.4272 34.3758 13.8622 33.51 14.4815 32.9615C15.1008 32.4172 15.87 32.1472 16.6415 32.1472H25.1336L22.3415 12.075C22.3218 11.9353 22.33 11.793 22.3655 11.6564C22.4011 11.5198 22.4632 11.3916 22.5484 11.2791C22.6337 11.1666 22.7403 11.072 22.8621 11.0009C22.984 10.9297 23.1188 10.8833 23.2586 10.8643C24.0086 10.7615 24.7586 10.7358 25.455 10.7358C25.51 10.7228 25.5659 10.7142 25.6222 10.71ZM25.6136 12.87C25.2922 12.87 24.96 12.9022 24.6279 12.9236L27.2958 32.1472H30.5143C32.1343 31.3672 33.4008 30.4908 34.1722 29.5608C34.9779 28.5922 35.3079 27.6215 35.1322 26.3336L34.0608 18.2336C33.855 16.7379 32.9422 15.4436 31.4465 14.4686C29.9572 13.4958 27.9 12.8915 25.6179 12.87H25.6136ZM16.6415 34.29C16.3701 34.295 16.1085 34.3926 15.9 34.5665C15.6986 34.7443 15.57 34.9586 15.57 35.3615C15.57 35.7643 15.6986 35.9658 15.9 36.1436C16.1073 36.3211 16.3687 36.4231 16.6415 36.4329H48.7843C51.5593 36.4329 53.355 37.2472 54.2829 38.6058C55.2108 39.9643 55.2129 41.5436 55.2129 42.8615V47.13H57.3558V40.7186C57.3558 39.0579 56.805 37.4315 55.7572 36.2529C54.7072 35.0743 53.1708 34.29 50.9272 34.29H30.885C30.7898 34.3029 30.6932 34.3029 30.5979 34.29H16.6415ZM28.0329 38.5758C28.4636 41.3422 29.4858 48.0558 29.4858 48.0558C29.4938 48.1068 29.4981 48.1584 29.4986 48.21V55.71H64.6286C64.5858 55.0415 64.6286 54.2958 64.035 52.9243C63.2122 51.0236 61.8108 49.2815 58.4272 49.2815H32.7129C32.4544 49.2819 32.2044 49.1889 32.0091 49.0196C31.8138 48.8503 31.6862 48.616 31.65 48.36L30.3108 38.5758H28.0329ZM32.4729 38.5758L33.645 47.13H53.07V42.8615C53.07 41.5972 52.9715 40.4872 52.5129 39.8143C52.0522 39.1415 51.1736 38.5758 48.7843 38.5758H32.4729ZM38.07 57.8443V60.0043H46.6415V57.8443H38.07ZM33.7843 57.87V64.2986H50.9272V57.87H48.7843V61.0843C48.7843 61.3685 48.6714 61.641 48.4705 61.8419C48.2696 62.0429 47.9971 62.1558 47.7129 62.1558H36.9986C36.7145 62.1558 36.4419 62.0429 36.241 61.8419C36.0401 61.641 35.9272 61.3685 35.9272 61.0843V57.87H33.7843ZM56.6272 57.87L61.3843 75.0043H73.4508C73.605 75.0043 73.9136 74.9186 74.1 74.7665C74.2865 74.6143 74.43 74.4515 74.43 73.9329C74.43 73.4143 74.2865 73.2386 74.1 73.0865C73.9103 72.9495 73.6845 72.8713 73.4508 72.8615H63.7843C63.5525 72.8615 63.3269 72.7863 63.1415 72.6472C62.956 72.5081 62.8207 72.3126 62.7558 72.09L58.6908 57.87H56.6272ZM41.2843 66.4415V72.87H43.4272V66.4415H41.2843ZM33.7843 75.0129C30.9108 75.0129 30.0536 75.7029 29.7236 76.2386C29.5736 76.4872 29.6379 76.8558 29.6186 77.1558H55.05C55.0158 76.8836 55.0822 76.5622 54.9258 76.3222C54.5679 75.7736 53.6722 75.0793 50.9036 75.0129H33.7865H33.7843Z" fill="#AC3A99" fill-opacity="0.698039"/>
</g>
<defs>
<clipPath id="clip0_88_3016">
<rect width="90" height="90" fill="white"/>
</clipPath>
</defs>
</svg>
