<svg width="90" height="90" viewBox="0 0 90 90" fill="none" xmlns="http://www.w3.org/2000/svg">
<rect width="90" height="90" rx="20" fill="#AC3A99" fill-opacity="0.698039"/>
<path d="M19.0222 4.3763e-05C16.5226 -0.00532338 14.0467 0.483035 11.7364 1.43709C9.42608 2.39114 7.32696 3.79209 5.55953 5.55953C3.79209 7.32696 2.39114 9.42608 1.43709 11.7364C0.483035 14.0467 -0.00532338 16.5226 4.3763e-05 19.0222V70.9778C-0.00532338 73.4774 0.483035 75.9533 1.43709 78.2636C2.39114 80.5739 3.79209 82.673 5.55953 84.4405C7.32696 86.2079 9.42608 87.6089 11.7364 88.5629C14.0467 89.517 16.5226 90.0053 19.0222 90H70.9778C73.4774 90.0053 75.9533 89.517 78.2636 88.5629C80.5739 87.6089 82.673 86.2079 84.4405 84.4405C86.2079 82.673 87.6089 80.5739 88.5629 78.2636C89.517 75.9533 90.0053 73.4774 90 70.9778V19.0222C90.0053 16.5226 89.517 14.0467 88.5629 11.7364C87.6089 9.42608 86.2079 7.32696 84.4405 5.55953C82.673 3.79209 80.5739 2.39114 78.2636 1.43709C75.9533 0.483035 73.4774 -0.00532338 70.9778 4.3763e-05H19.0222ZM25.6155 10.7105C25.6191 10.7103 25.6222 10.7131 25.6222 10.7167V10.7167C25.6222 10.7201 25.6249 10.7229 25.6283 10.7229C28.2809 10.7454 30.7193 11.4396 32.6164 12.6772C34.515 13.9157 35.8843 15.7522 36.1864 17.9465L37.2579 26.0486C37.5107 27.8979 36.9322 29.595 35.8222 30.9343V30.9343C35.4461 31.3878 35.7235 32.1472 36.3126 32.1472H50.9271C53.7 32.1472 55.9136 33.21 57.36 34.8343C58.8043 36.4586 59.4986 38.5886 59.4986 40.7186V40.7186C59.4986 44.4166 62.7696 47.3597 64.989 50.3176C65.4124 50.8819 65.7478 51.4775 66.0021 52.065C67.02 54.4174 66.9994 56.722 66.9986 56.7885C66.9986 56.7906 66.9985 56.7911 66.9985 56.7932C66.9932 57.0732 66.8784 57.34 66.6787 57.5365C66.4783 57.7338 66.2083 57.8443 65.9271 57.8443V57.8443C63.4162 57.8443 61.6031 60.2473 62.2923 62.6618L63.259 66.0483C64.0481 68.8125 66.5743 70.7185 69.4489 70.7185H73.4507C74.0935 70.7185 74.8071 70.905 75.4478 71.4257C76.0885 71.9464 76.5728 72.8528 76.5728 73.9328C76.581 74.4065 76.4844 74.8761 76.2899 75.308C76.0954 75.7399 75.8079 76.1236 75.4478 76.4314C74.8855 76.8948 74.1794 77.1479 73.4507 77.1471H60.57C60.3351 77.1476 60.1066 77.0709 59.9196 76.9288C59.7326 76.7867 59.5975 76.5871 59.535 76.3607L54.545 58.3966C54.4546 58.0714 54.1586 57.8464 53.8212 57.8464V57.8464C53.4063 57.8464 53.07 58.1827 53.07 58.5976V65.3614C53.07 65.6456 52.9571 65.9181 52.7562 66.119C52.5553 66.32 52.2827 66.4328 51.9986 66.4328H48.7843C47.0091 66.4328 45.57 67.8719 45.57 69.6471V69.6471C45.57 71.4223 47.0091 72.8614 48.7843 72.8614H50.9271C50.935 72.8613 50.9429 72.8613 50.9507 72.8614C54.0921 72.9407 55.875 73.8471 56.7193 75.1371C57.5614 76.4293 57.3557 77.8671 57.3557 78.2185C57.3557 78.5027 57.2428 78.7752 57.0419 78.9762C56.841 79.1771 56.5684 79.29 56.2843 79.29H28.4272C28.143 79.29 27.8705 79.1771 27.6695 78.9762C27.4686 78.7752 27.3557 78.5027 27.3557 78.2185C27.3557 77.9378 27.0772 76.4464 27.8957 75.1093C28.7143 73.77 30.5357 72.8614 33.7843 72.8614H35.9272C37.7024 72.8614 39.1414 71.4223 39.1414 69.6471V69.6471C39.1414 67.8719 37.7024 66.4328 35.9272 66.4328H32.7129C32.4287 66.4328 32.1562 66.32 31.9553 66.119C31.7543 65.9181 31.6414 65.6456 31.6414 65.3614V61.0586C31.6414 59.2834 30.2024 57.8443 28.4272 57.8443V57.8443C28.143 57.8443 27.8705 57.7314 27.6695 57.5305C27.4686 57.3295 27.3557 57.057 27.3557 56.7728V49.4999C27.3557 48.6884 27.2941 47.8794 27.1717 47.0773C26.8555 45.0055 26.2137 40.7993 25.9029 38.805V38.805C25.8806 38.6727 25.766 38.5757 25.6318 38.5757H16.6415C16.2186 38.5786 15.7993 38.4974 15.408 38.3368C15.0168 38.1763 14.6613 37.9397 14.3623 37.6406C14.0632 37.3416 13.8266 36.9861 13.666 36.5949C13.5055 36.2036 13.4243 35.7843 13.4272 35.3614C13.4272 34.3757 13.8622 33.51 14.4815 32.9614C15.1007 32.4172 15.87 32.1472 16.6415 32.1472V32.1472C21.1293 32.1472 24.5819 28.181 23.9636 23.736L22.3415 12.075C22.3218 11.9353 22.33 11.793 22.3655 11.6564C22.401 11.5198 22.4632 11.3916 22.5484 11.2791C22.6336 11.1666 22.7403 11.072 22.8621 11.0008C22.984 10.9297 23.1187 10.8833 23.2586 10.8643C24.0027 10.7623 24.7468 10.7362 25.4385 10.7358C25.4495 10.7357 25.4604 10.7344 25.4711 10.7321C25.5187 10.7216 25.5669 10.7144 25.6155 10.7105ZM25.6136 12.87V12.87C25.0804 12.87 24.6903 13.3735 24.7636 13.9016L26.9452 29.6211C27.1461 31.0691 28.3841 32.1472 29.846 32.1472V32.1472C30.2859 32.1472 30.722 32.0516 31.1114 31.8469C32.4465 31.1447 33.4982 30.3732 34.1722 29.5607C34.9779 28.5922 35.3079 27.6214 35.1322 26.3336L34.0607 18.2336C33.855 16.7379 32.9422 15.4436 31.4464 14.4686C29.9572 13.4957 27.9 12.8915 25.6179 12.87H25.6136ZM16.6415 34.29C16.37 34.295 16.1085 34.3925 15.9 34.5664C15.6986 34.7443 15.57 34.9586 15.57 35.3614C15.57 35.7643 15.6986 35.9657 15.9 36.1436C16.1073 36.3211 16.3687 36.4231 16.6415 36.4329H48.7843C51.5593 36.4329 53.355 37.2472 54.2829 38.6057C55.2107 39.9643 55.2129 41.5436 55.2129 42.8614V46.0586C55.2129 46.6503 55.6925 47.13 56.2843 47.13V47.13C56.876 47.13 57.3557 46.6503 57.3557 46.0586V40.7186C57.3557 39.0579 56.805 37.4314 55.7571 36.2529C54.7071 35.0743 53.1707 34.29 50.9271 34.29H30.885C30.7897 34.3029 30.6932 34.3029 30.5979 34.29H16.6415ZM29.3367 38.5757C28.6516 38.5757 28.1277 39.1857 28.2321 39.8628C28.7012 42.9044 29.4354 47.7252 29.4833 48.0395C29.4851 48.0513 29.4867 48.0616 29.4884 48.0734C29.4947 48.1187 29.4981 48.1643 29.4986 48.21V48.21C29.4986 52.3521 32.8564 55.71 36.9986 55.71H61.7591C63.3133 55.71 64.6523 54.3506 64.035 52.9243V52.9243C63.2121 51.0236 61.8107 49.2814 58.4271 49.2814H32.7129C32.4544 49.2819 32.2044 49.1889 32.0091 49.0196C31.8137 48.8502 31.6862 48.616 31.65 48.36L30.4428 39.5408C30.3671 38.9879 29.8948 38.5757 29.3367 38.5757V38.5757ZM37.376 38.5757C34.783 38.5757 32.7865 40.8645 33.1385 43.4335V43.4335C33.4287 45.5515 35.2382 47.13 37.376 47.13H48.8014C51.1589 47.13 53.07 45.2189 53.07 42.8614V42.8614C53.07 41.5972 52.9714 40.4872 52.5129 39.8143C52.0521 39.1414 51.1736 38.5757 48.7843 38.5757H37.376ZM39.15 57.8443C38.5535 57.8443 38.07 58.3278 38.07 58.9243V58.9243C38.07 59.5207 38.5535 60.0043 39.15 60.0043H45.5614C46.1579 60.0043 46.6414 59.5207 46.6414 58.9243V58.9243C46.6414 58.3278 46.1579 57.8443 45.5614 57.8443H39.15ZM34.8557 57.87C34.264 57.87 33.7843 58.3497 33.7843 58.9414V61.0843C33.7843 62.8595 35.2234 64.2986 36.9986 64.2986H47.7129C49.4881 64.2986 50.9271 62.8595 50.9271 61.0843V58.9414C50.9271 58.3497 50.4474 57.87 49.8557 57.87V57.87C49.264 57.87 48.7843 58.3497 48.7843 58.9414V61.0843C48.7843 61.3684 48.6714 61.641 48.4705 61.8419C48.2695 62.0428 47.997 62.1557 47.7129 62.1557H36.9986C36.7144 62.1557 36.4419 62.0428 36.241 61.8419C36.04 61.641 35.9272 61.3684 35.9272 61.0843V58.9414C35.9272 58.3497 35.4475 57.87 34.8557 57.87V57.87ZM57.9387 57.87C57.2794 57.87 56.8016 58.4985 56.978 59.1338L59.642 68.729C60.6717 72.4376 64.0481 75.0043 67.8969 75.0043H73.4507C73.605 75.0043 73.9135 74.9185 74.1 74.7664C74.2864 74.6143 74.43 74.4514 74.43 73.9328C74.43 73.4143 74.2864 73.2385 74.1 73.0864C73.9102 72.9495 73.6845 72.8713 73.4507 72.8614H63.7843C63.5525 72.8614 63.3269 72.7862 63.1414 72.6471C62.956 72.508 62.8206 72.3125 62.7557 72.09L58.8974 58.593C58.775 58.165 58.3838 57.87 57.9387 57.87V57.87ZM42.3557 66.4414C41.764 66.4414 41.2843 66.9211 41.2843 67.5128V71.7985C41.2843 72.3903 41.764 72.87 42.3557 72.87V72.87C42.9475 72.87 43.4271 72.3903 43.4271 71.7985V67.5128C43.4271 66.9211 42.9475 66.4414 42.3557 66.4414V66.4414ZM33.7843 75.0128C30.9107 75.0128 30.0536 75.7028 29.7236 76.2385V76.2385C29.4623 76.6715 30.0466 77.1557 30.5524 77.1557H54.1967C54.6496 77.1557 55.173 76.7016 54.9257 76.3221V76.3221C54.5679 75.7735 53.6721 75.0793 50.9036 75.0128H33.7864H33.7843Z" fill="white"/>
</svg>
