<svg width="90" height="90" viewBox="0 0 90 90" fill="none" xmlns="http://www.w3.org/2000/svg">
<rect x="10" y="10" width="70" height="70" rx="20" fill="#AC3A99"/>
<path d="M21.9086 5.00004C19.6868 4.99527 17.4859 5.42936 15.4323 6.27741C13.3787 7.12545 11.5129 8.37075 9.9418 9.9418C8.37075 11.5129 7.12545 13.3787 6.27741 15.4323C5.42936 17.4859 4.99527 19.6868 5.00004 21.9086V68.0914C4.99527 70.3132 5.42936 72.5141 6.27741 74.5677C7.12545 76.6213 8.37075 78.4871 9.9418 80.0582C11.5129 81.6292 13.3787 82.8745 15.4323 83.7226C17.4859 84.5706 19.6868 85.0047 21.9086 85H68.0914C70.3132 85.0047 72.5141 84.5706 74.5677 83.7226C76.6213 82.8745 78.4871 81.6292 80.0582 80.0582C81.6292 78.4871 82.8745 76.6213 83.7226 74.5677C84.5706 72.5141 85.0047 70.3132 85 68.0914V21.9086C85.0047 19.6868 84.5706 17.4859 83.7226 15.4323C82.8745 13.3787 81.6292 11.5129 80.0582 9.9418C78.4871 8.37075 76.6213 7.12545 74.5677 6.27741C72.5141 5.42936 70.3132 4.99527 68.0914 5.00004H21.9086ZM27.7693 14.5205C27.7725 14.5202 27.7753 14.5228 27.7753 14.526V14.526C27.7753 14.529 27.7777 14.5315 27.7807 14.5315C30.1386 14.5515 32.3061 15.1685 33.9924 16.2686C35.68 17.3696 36.8972 19.0019 37.1657 20.9524L38.1181 28.1543C38.3429 29.7981 37.8286 31.3067 36.8419 32.4972V32.4972C36.5076 32.9002 36.7542 33.5752 37.2778 33.5752H50.2686C52.7333 33.5752 54.7009 34.52 55.9867 35.9638C57.2705 37.4076 57.8876 39.301 57.8876 41.1943V41.1943C57.8876 44.4814 60.7952 47.0975 62.768 49.7268C63.1444 50.2283 63.4425 50.7578 63.6686 51.28C64.5716 53.3672 64.5551 55.412 64.5543 55.4783C64.5543 55.4804 64.5543 55.481 64.5542 55.4832C64.5494 55.7319 64.4474 55.969 64.27 56.1436C64.0918 56.3189 63.8519 56.4172 63.6019 56.4171V56.4171C61.3699 56.4171 59.7583 58.5532 60.3709 60.6994L61.2302 63.7096C61.9316 66.1667 64.1771 67.8609 66.7323 67.8609H70.2895C70.8609 67.8609 71.4952 68.0266 72.0647 68.4895C72.6343 68.9524 73.0647 69.7581 73.0647 70.7181C73.072 71.1391 72.9861 71.5565 72.8133 71.9404C72.6404 72.3244 72.3848 72.6654 72.0647 72.939C71.5649 73.3509 70.9372 73.5759 70.2895 73.5752H58.84C58.6312 73.5756 58.4281 73.5074 58.2619 73.3811C58.0956 73.2548 57.9755 73.0774 57.92 72.8762L53.4844 56.908C53.4041 56.619 53.141 56.419 52.841 56.419V56.419C52.4723 56.419 52.1733 56.718 52.1733 57.0868V63.099C52.1733 63.3516 52.073 63.5939 51.8944 63.7725C51.7158 63.9511 51.4735 64.0514 51.221 64.0514H48.3638C46.7859 64.0514 45.5067 65.3306 45.5067 66.9086V66.9086C45.5067 68.4865 46.7859 69.7657 48.3638 69.7657H50.2686C50.2756 69.7656 50.2825 69.7656 50.2895 69.7657C53.0819 69.8362 54.6667 70.6419 55.4171 71.7885C56.1657 72.9371 55.9828 74.2152 55.9828 74.5276C55.9828 74.7802 55.8825 75.0224 55.7039 75.201C55.5253 75.3796 55.2831 75.48 55.0305 75.48H30.2686C30.016 75.48 29.7738 75.3796 29.5952 75.201C29.4165 75.0224 29.3162 74.7802 29.3162 74.5276C29.3162 74.2781 29.0686 72.9523 29.7962 71.7638C30.5238 70.5733 32.1429 69.7657 35.0305 69.7657H36.9353C38.5132 69.7657 39.7924 68.4865 39.7924 66.9086V66.9086C39.7924 65.3306 38.5132 64.0514 36.9353 64.0514H34.0781C33.8255 64.0514 33.5833 63.9511 33.4047 63.7725C33.2261 63.5939 33.1257 63.3516 33.1257 63.099V59.2743C33.1257 57.6963 31.8465 56.4171 30.2686 56.4171V56.4171C30.016 56.4171 29.7738 56.3168 29.5952 56.1382C29.4165 55.9596 29.3162 55.7173 29.3162 55.4648V49.1354C29.3162 48.3239 29.2546 47.515 29.1322 46.7128C28.8448 44.8293 28.2946 41.2242 28.0248 39.4933V39.4933C28.005 39.3757 27.9031 39.2895 27.7838 39.2895H19.7924C19.4165 39.2921 19.0438 39.2199 18.696 39.0772C18.3483 38.9345 18.0323 38.7242 17.7665 38.4583C17.5006 38.1925 17.2903 37.8765 17.1476 37.5288C17.0049 37.181 16.9327 36.8083 16.9353 36.4324C16.9353 35.5562 17.3219 34.7867 17.8724 34.2991C18.4229 33.8152 19.1067 33.5752 19.7924 33.5752V33.5752C23.7816 33.5752 26.8506 30.0498 26.3009 26.0987L24.8591 15.7334C24.8416 15.6091 24.8489 15.4827 24.8805 15.3613C24.912 15.2398 24.9673 15.1259 25.043 15.0258C25.1188 14.9258 25.2136 14.8418 25.3219 14.7785C25.4302 14.7153 25.55 14.674 25.6743 14.6572C26.3357 14.5665 26.9971 14.5433 27.612 14.5429C27.6218 14.5429 27.6315 14.5417 27.641 14.5396C27.6833 14.5303 27.7262 14.5239 27.7693 14.5205ZM27.7676 16.44V16.44C27.2937 16.44 26.9469 16.8875 27.0121 17.357L28.9513 31.3299C29.1299 32.617 30.2303 33.5752 31.5298 33.5752V33.5752C31.9208 33.5752 32.3085 33.4903 32.6545 33.3083C33.8414 32.6842 34.7762 31.9984 35.3752 31.2762C36.0914 30.4153 36.3848 29.5524 36.2286 28.4076L35.2762 21.2076C35.0933 19.8781 34.2819 18.7276 32.9524 17.861C31.6286 16.9962 29.8 16.4591 27.7714 16.44H27.7676ZM19.7924 35.48C19.5511 35.4844 19.3186 35.5711 19.1334 35.7257C18.9543 35.8838 18.84 36.0743 18.84 36.4324C18.84 36.7905 18.9543 36.9695 19.1334 37.1276C19.3176 37.2854 19.55 37.3761 19.7924 37.3848H48.3638C50.8305 37.3848 52.4267 38.1086 53.2514 39.3162C54.0762 40.5238 54.0781 41.9276 54.0781 43.0991V45.941C54.0781 46.4669 54.5045 46.8933 55.0305 46.8933V46.8933C55.5565 46.8933 55.9828 46.4669 55.9828 45.9409V41.1943C55.9828 39.7181 55.4933 38.2724 54.5619 37.2248C53.6286 36.1772 52.2629 35.48 50.2686 35.48H32.4533C32.3687 35.4915 32.2828 35.4915 32.1981 35.48H19.7924ZM31.077 39.2895C30.468 39.2895 30.0024 39.8317 30.0952 40.4336C30.5122 43.1372 31.1648 47.4224 31.2073 47.7018C31.2089 47.7123 31.2104 47.7214 31.2119 47.7319C31.2175 47.7721 31.2205 47.8127 31.221 47.8533V47.8533C31.221 51.5352 34.2057 54.52 37.8876 54.52H59.897C61.2785 54.52 62.4687 53.3116 61.92 52.0438V52.0438C61.1886 50.3543 59.9428 48.8057 56.9352 48.8057H34.0781C33.8483 48.8061 33.6261 48.7235 33.4525 48.5729C33.2789 48.4224 33.1655 48.2142 33.1333 47.9867L32.0603 40.1474C31.993 39.6559 31.5731 39.2895 31.077 39.2895V39.2895ZM38.2232 39.2895C35.9183 39.2895 34.1435 41.324 34.4564 43.6076V43.6076C34.7144 45.4903 36.3229 46.8933 38.2231 46.8933H48.3791C50.4746 46.8933 52.1733 45.1946 52.1733 43.0991V43.0991C52.1733 41.9752 52.0857 40.9886 51.6781 40.3905C51.2686 39.7924 50.4876 39.2895 48.3638 39.2895H38.2232ZM39.8 56.4171C39.2698 56.4171 38.84 56.8469 38.84 57.3771V57.3771C38.84 57.9073 39.2698 58.3371 39.8 58.3371H45.499C46.0292 58.3371 46.459 57.9073 46.459 57.3771V57.3771C46.459 56.8469 46.0292 56.4171 45.499 56.4171H39.8ZM35.9829 56.44C35.4569 56.44 35.0305 56.8664 35.0305 57.3924V59.2971C35.0305 60.8751 36.3097 62.1543 37.8876 62.1543H47.4114C48.9894 62.1543 50.2686 60.8751 50.2686 59.2971V57.3924C50.2686 56.8664 49.8422 56.44 49.3162 56.44V56.44C48.7902 56.44 48.3638 56.8664 48.3638 57.3924V59.2971C48.3638 59.5497 48.2635 59.792 48.0849 59.9706C47.9063 60.1492 47.664 60.2495 47.4114 60.2495H37.8876C37.635 60.2495 37.3928 60.1492 37.2142 59.9706C37.0356 59.792 36.9352 59.5497 36.9352 59.2971V57.3924C36.9352 56.8664 36.5089 56.44 35.9829 56.44V56.44ZM56.5011 56.44C55.915 56.44 55.4903 56.9987 55.6471 57.5634L58.0151 66.0924C58.9304 69.3889 61.9316 71.6704 65.3528 71.6704H70.2895C70.4266 71.6704 70.7009 71.5943 70.8666 71.459C71.0324 71.3238 71.16 71.179 71.16 70.7181C71.16 70.2571 71.0324 70.1009 70.8666 69.9657C70.698 69.844 70.4973 69.7744 70.2895 69.7657H61.6971C61.4911 69.7657 61.2906 69.6989 61.1257 69.5752C60.9608 69.4516 60.8405 69.2778 60.7828 69.08L57.3532 57.0827C57.2445 56.7022 56.8967 56.44 56.5011 56.44V56.44ZM42.6495 64.059C42.1235 64.059 41.6971 64.4854 41.6971 65.0114V68.8209C41.6971 69.3469 42.1235 69.7733 42.6495 69.7733V69.7733C43.1755 69.7733 43.6019 69.3469 43.6019 68.8209V65.0114C43.6019 64.4854 43.1755 64.059 42.6495 64.059V64.059ZM35.0305 71.6781C32.4762 71.6781 31.7143 72.2914 31.421 72.7676V72.7676C31.1887 73.1525 31.7081 73.5828 32.1577 73.5828H53.1748C53.5775 73.5828 54.0427 73.1792 53.8228 72.8419V72.8419C53.5048 72.3543 52.7086 71.7371 50.2476 71.6781H35.0324H35.0305Z" fill="white"/>
</svg>
