<svg width="30" height="30" viewBox="0 0 30 30" fill="none" xmlns="http://www.w3.org/2000/svg">
<path fill-rule="evenodd" clip-rule="evenodd" d="M13.3022 18.5354C9.5485 20.181 8.4226 21.0584 7.97752 21.4522C7.29161 22.0592 6.91225 24.3216 6.50757 26.2426H15.0001H23.4924C23.0879 24.3216 22.7085 22.0591 22.0226 21.4522C21.5775 21.0584 20.4927 20.2036 16.7392 18.558L13.3022 18.5354Z" fill="#565656"/>
<path fill-rule="evenodd" clip-rule="evenodd" d="M16.8226 15.2553V19.4161C16.3128 20.0566 15.6458 20.4468 15.0002 20.4771C14.3119 20.5096 13.646 20.1392 13.1775 19.4161V15.2553C13.1775 13.0087 16.8226 13.0087 16.8226 15.2553Z" fill="#C2C2C2"/>
<path fill-rule="evenodd" clip-rule="evenodd" d="M16.8226 15.2553V18.041C16.133 18.5437 15.4681 18.8253 15.0002 18.8253C14.5321 18.8253 13.8671 18.5437 13.1775 18.041V15.2553C13.1775 13.0087 16.8226 13.0087 16.8226 15.2553Z" fill="#B9B9B9"/>
<path fill-rule="evenodd" clip-rule="evenodd" d="M13.1753 18.5914L11.7036 19.228L13.5781 21.8262L15.0002 20.4771L13.1753 18.5914Z" fill="#BEBEBE"/>
<path fill-rule="evenodd" clip-rule="evenodd" d="M16.8225 18.594L18.2966 19.228L16.4221 21.8262L15.0001 20.4771L16.8225 18.594Z" fill="#BEBEBE"/>
<path fill-rule="evenodd" clip-rule="evenodd" d="M22.4533 22.1141C22.8852 23.0872 23.1814 24.7657 23.4924 26.2426H20.0448C20.1219 23.8331 20.1263 22.5515 22.4533 22.1141Z" fill="#BEBEBE"/>
<path fill-rule="evenodd" clip-rule="evenodd" d="M15 5.50653C16.4591 5.50653 17.7801 6.09801 18.7364 7.05422C19.6926 8.01046 20.2841 9.33147 20.2841 10.7905C20.2841 12.3278 19.6078 14.431 18.539 16.0148C17.6142 17.3851 16.3827 18.3901 15 18.3901C13.6172 18.3901 12.3858 17.3851 11.461 16.0148C10.3922 14.431 9.71594 12.3278 9.71594 10.7905C9.71594 9.33147 10.3074 8.01046 11.2636 7.05422C12.2199 6.09801 13.5409 5.50653 15 5.50653Z" fill="#CFCFCF"/>
<path fill-rule="evenodd" clip-rule="evenodd" d="M11.0229 10.5099C11.9786 10.4238 12.2974 10.4576 13.4205 9.20327C14.7562 10.204 16.9296 10.5099 18.6612 10.0223C18.8308 9.97462 19.2307 10.7194 19.3781 12.0723C20.5679 11.9007 20.2435 10.0745 20.1903 9.69752C19.9611 8.729 19.417 7.73487 18.7363 7.05422C17.9554 6.27327 16.9311 5.7356 15.787 5.56473C15.5302 5.52639 15.2674 5.50653 15 5.50653C13.5409 5.50653 12.2199 6.09801 11.2636 7.05422C10.384 7.93382 9.81308 9.12202 9.72719 10.4424L9.68372 12.5039C9.97602 12.1049 10.0568 10.746 10.7344 12.7047C10.9764 12.2174 10.6943 10.6332 11.0229 10.5099Z" fill="#2F2F2F"/>
<path fill-rule="evenodd" clip-rule="evenodd" d="M9.73668 11.0555C10.0252 11.0555 10.6947 11.7851 10.6947 12.6697C10.6947 13.5544 10.4607 14.2716 10.1721 14.2716C9.88355 14.2716 9.6496 13.5544 9.6496 12.6697C9.6496 11.7851 9.44811 11.0555 9.73668 11.0555Z" fill="#C0C0C1"/>
<path fill-rule="evenodd" clip-rule="evenodd" d="M20.2634 11.0555C19.9748 11.0555 19.3054 11.7851 19.3054 12.6697C19.3054 13.5544 19.5394 14.2716 19.828 14.2716C20.1165 14.2716 20.3505 13.5544 20.3505 12.6697C20.3505 11.7851 20.552 11.0555 20.2634 11.0555Z" fill="#C0C0C1"/>
<path d="M14.0098 16.225C14.1596 16.225 14.281 16.1036 14.281 15.9538C14.281 15.8041 14.1596 15.6826 14.0098 15.6826H10.891C10.4811 15.6826 10.1083 15.5147 9.83782 15.2443C9.56736 14.9738 9.39947 14.601 9.39947 14.1911C9.39947 14.0413 9.27805 13.9199 9.12827 13.9199C8.97849 13.9199 8.85706 14.0413 8.85706 14.1911C8.85706 14.7507 9.08581 15.2593 9.45433 15.6278C9.82285 15.9963 10.3314 16.225 10.891 16.225L14.0098 16.225Z" fill="#444444"/>
<path d="M8.76245 11.1401C8.76245 11.2898 8.88389 11.4113 9.03365 11.4113C9.18343 11.4113 9.30487 11.2898 9.30487 11.1401V9.98749C9.30487 8.42162 9.94565 6.99789 10.978 5.96552C12.0104 4.93317 13.4341 4.29238 15 4.29238C16.5658 4.29238 17.9896 4.93317 19.0219 5.96552C20.0543 6.99789 20.6951 8.42162 20.6951 9.98749V11.1401C20.6951 11.2898 20.8165 11.4113 20.9663 11.4113C21.116 11.4113 21.2375 11.2898 21.2375 11.1401V9.98749C21.2375 8.27189 20.5358 6.71245 19.4054 5.58206C18.275 4.45166 16.7156 3.75 15 3.75C13.2844 3.75 11.7249 4.45165 10.5945 5.58206C9.46415 6.71247 8.76249 8.27191 8.76249 9.98749L8.76245 11.1401Z" fill="#444444"/>
<path fill-rule="evenodd" clip-rule="evenodd" d="M9.75973 14.649L9.3717 14.4685L9.36426 10.8552C9.36426 10.8356 9.36924 10.8168 9.37829 10.7995L9.73144 10.7241C9.7671 10.7518 9.78897 10.7892 9.78897 10.8304L9.77987 14.5829C9.77987 14.6066 9.77266 14.629 9.75973 14.649Z" fill="#ABABAB"/>
<path d="M8.44858 11.0068L9.45428 10.7756C9.44549 10.7961 9.44055 10.8192 9.44055 10.8436V14.517L8.37904 14.0289C8.27821 13.9826 8.21842 13.8828 8.22013 13.7785V11.2746C8.22013 11.1394 8.31913 11.0273 8.44858 11.0068ZM9.66548 10.727L9.90557 10.6718C9.94855 10.6619 9.98953 10.6573 10.0284 10.6573C10.1885 10.6573 10.3316 10.7272 10.4419 10.8366C10.539 10.9328 10.6105 11.0627 10.6419 11.1994C10.6543 11.2532 10.6609 11.3071 10.6609 11.3593V14.0374C10.6609 14.1429 10.6338 14.2541 10.5874 14.355C10.5416 14.4548 10.4752 14.5468 10.3961 14.6152C10.2986 14.6995 10.1813 14.7518 10.0525 14.7518C9.98732 14.7518 9.92066 14.7377 9.85367 14.7069L9.69578 14.6343C9.70597 14.6126 9.71174 14.5877 9.71174 14.5613V10.8436C9.71174 10.7971 9.69384 10.7554 9.66548 10.727Z" fill="#2F2F2F"/>
<path fill-rule="evenodd" clip-rule="evenodd" d="M20.2403 14.649L20.6283 14.4685L20.6358 10.8552C20.6358 10.8356 20.6308 10.8168 20.6217 10.7995L20.2686 10.7241C20.2329 10.7518 20.2111 10.7892 20.2111 10.8304L20.2202 14.5829C20.2202 14.6066 20.2274 14.629 20.2403 14.649Z" fill="#ABABAB"/>
<path d="M21.5514 11.0068L20.5457 10.7756C20.5545 10.7961 20.5595 10.8192 20.5595 10.8436V14.517L21.621 14.0289C21.7218 13.9826 21.7816 13.8828 21.7799 13.7785V11.2746C21.7799 11.1394 21.6809 11.0273 21.5514 11.0068ZM20.3345 10.727L20.0944 10.6718C20.0515 10.6619 20.0105 10.6573 19.9717 10.6573C19.8115 10.6573 19.6684 10.7272 19.5581 10.8366C19.4611 10.9328 19.3895 11.0627 19.3581 11.1994C19.3457 11.2532 19.3391 11.3071 19.3391 11.3593V14.0374C19.3391 14.1429 19.3662 14.2541 19.4126 14.355C19.4584 14.4548 19.5248 14.5468 19.6039 14.6152C19.7014 14.6995 19.8187 14.7518 19.9475 14.7518C20.0127 14.7518 20.0794 14.7377 20.1463 14.7069L20.3042 14.6343C20.294 14.6126 20.2883 14.5877 20.2883 14.5613V10.8436C20.2883 10.7971 20.3062 10.7554 20.3345 10.727Z" fill="#2F2F2F"/>
<path d="M14.6878 15.1462C14.9124 15.1462 15.1158 15.2373 15.2631 15.3846C15.4103 15.5318 15.5014 15.7352 15.5014 15.9599C15.5014 16.1845 15.4103 16.3879 15.2631 16.5351C15.1158 16.6824 14.9124 16.7734 14.6878 16.7734C14.6818 16.7734 14.6754 16.7734 14.6686 16.7732V15.1465C14.6754 15.1463 14.6818 15.1462 14.6878 15.1462Z" fill="#2D2D2D"/>
<path d="M14.6879 15.1462C14.9125 15.1462 15.1159 15.2373 15.2632 15.3846C15.4104 15.5318 15.5015 15.7352 15.5015 15.9599C15.5015 16.1845 15.4104 16.3879 15.2632 16.5351C15.1159 16.6824 14.9125 16.7734 14.6879 16.7734C14.4632 16.7734 13.5818 16.6824 13.4346 16.5351C13.2874 16.3879 13.1963 16.1845 13.1963 15.9599C13.1963 15.7352 13.2874 15.5318 13.4346 15.3846C13.5818 15.2373 14.4632 15.1462 14.6879 15.1462Z" fill="#2F2F2F"/>
<path fill-rule="evenodd" clip-rule="evenodd" d="M14.036 25.4578L15 21.2695L15.9639 25.4578L15 26.25L14.036 25.4578Z" fill="#AAAAAA"/>
<path fill-rule="evenodd" clip-rule="evenodd" d="M14.1337 21.554L14.9999 20.6878L15.8662 21.554L14.9999 22.4203L14.1337 21.554Z" fill="#9E9E9E"/>
<path fill-rule="evenodd" clip-rule="evenodd" d="M7.5467 22.1141C7.11478 23.0872 6.8186 24.7657 6.50757 26.2426H9.95513C9.87801 23.8331 9.87366 22.5515 7.5467 22.1141Z" fill="#BEBEBE"/>
</svg>
