<svg width="20" height="20" viewBox="0 0 20 20" fill="none" xmlns="http://www.w3.org/2000/svg">
<path d="M15.6314 0H4.36863C1.9559 0 0 1.9559 0 4.36863V15.6314C0 18.0441 1.9559 20 4.36863 20H15.6314C18.0441 20 20 18.0441 20 15.6314V4.36863C20 1.9559 18.0441 0 15.6314 0Z" fill="#34AADF"/>
<path d="M5.56403 9.64572C5.56403 9.64572 9.63297 7.93195 11.0442 7.32849C11.5851 7.08712 13.4197 6.31471 13.4197 6.31471C13.4197 6.31471 14.2664 5.97679 14.1958 6.79746C14.1723 7.1354 13.9841 8.31814 13.796 9.59745C13.5137 11.4078 13.208 13.3871 13.208 13.3871C13.208 13.3871 13.161 13.9423 12.7611 14.0388C12.3613 14.1354 11.7027 13.7009 11.5851 13.6043C11.491 13.5319 9.82113 12.4457 9.20961 11.9147C9.04496 11.7699 8.85682 11.4802 9.23311 11.1423C10.0798 10.3457 11.0912 9.35608 11.7027 8.72851C11.985 8.43884 12.2672 7.76297 11.0912 8.58366C9.42129 9.76643 7.77491 10.8768 7.77491 10.8768C7.77491 10.8768 7.39857 11.1181 6.69299 10.9009C5.98737 10.6837 5.16417 10.394 5.16417 10.394C5.16417 10.394 4.59974 10.0319 5.56403 9.64572Z" fill="white"/>
</svg>
