<svg width="30" height="30" viewBox="0 0 30 30" fill="none" xmlns="http://www.w3.org/2000/svg">
<path d="M26.7125 7.6875L24.0938 10.9031L21.475 7.6875H23.3125V6.90625C23.3117 6.2849 23.0645 5.68924 22.6251 5.24988C22.1858 4.81052 21.5901 4.56333 20.9688 4.5625H20.1875V3H20.9688C22.0044 3.00124 22.9972 3.41319 23.7295 4.14548C24.4618 4.87778 24.8738 5.87063 24.875 6.90625V7.6875H26.7125ZM10.8125 17.0625H5.86406C5.51899 17.0621 5.18818 16.9248 4.94418 16.6808C4.70017 16.4368 4.56291 16.106 4.5625 15.7609V5.86406C4.56291 5.51899 4.70017 5.18818 4.94418 4.94418C5.18818 4.70017 5.51899 4.56291 5.86406 4.5625H15.7609C16.106 4.56291 16.4368 4.70017 16.6808 4.94418C16.9248 5.18818 17.0621 5.51899 17.0625 5.86406V10.8125H18.625V5.86406C18.6242 5.10472 18.3222 4.37671 17.7852 3.83978C17.2483 3.30284 16.5203 3.00083 15.7609 3L5.86406 3C5.10472 3.00083 4.37671 3.30284 3.83978 3.83978C3.30284 4.37671 3.00083 5.10472 3 5.86406L3 15.7609C3.00083 16.5203 3.30284 17.2483 3.83978 17.7852C4.37671 18.3222 5.10472 18.6242 5.86406 18.625H10.8125V17.0625ZM13.5203 10.8813C13.8 10.359 14.0332 9.81313 14.2172 9.25H15.5V7.6875H11.6234L11.8234 7.48594L10.1719 5.83281L9.06719 6.9375L9.81719 7.6875H6.125V9.25H7.325C7.76507 10.6603 8.52309 11.9508 9.54062 13.0219C8.68208 13.5756 7.73664 13.9813 6.74375 14.2219L7.12187 15.7375C8.43207 15.4212 9.66915 14.8557 10.7656 14.0719C10.7828 14.0844 10.8047 14.0938 10.8219 14.1062C10.8423 13.3432 11.12 12.6095 11.6098 12.0241C12.0996 11.4387 12.7729 11.036 13.5203 10.8813ZM8.98438 9.25H12.5531C12.1577 10.2917 11.5464 11.2379 10.7594 12.0266C9.97539 11.2391 9.37002 10.2921 8.98438 9.25ZM25.175 28H15.2C14.451 27.9992 13.7329 27.7013 13.2033 27.1717C12.6737 26.6421 12.3758 25.924 12.375 25.175V15.2C12.3758 14.451 12.6737 13.7329 13.2033 13.2033C13.7329 12.6737 14.451 12.3758 15.2 12.375H25.175C25.924 12.3758 26.6421 12.6737 27.1717 13.2033C27.7013 13.7329 27.9992 14.451 28 15.2V25.175C27.9992 25.924 27.7013 26.6421 27.1717 27.1717C26.6421 27.7013 25.924 27.9992 25.175 28ZM15.2 13.9375C14.8653 13.9379 14.5444 14.0711 14.3077 14.3077C14.0711 14.5444 13.9379 14.8653 13.9375 15.2V25.175C13.9379 25.5097 14.0711 25.8306 14.3077 26.0673C14.5444 26.3039 14.8653 26.4371 15.2 26.4375H25.175C25.5097 26.4371 25.8306 26.3039 26.0673 26.0673C26.3039 25.8306 26.4371 25.5097 26.4375 25.175V15.2C26.4371 14.8653 26.3039 14.5444 26.0673 14.3077C25.8306 14.0711 25.5097 13.9379 25.175 13.9375H15.2ZM23.5469 24.7812L24.9516 24.0953L20.1875 14.3453L15.4234 24.0953L16.8281 24.7828L17.5469 23.3125H22.8281L23.5469 24.7812ZM18.3094 21.75L20.1875 17.9062L22.0656 21.75H18.3094ZM10.8125 26.4375V28H10.0312C8.99563 27.9988 8.00278 27.5868 7.27048 26.8545C6.53819 26.1222 6.12624 25.1294 6.125 24.0938V23.3125H4.2875L6.90625 20.0969L9.525 23.3125H7.6875V24.0938C7.68833 24.7151 7.93552 25.3108 8.37488 25.7501C8.81424 26.1895 9.4099 26.4367 10.0312 26.4375H10.8125Z" fill="#727171"/>
</svg>
