<svg width="20" height="20" viewBox="0 0 20 20" fill="none" xmlns="http://www.w3.org/2000/svg">
<path d="M2 0.952393C0.8954 0.952393 0 1.80954 0 2.85715V18.0952C0 19.1429 0.8954 20 2 20H18C19.105 20 20 19.1429 20 18.0952V2.85715C20 1.80954 19.105 0.952393 18 0.952393H2Z" fill="#1499CA"/>
<path d="M2 0C0.8954 0 0 0.852762 0 1.90476V17.1429C0 18.1952 0.8954 19.0476 2 19.0476H18C19.105 19.0476 20 18.1952 20 17.1429V1.90476C20 0.852762 19.105 0 18 0H2Z" fill="#1AB2E8"/>
<path d="M13.4741 5.80951C12.6631 5.80951 11.9421 6.00003 11.3671 6.57146C10.7981 7.14289 10.5321 7.80953 10.5321 8.57144C10.5321 8.76191 10.5561 8.95234 10.6041 9.23806C9.40613 9.14282 8.27913 8.85708 7.22613 8.38089C6.17863 7.80946 5.27053 7.14284 4.53793 6.2857C4.27153 6.66665 4.13833 7.14284 4.13833 7.71427C4.13833 8.19046 4.26553 8.66668 4.50163 9.04763C4.73773 9.42858 5.04653 9.71429 5.44613 10C4.97383 10 4.55003 9.90475 4.13833 9.61903V9.71425C4.13833 10.3809 4.35023 10.9524 4.79223 11.5238C5.24023 12 5.82143 12.2857 6.49953 12.4762C6.24523 12.4762 5.96073 12.5714 5.70033 12.5714C5.53083 12.5714 5.35523 12.5714 5.15553 12.4762C5.34313 13.0476 5.70643 13.5238 6.20893 13.9047C6.71143 14.2857 7.28053 14.3809 7.91633 14.4762C6.85073 15.2381 5.60953 15.6191 4.24733 15.6191H3.55713C4.91933 16.381 6.42083 16.8571 8.06113 16.8571C9.10313 16.8571 10.0901 16.6666 11.0041 16.3809C11.9181 16.0952 12.6811 15.6191 13.3291 15.1429C13.9771 14.5715 14.5341 14 15.0001 13.3333C15.4721 12.5714 15.8231 11.9047 16.0531 11.1428C16.2831 10.3809 16.4161 9.61899 16.4161 8.85708C16.4161 8.76184 16.3861 8.57146 16.3801 8.47622C16.9551 8.09527 17.4641 7.71429 17.8701 7.14287C17.3061 7.33334 16.7251 7.4286 16.1621 7.52384C16.7981 7.14289 17.2461 6.66661 17.4701 5.99994C16.8891 6.28565 16.2771 6.57144 15.6171 6.66668C15.0361 6.09525 14.3221 5.80951 13.4741 5.80951Z" fill="#1499CA"/>
<path d="M13.4741 4.85712C12.6631 4.85712 11.9431 5.04764 11.3671 5.61907C10.7981 6.1905 10.5321 6.85714 10.5321 7.61904C10.5321 7.80952 10.5561 7.99995 10.6051 8.28566C9.40605 8.19043 8.28005 7.90469 7.22625 7.4285C6.17885 6.85707 5.27065 6.19045 4.53805 5.33331C4.27165 5.71426 4.13855 6.19045 4.13855 6.76188C4.13855 7.23807 4.26565 7.71428 4.50175 8.09524C4.73785 8.47619 5.04665 8.7619 5.44625 9.04762C4.97405 9.04762 4.55015 8.95235 4.13855 8.66664V8.76186C4.13855 9.42852 4.35045 9.99997 4.79235 10.5714C5.24035 11.0476 5.82165 11.3333 6.49975 11.5238C6.24545 11.5238 5.96085 11.619 5.70055 11.619C5.53105 11.619 5.35545 11.619 5.15565 11.5238C5.34335 12.0952 5.70655 12.5714 6.20905 12.9524C6.71165 13.3333 7.28075 13.4285 7.91645 13.5238C6.85085 14.2857 5.60975 14.6667 4.24745 14.6667H3.55725C4.91955 15.4286 6.42095 15.9047 8.06205 15.9047C9.10305 15.9047 10.0901 15.7142 11.0041 15.4285C11.9181 15.1428 12.6811 14.6667 13.3291 14.1905C13.9771 13.6191 14.5341 13.0476 15.0001 12.3809C15.4721 11.619 15.8231 10.9523 16.0531 10.1904C16.2841 9.42852 16.4171 8.66659 16.4171 7.90469C16.4171 7.80945 16.3861 7.61907 16.3801 7.52383C16.9561 7.14288 17.4641 6.7619 17.8701 6.19047C17.3071 6.38095 16.7251 6.47621 16.1621 6.57145C16.7981 6.1905 17.2461 5.71421 17.4701 5.04755C16.8891 5.33326 16.2771 5.61904 15.6181 5.71428C15.0361 5.14285 14.3221 4.85712 13.4741 4.85712Z" fill="#ECF0F1"/>
</svg>
