<svg width="300" height="269" viewBox="0 0 300 269" fill="none" xmlns="http://www.w3.org/2000/svg">
<g clip-path="url(#clip0_327_3288)">
<path d="M293.775 180.578C293.824 212.162 283.353 242.863 264.015 267.835H37.9665C18.6286 242.863 8.15786 212.162 8.2072 180.578C8.2072 101.72 72.1361 37.7979 150.994 37.7979C229.852 37.7979 293.775 101.722 293.775 180.578Z" fill="white"/>
<path opacity="0.1" d="M293.775 180.578C293.824 212.162 283.353 242.863 264.015 267.835H37.9665C18.6286 242.863 8.15786 212.162 8.2072 180.578C8.2072 101.72 72.1361 37.7979 150.994 37.7979C229.852 37.7979 293.775 101.722 293.775 180.578Z" fill="#AC3A99"/>
<path d="M221.533 268.295H161.476L157.872 220.362L219.382 222.528C219.382 222.528 220.126 216.94 220.163 227.533C220.188 234.882 221.723 249.452 221.533 268.295Z" fill="#262626"/>
<path d="M183.314 217.609C183.259 218.75 183.197 219.897 183.122 221.038C182.165 236.938 179.967 252.738 176.546 268.295H116.52C117.302 243.957 117.953 224.679 117.953 224.679L157.872 220.362L160.266 220.1L183.314 217.609Z" fill="#262626"/>
<path d="M197.792 55.1817C197.792 55.1817 198.472 70.8592 201.859 76.6207C211.617 93.2063 214.126 111.667 203.75 121.04C193.373 130.412 128.612 129.039 124.22 106.823C120.524 88.1195 129.434 86.3247 131.947 71.0253C133.085 64.1027 136.108 49.601 136.108 49.601" fill="#0A0A0A"/>
<path d="M142.379 104.381C142.49 104.367 143.731 124.955 167.649 123.16C184.207 121.92 190.111 104.352 190.49 104.352C188.705 103.973 185.699 103.421 184.906 102.998C182.299 101.597 179.073 100.139 178.232 95.076C177.748 92.1573 178.569 77.2276 178.317 74.2749L152.9 79.9478C153.255 86.1843 155.741 100.64 147.029 103.201C145.579 103.623 144.018 104.011 142.379 104.381Z" fill="#F0B39B"/>
<path opacity="0.52" d="M152.544 97.2913C152.942 96.0083 153.198 94.6855 153.308 93.3466C153.588 90.2914 153.532 87.2147 153.142 84.1716C158.308 83.4745 163.175 81.3421 167.19 78.0168C167.661 79.7598 170.257 87.3757 169.538 89.0322C168.18 92.1636 161.797 97.2913 152.544 97.2913Z" fill="#0C0C0C"/>
<path d="M154.82 90.7847C164.816 91.9892 177.871 88.2818 180.867 75.0029L183.57 63.0218C186.566 49.7434 182.02 37.4056 169.517 34.5838C157.015 31.7631 145.242 40.4196 142.246 53.6996L141.049 59.0038C139.9 64.098 136.987 88.639 154.82 90.7847Z" fill="#F0B39B"/>
<path d="M152.43 76.1158C154.349 76.1518 156.233 76.6383 157.929 77.5361C157.998 77.5732 158.049 77.6355 158.073 77.7099C158.096 77.7843 158.089 77.8649 158.054 77.9345C158.019 78.0041 157.958 78.0573 157.884 78.0827C157.811 78.1082 157.73 78.1039 157.659 78.0708C154 76.2252 150.568 76.2409 147.737 78.1164C147.679 78.156 147.62 78.1927 147.559 78.2263C147.488 78.256 147.409 78.2575 147.337 78.2305C147.266 78.2035 147.207 78.1501 147.174 78.0813C147.14 78.0124 147.134 77.9334 147.157 77.8603C147.18 77.7872 147.23 77.7258 147.297 77.6885C147.32 77.6759 147.357 77.6508 147.408 77.6167C148.896 76.6279 150.644 76.1053 152.43 76.1158Z" fill="#0C0C0C"/>
<path d="M151.942 72.0506H151.917C151.403 71.9724 150.894 71.8659 150.392 71.7317C149.641 71.5259 148.656 71.1739 148.753 70.5004C148.864 69.7326 152.165 61.7543 152.541 60.8472C152.556 60.8068 152.58 60.77 152.61 60.7388C152.64 60.7076 152.675 60.6828 152.715 60.6657C152.755 60.6487 152.798 60.6398 152.841 60.6395C152.884 60.6393 152.927 60.6477 152.967 60.6643C153.007 60.6809 153.043 60.7053 153.073 60.7361C153.104 60.7669 153.128 60.8035 153.144 60.8437C153.16 60.8839 153.167 60.9269 153.166 60.9701C153.165 61.0134 153.156 61.056 153.138 61.0955C151.73 64.4928 149.467 70.0762 149.393 70.5931C149.487 70.8267 150.734 71.2252 152.012 71.4101C152.094 71.4225 152.169 71.4662 152.22 71.5322C152.27 71.5981 152.294 71.6811 152.285 71.764C152.277 71.8468 152.236 71.9232 152.173 71.9771C152.109 72.0309 152.027 72.0582 151.944 72.0532L151.942 72.0506Z" fill="#0C0C0C"/>
<path d="M193.492 67.576L182.284 65.1145C173.861 61.3589 171.793 46.4775 171.793 46.4775C171.793 46.4775 161.062 56.2312 136.111 49.6009C136.111 49.6009 142.377 14.7018 179.178 26.1959C191.045 29.9023 199.222 42.2741 197.588 58.3748C196.441 69.6547 193.492 67.576 193.492 67.576Z" fill="#0A0A0A"/>
<path d="M179.177 78.8722C182.977 79.7295 186.974 76.3583 187.831 72.5603C188.689 68.7623 186.081 65.9703 182.28 65.1135L179.748 67.2173L175.911 78.1389L179.177 78.8722Z" fill="#F0B39B"/>
<path d="M150.497 53.7546C149.406 52.9953 148.132 52.5431 146.806 52.4453C146.154 52.3934 145.498 52.4398 144.859 52.583C144.227 52.7221 143.615 52.9403 143.037 53.2324C142.958 53.2701 142.896 53.3373 142.865 53.4197C142.835 53.5022 142.837 53.5933 142.873 53.6738C142.908 53.7543 142.974 53.8178 143.055 53.8508C143.137 53.8837 143.228 53.8836 143.31 53.8504L143.334 53.8404C143.867 53.6013 144.428 53.43 145.003 53.3303C145.572 53.229 146.153 53.2144 146.727 53.2869C147.865 53.4222 148.946 53.8558 149.862 54.5438L149.892 54.5674C149.998 54.6501 150.133 54.6872 150.266 54.6706C150.4 54.654 150.521 54.585 150.604 54.4789C150.687 54.3727 150.724 54.238 150.707 54.1044C150.691 53.9708 150.622 53.8493 150.515 53.7666L150.497 53.7546Z" fill="#0C0C0C"/>
<path d="M160.289 56.0243C161.411 55.7905 162.574 55.8578 163.662 56.2191C164.212 56.3976 164.731 56.658 165.203 56.9916C165.682 57.3264 166.117 57.72 166.497 58.1632L166.515 58.182C166.574 58.2464 166.656 58.285 166.744 58.2897C166.832 58.2945 166.918 58.2649 166.984 58.2074C167.05 58.1498 167.091 58.0687 167.099 57.9813C167.106 57.8938 167.08 57.8069 167.024 57.7389C166.625 57.2292 166.164 56.7717 165.651 56.3773C165.134 55.976 164.56 55.6549 163.948 55.4246C162.707 54.949 161.361 54.8159 160.051 55.0392C159.984 55.0492 159.919 55.0727 159.861 55.108C159.804 55.1434 159.753 55.1901 159.714 55.2452C159.674 55.3003 159.646 55.3628 159.631 55.4289C159.616 55.4951 159.615 55.5636 159.627 55.6303C159.639 55.6971 159.664 55.7608 159.701 55.8177C159.738 55.8746 159.786 55.9234 159.842 55.9614C159.898 55.9994 159.961 56.0258 160.028 56.0389C160.094 56.052 160.163 56.0517 160.229 56.0379L160.25 56.0337L160.289 56.0243Z" fill="#0C0C0C"/>
<path d="M182.262 64.9705L182.385 64.662C168.27 59.0325 172.254 45.1273 172.296 44.9869L171.978 44.8916C171.937 45.0341 167.861 59.2268 182.262 64.9705Z" fill="#0C0C0C"/>
<path d="M144.422 59.4008C145.294 59.4008 146 58.694 146 57.8223C146 56.9505 145.294 56.2438 144.422 56.2438C143.55 56.2438 142.843 56.9505 142.843 57.8223C142.843 58.694 143.55 59.4008 144.422 59.4008Z" fill="#0C0C0C"/>
<path d="M160.025 62.0864C160.897 62.0864 161.604 61.3797 161.604 60.5079C161.604 59.6362 160.897 58.9294 160.025 58.9294C159.153 58.9294 158.447 59.6362 158.447 60.5079C158.447 61.3797 159.153 62.0864 160.025 62.0864Z" fill="#0C0C0C"/>
<path opacity="0.1" d="M164.884 71.6923C165.056 70.4863 163.863 69.3181 162.219 69.083C160.575 68.8479 159.102 69.6349 158.93 70.841C158.757 72.047 159.95 73.2152 161.595 73.4503C163.239 73.6855 164.711 72.8984 164.884 71.6923Z" fill="#0C0C0C"/>
<path opacity="0.1" d="M144.287 68.2102C144.112 69.4148 142.64 70.2004 140.995 69.9678C140.711 69.9268 140.432 69.8566 140.163 69.7583C140.119 68.3165 140.147 66.9302 140.219 65.6503C140.68 65.5466 141.155 65.5298 141.622 65.6005C143.266 65.8315 144.459 67.0015 144.287 68.2102Z" fill="#0C0C0C"/>
<path d="M26.9867 103.173C27.2068 102.737 27.5568 102.38 27.9883 102.152C28.4199 101.923 28.9117 101.835 29.3958 101.898C29.3916 101.869 29.3945 101.839 29.4044 101.811C29.4142 101.783 29.4307 101.759 29.4524 101.739C29.474 101.719 29.5002 101.704 29.5287 101.697C29.5572 101.689 29.5871 101.689 29.6158 101.695L27.9823 100.524C27.4937 100.19 27.1426 99.6897 26.994 99.1166C26.8453 98.5434 26.9092 97.9358 27.1737 97.406C27.452 96.8913 27.9114 96.4983 28.4629 96.3031C29.0145 96.108 29.6189 96.1245 30.1589 96.3496C30.1547 96.3266 30.1704 96.3046 30.1741 96.281L29.5027 95.7997C29.0435 95.4826 28.7081 95.0166 28.553 94.4805C28.3979 93.9445 28.4328 93.3713 28.6516 92.858C28.7956 92.539 29.0085 92.2559 29.2751 92.0292C29.5417 91.8024 29.8553 91.6377 30.1933 91.5468C30.5313 91.4559 30.8852 91.4412 31.2295 91.5036C31.5739 91.5661 31.9001 91.7042 32.1846 91.908L33.7333 93.0183C33.738 93.0088 33.7333 92.9984 33.7396 92.9895C33.7458 92.9806 33.7626 92.9779 33.7715 92.9685C33.4155 92.5687 33.206 92.0598 33.1774 91.5252C33.1489 90.9906 33.303 90.4622 33.6144 90.0268C34.3476 88.8505 36.0329 89.0909 37.0348 89.8084L46.1507 96.1056L44.5214 93.3624C44.194 92.8345 44.0791 92.2022 44.1997 91.593C44.3203 90.9837 44.6676 90.4429 45.1713 90.0797C45.4381 89.9012 45.7384 89.7789 46.054 89.7203C46.3695 89.6617 46.6937 89.668 47.0068 89.7388C47.3198 89.8096 47.6152 89.9435 47.8748 90.1322C48.1344 90.3209 48.3529 90.5605 48.5168 90.8365L57.4143 105.815C58.458 107.572 58.7755 109.667 58.2992 111.654C57.823 113.642 56.5906 115.366 54.8638 116.459C52.8612 117.727 50.5256 118.368 48.1563 118.3C45.787 118.232 43.492 117.458 41.5655 116.077L27.7985 106.21C27.3405 105.87 27.0111 105.384 26.8638 104.833C26.7164 104.281 26.7597 103.696 26.9867 103.173Z" fill="#F0B39B"/>
<g opacity="0.25">
<path d="M42.7565 99.2448C42.7231 99.2911 42.673 99.3224 42.6168 99.3322C42.5607 99.342 42.5029 99.3294 42.4559 99.2972L33.7941 93.2943C33.7695 93.2784 33.7484 93.2577 33.732 93.2335C33.7155 93.2093 33.7041 93.182 33.6985 93.1533C33.6928 93.1246 33.693 93.095 33.6989 93.0664C33.7049 93.0377 33.7166 93.0106 33.7333 92.9865C33.7499 92.9625 33.7713 92.942 33.796 92.9264C33.8207 92.9107 33.8484 92.9002 33.8773 92.8955C33.9061 92.8907 33.9357 92.8918 33.9641 92.8987C33.9926 92.9056 34.0193 92.9181 34.0428 92.9356L42.7046 98.9353C42.752 98.9683 42.7844 99.0187 42.7947 99.0756C42.805 99.1324 42.7924 99.191 42.7596 99.2385L42.7565 99.2448Z" fill="#0C0C0C"/>
</g>
<g opacity="0.25">
<path d="M40.2159 103.136C40.1825 103.182 40.1324 103.214 40.0763 103.223C40.0201 103.233 39.9623 103.221 39.9153 103.188L30.249 96.4911C30.2015 96.4581 30.169 96.4077 30.1586 96.3509C30.1482 96.2941 30.1607 96.2354 30.1935 96.1878C30.2277 96.1418 30.2781 96.1105 30.3345 96.1003C30.3909 96.0901 30.4491 96.1017 30.4972 96.1328L40.164 102.829C40.2114 102.862 40.2438 102.912 40.2541 102.969C40.2645 103.026 40.2518 103.084 40.219 103.132L40.2159 103.136Z" fill="#0C0C0C"/>
</g>
<g opacity="0.25">
<path d="M37.4883 107.368C37.4551 107.414 37.4051 107.446 37.349 107.456C37.2929 107.466 37.2351 107.453 37.1882 107.421L29.477 102.079C29.4325 102.044 29.4028 101.995 29.3941 101.939C29.3854 101.884 29.3984 101.827 29.4303 101.781C29.4622 101.735 29.5106 101.703 29.5655 101.691C29.6204 101.68 29.6776 101.69 29.7252 101.72L37.4365 107.062C37.484 107.095 37.5165 107.145 37.5268 107.202C37.5371 107.259 37.5244 107.318 37.4915 107.366L37.4883 107.368Z" fill="#0C0C0C"/>
</g>
<path d="M61.3369 100.411L83.4808 151.549L114.035 109.732L140.514 133.601L95.297 192.161L95.0006 192.58C93.1907 195.059 90.7796 197.036 87.9943 198.325C85.209 199.614 82.1414 200.173 79.0804 199.949C76.0194 199.725 73.0658 198.726 70.4979 197.045C67.9301 195.364 65.8325 193.056 64.4028 190.34L32.5607 116.417L61.3369 100.411Z" fill="#AC3A99"/>
<path d="M86.0439 156.9C86.1007 156.9 86.1566 156.885 86.2062 156.858C86.2558 156.83 86.2975 156.79 86.3271 156.741C86.3568 156.693 86.3735 156.638 86.3756 156.581C86.3777 156.524 86.3652 156.468 86.3393 156.417L83.7778 151.398C83.7362 151.323 83.6669 151.266 83.5843 151.241C83.5018 151.215 83.4126 151.223 83.3357 151.262C83.2588 151.301 83.2001 151.369 83.1723 151.451C83.1444 151.533 83.1495 151.622 83.1865 151.7L85.748 156.719C85.7758 156.774 85.8182 156.819 85.8704 156.851C85.9227 156.883 85.9827 156.9 86.0439 156.9Z" fill="#0C0C0C"/>
<path d="M112.662 149.708C113.416 158.559 117.08 213.776 117.804 224.678H220.111C220.675 214.845 220.726 171.851 222.865 152.624C224.908 134.276 228.911 125.09 225.975 119.666C221.178 110.801 214.289 102.806 201.081 101.703C195.592 101.243 185.465 103.201 185.465 103.201C185.465 103.201 184.768 117.261 168.196 118.043C145.635 119.107 147.134 103.238 147.029 103.199C142.379 101.499 126.191 100.633 119.063 105.341C105.462 114.322 111.063 130.952 112.662 149.708Z" fill="#AC3A99"/>
<path d="M113.424 155.453L112.762 155.49L113.559 169.545L114.222 169.508L113.424 155.453Z" fill="#0C0C0C"/>
<path d="M299.682 109.378C299.422 108.965 299.041 108.642 298.591 108.455C298.141 108.267 297.644 108.224 297.168 108.331C297.169 108.301 297.163 108.272 297.151 108.245C297.139 108.219 297.12 108.195 297.097 108.177C297.073 108.16 297.046 108.148 297.017 108.143C296.988 108.138 296.958 108.14 296.93 108.15L298.449 106.833C298.905 106.455 299.208 105.925 299.303 105.34C299.398 104.756 299.279 104.157 298.967 103.653C298.642 103.167 298.148 102.818 297.581 102.674C297.014 102.531 296.414 102.603 295.897 102.877C295.897 102.853 295.881 102.833 295.876 102.81L296.499 102.269C296.927 101.911 297.219 101.416 297.324 100.867C297.429 100.319 297.341 99.7519 297.076 99.2609C296.903 98.9566 296.665 98.6943 296.378 98.4931C296.092 98.2919 295.765 98.1568 295.42 98.0974C295.075 98.038 294.721 98.0559 294.384 98.1498C294.047 98.2437 293.735 98.4112 293.47 98.6403L292.03 99.8884C292.025 99.8795 292.03 99.8684 292.022 99.8606C292.013 99.8527 291.998 99.8512 291.988 99.8428C292.305 99.4116 292.467 98.8854 292.445 98.3505C292.424 97.8156 292.222 97.3038 291.872 96.899C291.034 95.795 289.377 96.1898 288.446 96.9964L279.948 104.106L281.318 101.226C281.597 100.67 281.653 100.029 281.477 99.433C281.301 98.8369 280.905 98.3298 280.369 98.0145C280.087 97.8612 279.777 97.767 279.457 97.7377C279.138 97.7083 278.815 97.7444 278.51 97.8438C278.205 97.9431 277.923 98.1036 277.682 98.3155C277.441 98.5274 277.245 98.7862 277.108 99.0761L269.628 114.81C268.75 116.656 268.627 118.771 269.284 120.707C269.941 122.642 271.327 124.245 273.147 125.175C275.258 126.253 277.643 126.676 279.996 126.39C282.349 126.104 284.563 125.122 286.354 123.569L299.154 112.475C299.578 112.094 299.861 111.581 299.957 111.019C300.053 110.456 299.956 109.878 299.682 109.378Z" fill="#F0B39B"/>
<g opacity="0.25">
<path d="M283.617 106.916C283.655 106.959 283.708 106.985 283.764 106.989C283.821 106.994 283.877 106.976 283.921 106.939L291.993 100.167C292.015 100.149 292.033 100.127 292.047 100.101C292.06 100.076 292.068 100.048 292.071 100.019C292.073 99.9909 292.07 99.9622 292.061 99.9349C292.053 99.9076 292.039 99.8822 292.02 99.8603C292.002 99.8384 291.979 99.8203 291.954 99.807C291.929 99.7938 291.901 99.7857 291.872 99.7832C291.844 99.7807 291.815 99.7838 291.788 99.7924C291.761 99.801 291.735 99.8149 291.713 99.8333L283.641 106.605C283.596 106.642 283.569 106.695 283.564 106.753C283.559 106.81 283.577 106.868 283.614 106.912L283.617 106.916Z" fill="#0C0C0C"/>
</g>
<g opacity="0.25">
<path d="M286.505 110.557C286.543 110.6 286.596 110.626 286.652 110.63C286.709 110.635 286.765 110.617 286.809 110.58L295.817 103.023C295.861 102.986 295.889 102.932 295.894 102.875C295.899 102.817 295.881 102.76 295.844 102.715C295.806 102.673 295.753 102.646 295.696 102.641C295.639 102.637 295.582 102.653 295.537 102.689L286.529 110.246C286.485 110.283 286.457 110.336 286.452 110.394C286.447 110.452 286.465 110.509 286.502 110.553L286.505 110.557Z" fill="#0C0C0C"/>
</g>
<g opacity="0.25">
<path d="M289.611 114.522C289.649 114.565 289.701 114.591 289.758 114.595C289.815 114.6 289.871 114.582 289.915 114.545L297.101 108.514C297.145 108.477 297.173 108.424 297.178 108.367C297.183 108.309 297.165 108.252 297.128 108.207C297.091 108.163 297.038 108.135 296.98 108.13C296.923 108.125 296.865 108.143 296.821 108.18L289.634 114.209C289.59 114.246 289.563 114.299 289.558 114.357C289.553 114.414 289.571 114.472 289.608 114.516L289.611 114.522Z" fill="#0C0C0C"/>
</g>
<path d="M266.116 108.718L249.282 151.89L224.702 117.377L198.228 141.247L236.141 199.142L236.438 199.561C238.248 202.04 240.659 204.017 243.444 205.306C246.23 206.596 249.297 207.155 252.358 206.931C255.419 206.707 258.373 205.707 260.941 204.026C263.509 202.345 265.606 200.037 267.036 197.322L294.233 124.062L266.116 108.718Z" fill="#AC3A99"/>
<path d="M246.72 157.241C246.663 157.241 246.607 157.227 246.558 157.199C246.508 157.171 246.467 157.131 246.437 157.082C246.407 157.034 246.39 156.979 246.388 156.922C246.386 156.865 246.398 156.809 246.424 156.758L248.986 151.739C249.026 151.662 249.096 151.604 249.179 151.578C249.262 151.551 249.353 151.559 249.43 151.598C249.508 151.638 249.567 151.707 249.595 151.79C249.622 151.873 249.616 151.963 249.577 152.041L247.015 157.06C246.988 157.115 246.945 157.161 246.893 157.192C246.841 157.224 246.781 157.241 246.72 157.241Z" fill="#0C0C0C"/>
<path d="M85.283 68.7497V5.3655C85.283 3.94285 84.718 2.57843 83.7122 1.57226C82.7064 0.566093 81.3422 0.000555454 79.9196 0L5.3655 0C3.94248 0 2.57775 0.565292 1.57152 1.57152C0.565292 2.57775 0 3.94248 0 5.3655L0 52.627C0 54.05 0.565292 55.4147 1.57152 56.421C2.57775 57.4272 3.94248 57.9925 5.3655 57.9925H65.9452L82.8414 70.0092C83.0726 70.1737 83.3446 70.2714 83.6277 70.2916C83.9107 70.3118 84.1938 70.2536 84.446 70.1235C84.6982 69.9934 84.9097 69.7964 85.0573 69.5541C85.205 69.3117 85.283 69.0334 85.283 68.7497Z" fill="#0977F5"/>
<path d="M40.3468 50.3033C42.1604 50.3033 43.6306 48.8331 43.6306 47.0196C43.6306 45.206 42.1604 43.7358 40.3468 43.7358C38.5333 43.7358 37.0631 45.206 37.0631 47.0196C37.0631 48.8331 38.5333 50.3033 40.3468 50.3033Z" fill="white"/>
<path d="M40.1938 39.8928C39.627 39.8926 39.0833 39.6673 38.6825 39.2664C38.2817 38.8655 38.0565 38.3218 38.0565 37.7549V29.8154C38.0566 29.3357 38.2179 28.87 38.5147 28.4932C38.8115 28.1163 39.2264 27.8503 39.6926 27.7378C39.7853 27.7147 49.3479 25.2946 49.3479 18.8597C49.3479 14.8218 46.0375 11.999 41.2978 11.999C36.1654 11.999 33.5269 17.1314 33.4174 17.3482C33.161 17.8476 32.7184 18.2261 32.1852 18.4019C31.6521 18.5777 31.0712 18.5367 30.568 18.2878C30.0648 18.0389 29.6797 17.6021 29.4958 17.0717C29.312 16.5413 29.3441 15.9598 29.5854 15.4529C29.7425 15.1387 33.4787 7.72437 41.2978 7.72437C48.4393 7.72437 53.6225 12.4059 53.6225 18.8571C53.6225 26.6317 45.8191 30.193 42.3317 31.3965V37.7549C42.3315 38.3219 42.1063 38.8656 41.7054 39.2665C41.3045 39.6674 40.7608 39.8926 40.1938 39.8928Z" fill="white"/>
</g>
<defs>
<clipPath id="clip0_327_3288">
<rect width="300" height="268.295" fill="white"/>
</clipPath>
</defs>
</svg>
